<?xml version="1.0" encoding="UTF-8" standalone="no"?>
<svg
   xmlns:dc="http://purl.org/dc/elements/1.1/"
   xmlns:cc="http://creativecommons.org/ns#"
   xmlns:rdf="http://www.w3.org/1999/02/22-rdf-syntax-ns#"
   xmlns:svg="http://www.w3.org/2000/svg"
   xmlns="http://www.w3.org/2000/svg"
   xmlns:sodipodi="http://sodipodi.sourceforge.net/DTD/sodipodi-0.dtd"
   xmlns:inkscape="http://www.inkscape.org/namespaces/inkscape"
   id="svg949"
   version="1.1"
   viewBox="0 0 100.0 100.0"
   height="100.0mm"
   width="100.0mm"
   inkscape:version="1.0 (4035a4fb49, 2020-05-01)"
   sodipodi:docname="drawing.svg">
  <defs
     id="defs943" />
  <sodipodi:namedview
     inkscape:window-maximized="1"
     inkscape:window-y="-8"
     inkscape:window-x="-8"
     inkscape:window-height="1017"
     inkscape:window-width="1920"
     showgrid="false"
     inkscape:document-rotation="0"
     inkscape:current-layer="g974"
     inkscape:document-units="mm"
     inkscape:cy="156.33396"
     inkscape:cx="166.66048"
     inkscape:zoom="4.9390133"
     inkscape:pageshadow="2"
     inkscape:pageopacity="0.0"
     borderopacity="1.0"
     bordercolor="#666666"
     pagecolor="#ffffff"
     id="base" />
  <metadata
     id="metadata946">
    <rdf:RDF>
      <cc:Work
         rdf:about="">
        <dc:format>image/svg+xml</dc:format>
        <dc:type
           rdf:resource="http://purl.org/dc/dcmitype/StillImage" />
        <dc:title />
      </cc:Work>
    </rdf:RDF>
  </metadata>
  <g
     inkscape:label="[fixed] BG"
     inkscape:groupmode="layer"
     sodipodi:insensitive="true"
     id="g960">
    <rect
       x="0"
       y="0"
       width="100.0"
       height="100.0"
       style="fill:#FFFFFF;fill-opacity:1;stroke:none"
       id="rect958" />
  </g>
  <g
     inkscape:label="Edge.Cuts"
     inkscape:groupmode="layer"
     id="g962">
    <path
       d="M 47.8991 8.69353 L 47.5224 8.70656 L 47.1507 8.73818 L 46.7846 8.78793 L 46.4245 8.85536 L 46.0707 8.94 L 45.7238 9.04141 L 45.3843 9.15912 L 45.0525 9.29268 L 44.7289 9.44163 L 44.414 9.60551 L 44.1083 9.78387 L 43.8121 9.97625 L 43.526 10.1822 L 43.2503 10.4012 L 42.9856 10.6329 L 42.7323 10.8768 L 42.4908 11.1324 L 42.2617 11.3993 L 42.0452 11.6771 L 41.842 11.9651 L 41.6525 12.2631 L 41.477 12.5706 L 41.3162 12.887 L 41.1703 13.212 L 41.0399 13.545 L 40.9254 13.8857 L 40.8273 14.2335 L 40.746 14.588 L 40.682 14.9488 L 40.6358 15.3154 L 40.6077 15.6873 L 40.5982 16.0641 L 40.6167 16.5842 L 40.6716 17.101 L 40.7629 17.6127 L 40.8902 18.1172 L 40.5653 18.4725 L 40.2756 18.858 L 40.0235 19.2714 L 39.8117 19.7101 L 39.6425 20.1716 L 39.5186 20.6534 L 39.4424 21.153 L 39.4164 21.6679 L 39.4164 25.1339 L 38.7686 25.4547 L 38.1359 25.7969 L 37.5188 26.1598 L 36.9177 26.5429 L 36.3327 26.9457 L 35.7644 27.3676 L 35.213 27.808 L 34.6789 28.2663 L 34.1625 28.7421 L 33.664 29.2348 L 33.184 29.7437 L 32.7227 30.2685 L 32.2804 30.8084 L 31.8575 31.3629 L 31.4545 31.9315 L 31.0715 32.5137 L 30.709 33.1088 L 30.3674 33.7163 L 30.0469 34.3357 L 29.748 34.9663 L 29.471 35.6078 L 29.2162 36.2593 L 28.984 36.9206 L 28.7747 37.5909 L 28.5888 38.2697 L 28.4265 38.9564 L 28.2882 39.6506 L 28.1742 40.3516 L 28.085 41.0589 L 28.0208 41.7719 L 27.982 42.4901 L 27.969 43.2129 L 27.9936 44.2046 L 28.0669 45.1896 L 28.1882 46.1663 L 28.3568 47.1329 L 28.5721 48.0879 L 28.8334 49.0296 L 29.1401 49.9564 L 29.4913 50.8666 L 29.8865 51.7586 L 30.325 52.6308 L 30.8061 53.4814 L 31.3291 54.309 L 31.8933 55.1118 L 32.4981 55.8881 L 33.1428 56.6365 L 33.8267 57.3551 L 34.5454 58.039 L 35.2937 58.6837 L 36.07 59.2886 L 36.8728 59.8528 L 37.7004 60.3759 L 38.551 60.857 L 39.4232 61.2955 L 40.3152 61.6907 L 41.2254 62.042 L 42.1521 62.3486 L 43.0938 62.61 L 44.0488 62.8253 L 45.0154 62.994 L 45.9921 63.1153 L 46.9771 63.1886 L 47.9688 63.2132 L 48.9606 63.1886 L 49.9456 63.1153 L 50.9222 62.994 L 51.8889 62.8253 L 52.8439 62.61 L 53.7856 62.3486 L 54.7123 62.042 L 55.6225 61.6907 L 56.5145 61.2955 L 57.3867 60.857 L 58.2373 60.3759 L 59.0649 59.8528 L 59.8676 59.2886 L 60.644 58.6837 L 61.3923 58.039 L 62.111 57.3551 L 62.7949 56.6365 L 63.4395 55.8881 L 64.0443 55.1118 L 64.6086 54.309 L 65.1316 53.4814 L 65.6127 52.6308 L 66.0511 51.7586 L 66.4464 50.8666 L 66.7976 49.9564 L 67.1042 49.0296 L 67.3655 48.0879 L 67.5809 47.1329 L 67.7495 46.1663 L 67.8708 45.1896 L 67.9441 44.2046 L 67.9687 43.2129 L 67.9556 42.4901 L 67.9168 41.7719 L 67.8527 41.0589 L 67.7634 40.3516 L 67.6494 39.6507 L 67.5111 38.9565 L 67.3488 38.2698 L 67.1628 37.591 L 66.9536 36.9207 L 66.7214 36.2595 L 66.4666 35.608 L 66.1895 34.9666 L 65.8906 34.3359 L 65.5701 33.7166 L 65.2285 33.1091 L 64.866 32.514 L 64.4831 31.9318 L 64.08 31.3632 L 63.6572 30.8087 L 63.2149 30.2688 L 62.7536 29.7441 L 62.2735 29.2352 L 61.7751 28.7425 L 61.2587 28.2668 L 60.7246 27.8084 L 60.1732 27.368 L 59.6049 26.9462 L 59.02 26.5434 L 58.4188 26.1603 L 57.8017 25.7974 L 57.1691 25.4552 L 56.5213 25.1344 L 56.5213 21.6679 L 56.4953 21.153 L 56.4191 20.6534 L 56.2952 20.1716 L 56.126 19.7101 L 55.9141 19.2714 L 55.6621 18.858 L 55.3724 18.4725 L 55.0475 18.1172 L 55.1748 17.6127 L 55.266 17.101 L 55.321 16.5842 L 55.3394 16.0641 L 55.3304 15.6986 L 55.3034 15.3356 L 55.2587 14.9757 L 55.1965 14.6195 L 55.1172 14.2675 L 55.0209 13.9205 L 54.9079 13.579 L 54.7784 13.2435 L 54.6328 12.9148 L 54.4712 12.5934 L 54.2939 12.2799 L 54.1011 11.9749 L 53.8932 11.6791 L 53.6703 11.3929 L 53.4327 11.1172 L 53.1807 10.8523 L 52.9158 10.6003 L 52.64 10.3627 L 52.3539 10.1398 L 52.0581 9.93185 L 51.7531 9.73911 L 51.4396 9.56181 L 51.1182 9.40021 L 50.7895 9.25456 L 50.454 9.12511 L 50.1125 9.01211 L 49.7654 8.9158 L 49.4135 8.83645 L 49.0573 8.77429 L 48.6973 8.72959 L 48.3343 8.70258 L 47.9688 8.69353 L 47.8991 8.69353 L 47.8991 8.69353"
       style="fill:none;stroke:#000000;stroke-width:0.5;stroke-miterlimit:10;stroke-dasharray:none;stroke-opacity:1"
       id="path992" />
  </g>
  <g
     inkscape:label="B.Cu"
     inkscape:groupmode="layer"
     id="g964" />
  <g
     inkscape:label="B.Mask"
     inkscape:groupmode="layer"
     id="g966" />
  <g
     inkscape:label="B.SilkS"
     inkscape:groupmode="layer"
     id="g968"
     style="display:none">
    <text
       id="text1635"
       y="57.302761"
       x="-59.142452"
       style="font-style:normal;font-weight:normal;font-size:3.89029px;line-height:1.25;font-family:sans-serif;fill:#000000;fill-opacity:1;stroke:none;stroke-width:0.162095"
       xml:space="preserve"
       transform="scale(-1,1)"><tspan
         style="font-style:normal;font-variant:normal;font-weight:normal;font-stretch:normal;font-size:3.89029px;font-family:'Ariestha Script';-inkscape-font-specification:'Ariestha Script';stroke-width:0.162095"
         y="57.302761"
         x="-59.142452"
         id="tspan1633"
         sodipodi:role="line"
         rotate="0 0 0 0 0 0 0 0 0 0 0 0 0 0 0">Christmas 2020</tspan></text>
  </g>
  <g
     inkscape:label="F.Cu"
     inkscape:groupmode="layer"
     id="g970" />
  <g
     inkscape:label="F.Mask"
     inkscape:groupmode="layer"
     id="g972" />
  <g
     inkscape:label="F.SilkS"
     inkscape:groupmode="layer"
     id="g974"
     style="display:inline">
    <path
       id="path946"
       style="fill:#830000;fill-opacity:1;stroke:#000000;stroke-width:0.0901713px;stroke-linecap:butt;stroke-linejoin:miter;stroke-opacity:1"
       d="m 139.81109,53.798316 c 0.93513,0.27179 5.45346,-1.007927 7.73056,-7.295357 1.2855,-3.549422 -1.10317,-6.660276 -1.10317,-6.660276 l 0.0509,-0.101455 0.18864,0.03657 -0.11009,-0.193671 0.0296,-0.05905 -0.0725,-0.01633 -0.0986,-0.173707 0.19806,-0.877507 -0.03,-0.233315 0.21927,-0.19638 0.018,-0.205339 -0.24478,-0.260801 0.0689,-0.32665 0.4303,-0.154951 0.0491,-0.18205 -0.24483,-0.260646 0.0458,-0.377998 0.30187,-0.159306 0.19303,-0.09851 -0.0549,-0.20977 -0.17804,-0.302838 0.14187,-0.322366 0.15249,-0.154195 -0.2102,-0.251535 -0.64978,-0.339276 -0.20352,-0.06944 -0.29223,-0.843881 -0.10434,-0.508355 -0.33455,-0.280911 0.0301,-0.100791 -0.22786,-0.04811 -0.22136,-0.07236 -0.0243,0.102344 -0.43019,0.076 -0.34454,0.38808 -0.67502,0.584716 -0.21097,-0.04162 -0.73235,-0.03106 -0.30781,0.112733 0.055,0.209772 -0.0383,0.350112 -0.30559,0.173259 -0.15247,0.154191 0.11791,0.181825 0.18178,0.288903 -0.14933,0.350243 -0.34236,0.103312 -0.0491,0.18205 0.29516,0.349337 -0.10328,0.317446 -0.34238,0.10347 -0.0872,0.186791 0.0917,0.279702 -0.14267,0.187028 -0.26684,0.859099 -0.17227,0.101118 -0.071,-0.02213 -0.004,0.06594 -0.19218,0.112679 0.18164,0.06265 -0.007,0.113309 c 0,0 -3.62407,1.499744 -4.28552,5.216381 -1.17168,6.583628 2.01435,9.885262 3.04719,10.183244 z"
       sodipodi:nodetypes="cscccccccccccccccccccccccccccccccccccccccccccccccccccccccccccccsc" />
    <path
       sodipodi:nodetypes="cscccccccccccccccccccccccccccccccccccccccccccccccccccccccccccccsc"
       d="m 162.46999,62.789024 c 0.94574,-0.232187 4.21887,-3.599615 3.04718,-10.183244 -0.66143,-3.716639 -4.28551,-5.216381 -4.28551,-5.216381 l -0.007,-0.113309 0.18164,-0.06265 -0.19217,-0.112682 -0.004,-0.06594 -0.071,0.02213 -0.17227,-0.101119 -0.26723,-0.858976 -0.14267,-0.187037 0.0917,-0.279704 -0.0871,-0.186809 -0.34239,-0.103468 -0.10366,-0.317334 0.29517,-0.349339 -0.0485,-0.182201 -0.34235,-0.103315 -0.14934,-0.350252 0.18178,-0.288902 0.11791,-0.181824 -0.15247,-0.154191 -0.30561,-0.173247 -0.0383,-0.350112 0.055,-0.209785 -0.30781,-0.112735 -0.73236,0.03107 -0.21098,0.04162 -0.67502,-0.584704 -0.34453,-0.388082 -0.43019,-0.076 -0.0243,-0.102343 -0.22139,0.07226 -0.22789,0.04802 0.0301,0.100791 -0.33456,0.280911 -0.10434,0.508357 -0.29222,0.843888 -0.20352,0.06944 -0.64977,0.339271 -0.21021,0.251537 0.15249,0.154189 0.14187,0.322366 -0.17803,0.302845 -0.0549,0.20977 0.19303,0.09851 0.30188,0.159307 0.0458,0.377988 -0.24483,0.260648 0.0485,0.1822 0.43029,0.154954 0.0693,0.326556 -0.24478,0.260801 0.0179,0.205374 0.21926,0.196383 -0.03,0.233305 0.19846,0.877423 -0.0986,0.173707 -0.0725,0.01633 0.0296,0.05905 -0.11009,0.193674 0.18863,-0.03657 0.0509,0.101455 c 0,0 -2.38866,3.110851 -1.10317,6.660276 2.27711,6.287431 6.6871,7.553718 7.73056,7.295359 z"
       style="display:inline;fill:#830000;fill-opacity:1;stroke:#000000;stroke-width:0.0901713px;stroke-linecap:butt;stroke-linejoin:miter;stroke-opacity:1"
       id="path946-8" />
    <path
       sodipodi:nodetypes="cscccccccccccccccccccccccccccccccccccccccccccccccccccccccccccccsc"
       d="m 172.51282,67.891289 c 0.93513,0.27179 5.45346,-1.007926 7.73056,-7.295357 1.2855,-3.549421 -1.10317,-6.660276 -1.10317,-6.660276 l 0.0509,-0.101455 0.18863,0.03657 -0.11008,-0.193671 0.0296,-0.05905 -0.0725,-0.01633 -0.0986,-0.173707 0.19806,-0.877507 -0.03,-0.233314 0.21927,-0.19638 0.018,-0.20534 -0.24478,-0.260799 0.0689,-0.326651 0.43029,-0.154951 0.0491,-0.182051 -0.24483,-0.260646 0.0458,-0.377997 0.30187,-0.159306 0.19303,-0.09851 -0.0549,-0.20977 -0.17804,-0.302838 0.14187,-0.322366 0.15249,-0.154196 -0.2102,-0.251535 -0.64978,-0.339276 -0.20352,-0.06944 -0.29223,-0.843881 -0.10434,-0.508355 -0.33455,-0.280911 0.0301,-0.10079 -0.22786,-0.04811 -0.22136,-0.07236 -0.0243,0.102344 -0.43019,0.076 -0.34454,0.388079 -0.67502,0.584717 -0.21097,-0.04162 -0.73235,-0.03106 -0.30781,0.112732 0.055,0.209773 -0.0383,0.350111 -0.30559,0.17326 -0.15247,0.154191 0.11791,0.181825 0.18178,0.288902 -0.14933,0.350243 -0.34236,0.103312 -0.0491,0.182048 0.29516,0.349337 -0.10328,0.317446 -0.34238,0.103469 -0.0872,0.186792 0.0917,0.279702 -0.14267,0.187028 -0.26684,0.859098 -0.17227,0.101119 -0.071,-0.02213 -0.004,0.06594 -0.19218,0.112679 0.18164,0.06265 -0.007,0.113309 c 0,0 -3.62407,1.499745 -4.28552,5.216382 -1.17168,6.583629 2.01435,9.885264 3.04719,10.183246 z"
       style="display:inline;fill:#830000;fill-opacity:1;stroke:#000000;stroke-width:0.0901713px;stroke-linecap:butt;stroke-linejoin:miter;stroke-opacity:1"
       id="path946-82" />
    <path
       sodipodi:nodetypes="cscccccccccccccccccccccccccccccccccccccccccccccccccccccccccccccsc"
       d="m 190.96196,90.671543 c 0.85342,-0.469051 3.14346,-4.568886 0.30773,-10.624926 -1.60083,-3.418804 -5.48958,-3.929463 -5.48958,-3.929463 l -0.0361,-0.107635 0.15923,-0.107528 -0.21478,-0.05911 -0.0209,-0.06266 -0.0629,0.03975 -0.19257,-0.05308 -0.48044,-0.760543 -0.18622,-0.143739 0.0162,-0.293907 -0.13248,-0.157901 -0.3575,-0.01132 -0.18226,-0.279692 0.1947,-0.413832 -0.094,-0.163439 -0.35742,-0.01119 -0.23491,-0.299665 0.10082,-0.326107 0.0668,-0.206145 -0.18718,-0.109475 -0.34003,-0.08825 -0.12761,-0.328269 -0.001,-0.216872 -0.3265,-0.02923 -0.69936,0.21956 -0.19302,0.09481 -0.80335,-0.390073 -0.43324,-0.285687 -0.4352,0.03793 -0.05,-0.09257 -0.19514,0.127098 -0.20769,0.105363 0.0552,0.08957 -0.25046,0.357929 0.0308,0.518041 -0.0639,0.890766 -0.17861,0.119749 -0.53981,0.49588 -0.13794,0.297373 0.18719,0.10947 0.22047,0.274663 -0.0936,0.338604 0.001,0.216831 0.21196,0.04519 0.33281,0.07575 0.14207,0.353255 -0.16902,0.315134 0.094,0.163439 0.45573,0.03831 0.15146,0.297492 -0.16894,0.315268 0.0704,0.193744 0.26261,0.132942 0.0314,0.23312 0.41879,0.796161 -0.0503,0.193307 -0.0658,0.03454 0.0439,0.04938 -0.0562,0.215568 0.17274,-0.08414 0.0754,0.08482 c 0,0 -1.50212,3.623082 0.65823,6.718852 3.82682,5.483832 8.41428,5.565581 9.35532,5.045958 z"
       style="display:inline;fill:#830000;fill-opacity:1;stroke:#000000;stroke-width:0.0901713px;stroke-linecap:butt;stroke-linejoin:miter;stroke-opacity:1"
       id="path946-6" />
    <path
       sodipodi:nodetypes="cscccccccccccccccccccccccccccccccccccccccccccccccccccccccccccccsc"
       d="m 167.96345,97.996578 c 0.93513,0.27179 5.45344,-1.007916 7.73055,-7.295356 1.28551,-3.54942 -1.10316,-6.660273 -1.10316,-6.660273 l 0.0509,-0.101445 0.18863,0.03657 -0.11008,-0.193673 0.0296,-0.05906 -0.0725,-0.01633 -0.0986,-0.173701 0.19806,-0.877506 -0.03,-0.233313 0.21927,-0.196381 0.018,-0.20533 -0.24478,-0.260801 0.0689,-0.326651 0.43029,-0.154947 0.0491,-0.182038 -0.24482,-0.260646 0.0458,-0.378 0.30187,-0.159306 0.19303,-0.09851 -0.0552,-0.209728 -0.17805,-0.302836 0.14188,-0.322368 0.15249,-0.154195 -0.21021,-0.251533 -0.64978,-0.339275 -0.20351,-0.06944 -0.29227,-0.843871 -0.10433,-0.508359 -0.33456,-0.28091 0.0301,-0.100804 -0.22785,-0.04811 -0.22137,-0.07236 -0.0243,0.102356 -0.43019,0.076 -0.34454,0.388079 -0.67502,0.584717 -0.21098,-0.04162 -0.73235,-0.03106 -0.3078,0.112736 0.0552,0.209728 -0.0383,0.350113 -0.30559,0.173256 -0.15246,0.154191 0.11787,0.181833 0.18178,0.288904 -0.14933,0.350242 -0.34235,0.103309 -0.0491,0.182038 0.29516,0.349336 -0.10328,0.317446 -0.34238,0.103472 -0.0872,0.186791 0.0917,0.279697 -0.14267,0.187027 -0.26684,0.859099 -0.17227,0.101122 -0.071,-0.02212 -0.004,0.06593 -0.19218,0.112678 0.18164,0.06265 -0.007,0.113312 c 0,0 -3.62408,1.499746 -4.28553,5.216381 -1.17168,6.583627 2.01434,9.885271 3.04718,10.183254 z"
       style="display:inline;fill:#830000;fill-opacity:1;stroke:#000000;stroke-width:0.0901713px;stroke-linecap:butt;stroke-linejoin:miter;stroke-opacity:1"
       id="path946-5" />
    <path
       sodipodi:nodetypes="cscccccccccccccccccccccccccccccccccccccccccccccccccccccccccccccsc"
       d="m 158.57142,102.0919 c 0.94574,-0.23219 4.21886,-3.599615 3.04719,-10.183234 -0.66144,-3.716639 -4.28552,-5.216381 -4.28552,-5.216381 l -0.007,-0.113309 0.18164,-0.06265 -0.19217,-0.112681 -0.004,-0.06594 -0.071,0.02213 -0.17227,-0.101118 -0.26723,-0.858976 -0.14267,-0.187038 0.0917,-0.279705 -0.0871,-0.186807 -0.34239,-0.10347 -0.10366,-0.317332 0.29517,-0.34934 -0.0485,-0.1822 -0.34235,-0.103315 -0.14934,-0.350253 0.18178,-0.288902 0.11791,-0.181823 -0.15247,-0.154191 -0.30561,-0.173245 -0.0383,-0.350112 0.055,-0.209784 -0.3078,-0.112736 -0.73237,0.03107 -0.21097,0.04162 -0.67503,-0.584705 -0.34453,-0.388082 -0.43019,-0.076 -0.0243,-0.102343 -0.22139,0.07226 -0.22787,0.04802 0.0301,0.100791 -0.33456,0.280911 -0.10434,0.508358 -0.29222,0.843887 -0.20352,0.06944 -0.64976,0.339271 -0.21021,0.251537 0.15248,0.154188 0.14187,0.322367 -0.17803,0.302845 -0.0549,0.20977 0.19304,0.09851 0.30186,0.159309 0.0458,0.377988 -0.24483,0.260648 0.0485,0.182201 0.43029,0.154953 0.0693,0.326556 -0.24478,0.260801 0.0179,0.205374 0.21926,0.196384 -0.03,0.233304 0.19846,0.877423 -0.0986,0.173707 -0.0726,0.01633 0.0296,0.05905 -0.11009,0.193674 0.18863,-0.03657 0.0509,0.101455 c 0,0 -2.38866,3.110851 -1.10317,6.660276 2.27711,6.287426 6.6871,7.553706 7.73056,7.295346 z"
       style="display:inline;fill:#830000;fill-opacity:1;stroke:#000000;stroke-width:0.0901713px;stroke-linecap:butt;stroke-linejoin:miter;stroke-opacity:1"
       id="path946-2" />
    <path
       sodipodi:nodetypes="cscccccccccccccccccccccccccccccccccccccccccccccccccccccccccccccsc"
       d="m 132.44276,102.99641 c 0.83292,0.50456 5.52851,0.43788 9.35532,-5.045958 2.16036,-3.095766 0.65823,-6.718854 0.65823,-6.718854 l 0.0754,-0.08482 0.17275,0.08415 -0.0562,-0.215565 0.0439,-0.04938 -0.0658,-0.03454 -0.0503,-0.193308 0.41843,-0.796345 0.0314,-0.233129 0.26263,-0.132938 0.0705,-0.193683 -0.16894,-0.315268 0.1511,-0.297687 0.45574,-0.0383 0.0945,-0.163139 -0.16903,-0.315131 0.14207,-0.353264 0.33283,-0.07575 0.21193,-0.0452 0.001,-0.21683 -0.0936,-0.3386 0.22047,-0.274663 0.18722,-0.109471 -0.13794,-0.297368 -0.53983,-0.495891 -0.17862,-0.119751 -0.0639,-0.890762 0.0308,-0.518038 -0.25045,-0.357927 0.0552,-0.08956 -0.20764,-0.105445 -0.19509,-0.127187 -0.05,0.09257 -0.4352,-0.03793 -0.43324,0.285683 -0.80336,0.390085 -0.19301,-0.0948 -0.69936,-0.219548 -0.32649,0.02922 -0.001,0.216859 -0.12761,0.328269 -0.34002,0.08826 -0.18718,0.109475 0.0668,0.206147 0.10081,0.326106 -0.23489,0.299659 -0.35743,0.01118 -0.0945,0.163138 0.19469,0.413827 -0.18192,0.279899 -0.3575,0.01133 -0.13257,0.157858 0.0162,0.293905 -0.18621,0.143729 -0.4801,0.760763 -0.19257,0.05309 -0.0629,-0.03975 -0.0209,0.06266 -0.21479,0.0591 0.15923,0.107527 -0.0361,0.107637 c 0,0 -3.88875,0.510663 -5.4896,3.929462 -2.83572,6.056049 -0.61278,10.06978 0.30775,10.62493 z"
       style="display:inline;fill:#830000;fill-opacity:1;stroke:#000000;stroke-width:0.0901713px;stroke-linecap:butt;stroke-linejoin:miter;stroke-opacity:1"
       id="path946-25" />
    <path
       style="fill:none;stroke:#000000;stroke-width:1;stroke-linecap:butt;stroke-linejoin:miter;stroke-miterlimit:4;stroke-dasharray:none;stroke-opacity:1"
       d="m 120.34282,26.162573 c 0,0 21.0678,5.043502 24.13698,6.901609 2.80257,1.696701 8.36316,9.067297 12.46754,8.365236 4.69282,-0.802716 8.88397,6.780493 21.25234,4.995312 9.57332,-1.381759 22.08916,7.223466 17.43542,19.619894 -4.8425,12.899241 -9.53383,0.746774 -15.86904,5.699122 -6.33521,4.952344 1.60338,6.626937 -6.28839,4.968898 -13.70313,-2.878988 -20.79179,4.299475 -20.79179,4.299475 -5.70946,1.694579 -1.71667,7.664471 -9.44904,2.824689 -7.73238,-4.839787 -15.85887,-7.107642 -19.82762,-5.217761 -3.96875,1.889879 -4.15773,1.889879 -4.15773,1.889879"
       id="path1033"
       sodipodi:nodetypes="csssssscssc" />
    <path
       sodipodi:nodetypes="cscccccccccccccccccccccccccccccccccccccccccccccccccccccccccccccsc"
       d="m -28.863235,27.270456 c 0.93513,0.27179 5.45346,-1.007927 7.73056,-7.295357 1.2855,-3.54942 -1.10317,-6.66028 -1.10317,-6.66028 l 0.0509,-0.10145 0.18864,0.0366 -0.11009,-0.19367 0.0296,-0.059 -0.0725,-0.0163 -0.0986,-0.17371 0.19806,-0.87751 -0.03,-0.23331 0.21927,-0.19638 0.018,-0.20534 -0.24477,-0.2608 0.0689,-0.32665 0.4303,-0.15495 0.0491,-0.18205 -0.24483,-0.26065 0.0458,-0.378 0.30187,-0.1593 0.19303,-0.0985 -0.0549,-0.20977 -0.17804,-0.30284 0.14187,-0.32237 0.15249,-0.15419 -0.2102,-0.25154 -0.64978,-0.33927 -0.20352,-0.0694 -0.29223,-0.84388 -0.10434,-0.50836 -0.33455,-0.28091 0.0301,-0.10079 -0.22786,-0.0481 -0.22136,-0.0724 -0.0243,0.10234 -0.43019,0.076 -0.34454,0.38808 -0.67502,0.58472 -0.21097,-0.0416 -0.73235,-0.0311 -0.30781,0.11273 0.055,0.20977 -0.0383,0.35012 -0.30559,0.17326 -0.15247,0.15419 0.11791,0.18182 0.18178,0.2889 -0.14933,0.35025 -0.34236,0.10331 -0.0491,0.18205 0.29516,0.34934 -0.10328,0.31744 -0.34238,0.10347 -0.0872,0.18679 0.0917,0.27971 -0.14267,0.18702 -0.26684,0.8591 -0.17227,0.10112 -0.071,-0.0221 -0.004,0.0659 -0.19218,0.11268 0.18164,0.0626 -0.007,0.11331 c 0,0 -3.62407,1.49974 -4.28552,5.21638 -1.17168,6.58363 2.01435,9.885262 3.04719,10.183244 z"
       style="display:inline;fill:#830000;fill-opacity:1;stroke:#000000;stroke-width:0.0901713px;stroke-linecap:butt;stroke-linejoin:miter;stroke-opacity:1"
       id="path946-3" />
    <path
       id="path946-7"
       style="display:inline;fill:#830000;fill-opacity:1;stroke:#000000;stroke-width:0.0388117px;stroke-linecap:butt;stroke-linejoin:miter;stroke-opacity:1"
       d="m 34.428452,25.013429 -0.100314,0.418608 c 0,0 1.662734,0.400367 3.650467,0.913507 l -0.05004,0.04204 -0.04471,0.218867 -0.125894,0.363224 -0.08764,0.02981 -0.27959,0.145912 -0.09053,0.108321 0.06562,0.06628 0.06117,0.138794 -0.07674,0.130343 -0.02358,0.0903 0.08319,0.04248 0.129897,0.06851 0.01957,0.162594 -0.105209,0.112325 0.02091,0.07829 0.185059,0.06673 0.02981,0.140573 -0.105208,0.112325 0.0076,0.0883 0.09453,0.08452 -0.0129,0.100536 0.08541,0.377681 -0.04248,0.07474 -0.03136,0.0069 0.0129,0.02558 -0.0476,0.08341 0.08119,-0.01579 0.0218,0.0436 c 0,0 -1.027966,1.339109 -0.474659,2.866858 0.980111,2.706251 2.878154,3.251203 3.327282,3.139998 0.407597,-0.1008 1.815361,-1.550115 1.311205,-4.382919 -0.284695,-1.599725 -1.844586,-2.245178 -1.844586,-2.245178 l -0.0031,-0.04893 0.07829,-0.02692 -0.08274,-0.04849 -0.0018,-0.02825 -0.03047,0.0093 -0.07407,-0.04337 -0.114995,-0.369896 -0.06161,-0.08052 0.03959,-0.120333 -0.03759,-0.0803 -0.147247,-0.04471 -0.04471,-0.136571 0.127005,-0.15036 -0.02069,-0.07829 -0.147468,-0.04449 -0.06428,-0.150805 0.07829,-0.124337 0.05071,-0.07829 -0.06562,-0.06628 -0.131677,-0.07451 -0.01646,-0.150805 0.01402,-0.05294 c 1.088889,0.290614 2.187205,0.595633 3.107524,0.876361 1.031392,0.314608 1.858113,0.614039 2.13196,0.779828 0.538983,0.326305 1.460921,1.308194 2.442913,2.165324 0.0342,0.02985 0.06925,0.05809 0.10365,0.08764 l -0.134346,0.151251 -0.290489,0.251564 -0.09075,-0.01779 -0.3154,-0.01335 -0.132344,0.04849 0.02358,0.09031 -0.01646,0.150584 -0.131455,0.07473 -0.06562,0.06628 0.05071,0.07829 0.07829,0.124337 -0.06428,0.150806 -0.147469,0.04448 -0.02113,0.07829 0.127005,0.15036 -0.04448,0.13657 -0.147247,0.04449 -0.03759,0.08052 0.03959,0.120333 -0.06139,0.08052 -0.114995,0.369673 -0.07407,0.0436 -0.03069,-0.0096 -0.0016,0.02847 -0.08274,0.04849 0.07807,0.02691 -0.0029,0.04871 c 0,0 -1.559882,0.645675 -1.844584,2.245397 -0.504164,2.832871 0.865994,4.253908 1.310982,4.382919 0.4025,0.116985 2.347167,-0.433972 3.327282,-3.140221 0.553307,-1.527749 -0.474881,-2.866635 -0.474881,-2.866635 l 0.02202,-0.0436 0.08119,0.01557 -0.04738,-0.08319 0.01268,-0.02558 -0.03114,-0.0069 -0.04248,-0.07473 0.08519,-0.377681 -0.0129,-0.100537 0.09453,-0.08452 0.0076,-0.0883 -0.105208,-0.112325 0.02958,-0.140574 0.185282,-0.06673 0.02113,-0.07829 -0.10543,-0.112326 0.0198,-0.162593 0.129898,-0.06851 0.08297,-0.04248 -0.02358,-0.09031 -0.07651,-0.130342 0.06094,-0.138794 0.06562,-0.06628 -0.09053,-0.108322 -0.279591,-0.145911 -0.08764,-0.03003 -0.06517,-0.188618 c 0.256055,0.190585 0.515184,0.362523 0.775158,0.503353 0.515236,0.279106 1.041682,0.442674 1.552983,0.355215 0.444218,-0.07598 0.887728,0.04429 1.406848,0.281815 0.356388,0.163063 0.746286,0.381282 1.178195,0.61234 l -0.02958,0.0062 0.0129,0.04337 -0.144132,0.120777 -0.04471,0.218868 -0.125894,0.363223 -0.08764,0.03003 -0.279591,0.145912 -0.09053,0.108323 0.06562,0.06628 0.06117,0.138794 -0.07674,0.130342 -0.02358,0.09031 0.08297,0.04248 0.130119,0.06851 0.01958,0.162594 -0.105209,0.112325 0.02069,0.0783 0.185281,0.06673 0.02981,0.140573 -0.10543,0.112326 0.0078,0.0883 0.09431,0.08452 -0.0129,0.100536 0.08541,0.377682 -0.04226,0.07474 -0.03136,0.0069 0.0129,0.02558 -0.04738,0.08319 0.08119,-0.01557 0.0218,0.0436 c 0,0 -1.028184,1.338885 -0.47488,2.866636 0.979985,2.70588 2.877821,3.251231 3.327281,3.140221 h 2.23e-4 c 0.40781,-0.101153 1.815068,-1.550504 1.310983,-4.38292 -0.284694,-1.599723 -1.844586,-2.245175 -1.844586,-2.245175 l -0.0031,-0.04893 0.07829,-0.02691 -0.08274,-0.04849 -0.0018,-0.02847 -0.03047,0.0096 -0.07429,-0.04337 -0.114994,-0.369895 -0.06139,-0.08052 0.03959,-0.120333 -0.03759,-0.0803 -0.147469,-0.04449 -0.04449,-0.136792 0.127006,-0.15036 -0.02091,-0.07829 -0.147245,-0.04449 -0.06428,-0.150806 0.07829,-0.124335 0.05071,-0.07829 -0.06562,-0.06628 -0.131676,-0.07451 -0.0073,-0.06673 c 1.297157,0.543249 2.959749,0.943793 5.23459,0.615455 0.728869,-0.1052 1.263812,0.0363 1.795652,0.293826 l -0.136347,0.153474 -0.29049,0.251787 -0.09075,-0.01802 -0.315401,-0.01335 -0.132344,0.04849 0.02358,0.09031 -0.01646,0.150806 -0.131455,0.07451 -0.06562,0.06628 0.05071,0.07829 0.07829,0.124336 -0.06428,0.150806 -0.147469,0.04449 -0.02113,0.07829 0.127007,0.15036 -0.04449,0.13657 -0.147247,0.04471 -0.03759,0.0803 0.03959,0.120333 -0.06139,0.08052 -0.114995,0.369895 -0.07407,0.04337 -0.03069,-0.0093 -0.0015,0.02825 -0.08274,0.04849 0.07807,0.02691 -0.0029,0.04894 c 0,0 -1.559883,0.645452 -1.844585,2.245175 -0.504163,2.832872 0.865996,4.253905 1.310982,4.382918 0.402501,0.116985 2.347168,-0.433752 3.327282,-3.139998 0.553308,-1.52775 -0.474881,-2.866859 -0.474881,-2.866859 l 0.02202,-0.0436 0.08119,0.01579 -0.04738,-0.08341 0.01268,-0.02536 -0.03114,-0.0071 -0.04248,-0.07473 0.08519,-0.377681 -0.0129,-0.100537 0.09453,-0.08452 0.0076,-0.0883 -0.105209,-0.112325 0.02958,-0.140573 0.185282,-0.06673 0.02113,-0.07829 -0.105431,-0.112104 0.0198,-0.162815 0.129898,-0.06851 0.08296,-0.04248 -0.02358,-0.09031 -0.07651,-0.130342 0.06094,-0.138573 0.06562,-0.06651 -0.09053,-0.108321 -0.27959,-0.145912 -0.08764,-0.03003 -0.125671,-0.363223 -0.0065,-0.03181 c 0.504423,0.299649 1.045255,0.657295 1.734928,0.944869 1.701888,0.709635 4.267962,0.940419 9.406205,-1.107018 l -0.15948,-0.399701 c -5.082904,2.025351 -7.488129,1.773698 -9.081121,1.109469 -0.796495,-0.332113 -1.399474,-0.778803 -2.046993,-1.12659 -0.647518,-0.347788 -1.352814,-0.58775 -2.281208,-0.453751 -2.615765,0.377544 -4.337037,-0.229214 -5.686562,-0.89638 -0.674762,-0.333583 -1.254305,-0.684685 -1.807884,-0.937973 -0.553581,-0.253289 -1.092908,-0.411503 -1.658637,-0.314734 -0.372007,0.06363 -0.807311,-0.05605 -1.275394,-0.309618 -0.468084,-0.253564 -0.961024,-0.635348 -1.439992,-1.053413 -0.957932,-0.836131 -1.835884,-1.805595 -2.503189,-2.209588 -0.386675,-0.234096 -1.188752,-0.505842 -2.229161,-0.8232 -1.04041,-0.317359 -2.299662,-0.664283 -3.517234,-0.986018 -2.435145,-0.643474 -4.703881,-1.186648 -4.703881,-1.186648 z m 4.317749,1.531187 c 0.09478,0.02488 0.180838,0.04641 0.276254,0.07162 0.0331,0.0087 0.0665,0.01791 0.09965,0.02669 l -0.143688,0.006 -0.09097,0.01802 z M 53.44149,33.25345 c 0.05776,0.02819 0.1157,0.05639 0.17505,0.0843 l -0.06339,0.01246 z" />
    <path
       id="path946-6-7"
       style="display:inline;fill:#830000;fill-opacity:1;stroke:#000000;stroke-width:0.0388117px;stroke-linecap:butt;stroke-linejoin:miter;stroke-opacity:1"
       d="m 67.904315,39.500625 c -6.1e-5,0.01434 -0.0031,0.03718 -0.06339,0.09364 -0.06032,0.05646 -0.171603,0.129269 -0.32341,0.207301 -0.30361,0.156065 -0.765144,0.33763 -1.328332,0.575641 -1.126375,0.476022 -2.664873,1.184636 -4.271704,2.456258 -1.14718,0.907859 -1.954917,1.287893 -2.541894,1.395505 -0.586975,0.107613 -0.962447,-0.03675 -1.327665,-0.240221 -0.365217,-0.203472 -0.706956,-0.488091 -1.174858,-0.577419 -0.467901,-0.08933 -1.019178,0.05523 -1.727588,0.609004 -0.703522,0.549955 -1.034089,1.027646 -1.167518,1.436655 -0.131212,0.402211 -0.05779,0.727054 -0.0129,0.908612 -0.160198,-0.0084 -0.546869,-0.07894 -1.349462,-0.24756 -2.991594,-0.628524 -5.277773,-0.159606 -6.812486,0.472212 -1.474948,0.607212 -2.228366,1.341276 -2.288105,1.400176 -1.264465,0.397487 -1.530244,1.331044 -1.78275,1.738042 -0.06395,0.103087 -0.122732,0.167625 -0.184614,0.203966 -0.06188,0.03634 -0.135137,0.05653 -0.273362,0.04026 -0.276451,-0.03254 -0.782792,-0.245383 -1.605031,-0.760032 -1.68002,-1.051546 -3.402502,-1.824886 -4.932981,-2.234721 -1.530477,-0.409834 -2.872178,-0.468736 -3.807945,-0.02314 -0.852922,0.406153 -2.357168,1.667346 -2.586849,1.767207 -0.114842,0.04993 -0.175918,0.07422 -0.203744,0.08452 -0.01391,0.0052 -0.0199,0.0068 -0.01713,0.006 0.0014,-3.95e-4 0.0049,-0.0015 0.01223,-0.0029 0.0073,-0.0014 0.04004,-0.0038 0.04004,-0.0038 v 0.430395 c 0,0 0.03357,-0.0024 0.04293,-0.0042 0.0094,-0.0019 0.01619,-0.0038 0.02313,-0.0058 0.01389,-0.004 0.02786,-0.0087 0.04827,-0.01623 0.04081,-0.01512 0.10674,-0.04167 0.225764,-0.09342 0.238048,-0.103499 1.745101,-1.365698 2.600417,-1.77299 0.772469,-0.367843 2.033913,-0.34539 3.511451,0.05027 1.425689,0.381775 3.049595,1.100135 4.64249,2.076798 l -0.107432,0.07095 -0.345874,0.167709 -0.08296,-0.04071 -0.301166,-0.09453 -0.140574,0.01268 -4.31e-4,0.0932 -0.05472,0.141464 -0.146356,0.03781 -0.08074,0.04716 0.02892,0.08875 0.04337,0.14035 -0.101204,0.129008 -0.153919,0.0049 -0.04048,0.07006 0.08363,0.178164 -0.07829,0.120555 -0.153697,0.0049 -0.05716,0.06784 0.0069,0.126561 -0.08007,0.06184 -0.206634,0.327412 -0.08297,0.02291 -0.02691,-0.01713 -0.0091,0.02714 -0.09253,0.02536 0.06873,0.04626 -0.01557,0.04626 c 0,0 -1.673798,0.219806 -2.362838,1.691333 -1.220087,2.605654 -0.264597,4.332864 0.131898,4.572872 0.358507,0.217173 2.379671,0.188368 4.026813,-2.171998 0.929867,-1.332483 0.283373,-2.89177 0.283373,-2.89177 l 0.03225,-0.03648 0.07451,0.03604 -0.02425,-0.09275 0.01891,-0.02113 -0.02825,-0.0149 -0.0218,-0.08319 0.180165,-0.342761 0.01357,-0.100314 0.112993,-0.05738 0.03025,-0.08319 -0.07273,-0.135903 0.06517,-0.128118 0.19618,-0.01646 0.0407,-0.07006 -0.07273,-0.13568 0.06095,-0.15214 0.143465,-0.03248 0.0912,-0.01957 4.3e-4,-0.0932 -0.04048,-0.145912 0.09498,-0.118109 0.08052,-0.04715 -0.05939,-0.127896 -0.232214,-0.213529 -0.07696,-0.0516 -0.02758,-0.383242 0.0067,-0.11188 c 0.634305,0.374564 1.067779,0.559969 1.418192,0.601219 0.207082,0.02437 0.393474,-0.0095 0.541609,-0.09653 0.148135,-0.08699 0.249704,-0.21482 0.332528,-0.34832 0.306446,-0.493943 0.420586,-1.124726 1.34546,-1.486701 l -0.01023,0.05027 -0.125894,0.363223 -0.08764,0.02981 -0.27959,0.146133 -0.09053,0.108322 0.06562,0.06628 0.06117,0.138794 -0.07674,0.130344 -0.02358,0.0903 0.08319,0.04226 0.129898,0.06873 0.01957,0.162595 -0.105208,0.112326 0.02069,0.07829 0.185282,0.06673 0.02981,0.140575 -0.105208,0.112325 0.0076,0.0883 0.09431,0.08452 -0.0129,0.100537 0.08541,0.377458 -0.04226,0.07496 -0.03136,0.0069 0.01268,0.02536 -0.04738,0.08341 0.08119,-0.01579 0.02202,0.04382 c 0,0 -1.028183,1.338884 -0.474881,2.866636 0.980119,2.706243 2.878376,3.251202 3.327503,3.139998 l -6.46e-4,4.3e-4 c 0.407068,-0.09994 1.815963,-1.549406 1.31165,-4.383141 -0.284698,-1.599724 -1.844584,-2.245176 -1.844584,-2.245176 l -0.0031,-0.04893 0.07829,-0.02691 -0.08274,-0.04849 -0.0018,-0.02847 -0.03047,0.0096 -0.07429,-0.04337 -0.114995,-0.369894 -0.06139,-0.08052 0.03959,-0.120332 -0.03759,-0.0803 -0.147247,-0.04471 -0.04471,-0.13657 0.127005,-0.15036 -0.02091,-0.07829 -0.147246,-0.04449 -0.06428,-0.150806 0.07829,-0.124335 0.05071,-0.0783 -0.06562,-0.06628 -0.131676,-0.07474 -0.01646,-0.150582 0.0238,-0.09031 -0.132566,-0.04849 -0.315178,0.01335 -0.09075,0.01802 -0.290712,-0.251787 -0.148136,-0.167042 -0.02669,-0.0047 c 0.302279,-0.2534 0.960733,-0.74201 1.995391,-1.167963 1.422048,-0.585434 3.527087,-1.029498 6.306465,-0.497346 l -0.06606,0.07451 -0.290711,0.251564 -0.09075,-0.01779 -0.315178,-0.01334 -0.132567,0.04849 0.0238,0.09031 -0.01646,0.150582 -0.131455,0.07474 -0.06561,0.06628 0.05071,0.07829 0.07829,0.124337 -0.06428,0.150805 -0.147469,0.04448 -0.02113,0.07829 0.127005,0.150361 -0.04448,0.136569 -0.147247,0.04449 -0.03759,0.08052 0.03959,0.120332 -0.06161,0.08052 -0.114772,0.369674 -0.07407,0.04359 -0.03069,-0.0096 -0.0015,0.02847 -0.08274,0.04849 0.07807,0.02691 -0.0029,0.04871 c 0,0 -1.559881,0.645679 -1.844585,2.245398 -0.504317,2.83374 0.866871,4.254662 1.311429,4.382918 0.403285,0.11656 2.347005,-0.43476 3.326836,-3.14022 0.553312,-1.527749 -0.474659,-2.866636 -0.474659,-2.866636 l 0.0218,-0.0436 0.08119,0.01557 -0.04738,-0.08319 0.01268,-0.02558 -0.03114,-0.0069 -0.04248,-0.07474 0.08541,-0.37768 -0.0129,-0.100538 0.09431,-0.08452 0.0078,-0.0883 -0.10543,-0.112325 0.02958,-0.140575 0.185283,-0.06673 0.02113,-0.07829 -0.10543,-0.112324 0.0198,-0.162595 0.129897,-0.06851 0.08319,-0.04248 -0.0238,-0.09031 -0.07674,-0.130342 0.06117,-0.138794 0.06562,-0.06628 -0.09053,-0.108322 -0.27959,-0.145912 -0.08764,-0.03003 -0.125894,-0.363224 -0.02892,-0.140351 c 0.595722,0.125879 0.931567,0.194979 1.152837,0.194401 0.06611,-1.72e-4 0.128387,-0.0044 0.198627,-0.03581 0.07024,-0.03143 0.141756,-0.109907 0.164374,-0.184614 0.04523,-0.149416 -6.03e-4,-0.226686 -0.02269,-0.315624 -0.04418,-0.177875 -0.09673,-0.380615 0.0022,-0.683962 0.08775,-0.269 0.307431,-0.623607 0.815861,-1.060085 l 0.0045,0.07518 -0.02758,0.383242 -0.07674,0.0516 -0.232435,0.21353 -0.05939,0.127896 0.08052,0.04715 0.09497,0.118108 -0.04026,0.145912 4.3e-4,0.0932 0.09119,0.01958 0.143242,0.03247 0.06117,0.152141 -0.07273,0.13568 0.04048,0.07029 0.196181,0.01646 0.06517,0.128118 -0.07273,0.135679 0.03025,0.08341 0.113215,0.05717 0.01334,0.100314 0.180389,0.342759 -0.0218,0.08319 -0.02825,0.0149 0.0189,0.02113 -0.02425,0.09275 0.07429,-0.03604 0.03247,0.03648 c 0,0 -0.64649,1.559283 0.283372,2.891769 1.647147,2.360362 3.621769,2.395654 4.026814,2.171998 0.36769,-0.203099 1.351954,-1.967296 0.131899,-4.572872 -0.689032,-1.47153 -2.36284,-1.691332 -2.36284,-1.691332 l -0.01557,-0.04626 0.06851,-0.04626 -0.09231,-0.02536 -0.0091,-0.02714 -0.02691,0.01713 -0.08296,-0.02291 -0.206857,-0.327189 -0.08007,-0.06184 0.0069,-0.126561 -0.05694,-0.06806 -0.153919,-0.0049 -0.07852,-0.120332 0.08385,-0.178164 -0.04048,-0.07029 -0.153697,-0.0049 -0.101204,-0.128785 0.04337,-0.140573 0.02869,-0.08853 -0.08052,-0.04715 -0.146357,-0.03803 -0.05494,-0.141242 -4.31e-4,-0.09342 -0.140351,-0.01268 -0.301165,0.09453 -0.08297,0.04093 -0.345872,-0.167932 -0.137016,-0.09053 c 0.481265,-0.315788 0.80567,-0.364703 1.082551,-0.311844 0.331026,0.0632 0.640226,0.304825 1.046073,0.530933 0.405848,0.226108 0.92175,0.414621 1.614595,0.287598 0.692845,-0.127023 1.553607,-0.549099 2.731623,-1.481362 1.563101,-1.237012 3.057338,-1.926442 4.172058,-2.397537 0.55736,-0.235549 1.018453,-0.414831 1.357693,-0.589209 0.16962,-0.08719 0.30961,-0.171916 0.420609,-0.27581 0.110998,-0.103893 0.199274,-0.244409 0.199962,-0.40615 z"
       sodipodi:nodetypes="ccsssssssscsscssssssscsscccscsssccccccccccccccccccccccccccccscsccccccccccccccccccccccccccccscsccccccccccccccccccccccccccccsccscccccccccccccccccccccccccccccsccccccccccccccccccccccccccccscsccccccccccccccccccccccccccccscsscccccccccccccccccccccccccccccscsccccccccccccccccccccccccccccssssssscc" />
    <text
       transform="scale(0.98813546,1.012007)"
       id="text865"
       y="36.13604"
       x="32.008072"
       style="font-style:normal;font-variant:normal;font-weight:normal;font-stretch:normal;font-size:4.34027px;line-height:1.25;font-family:'DH Snowflakes';-inkscape-font-specification:'DH Snowflakes';fill:#000000;fill-opacity:1;stroke:none;stroke-width:0.108507"
       xml:space="preserve"><tspan
         style="font-style:normal;font-variant:normal;font-weight:normal;font-stretch:normal;font-family:'DH Snowflakes';-inkscape-font-specification:'DH Snowflakes';stroke-width:0.108507"
         y="36.13604"
         x="32.008072"
         id="tspan863"
         sodipodi:role="line">n</tspan></text>
    <text
       transform="scale(0.9957104,1.0043081)"
       id="text869"
       y="42.962837"
       x="36.353783"
       style="font-style:normal;font-variant:normal;font-weight:normal;font-stretch:normal;font-size:2.82724px;line-height:1.25;font-family:'DH Snowflakes';-inkscape-font-specification:'DH Snowflakes';fill:#000000;fill-opacity:1;stroke:none;stroke-width:0.0706812"
       xml:space="preserve"><tspan
         style="font-style:normal;font-variant:normal;font-weight:normal;font-stretch:normal;font-family:'DH Snowflakes';-inkscape-font-specification:'DH Snowflakes';stroke-width:0.0706812"
         y="42.962837"
         x="36.353783"
         id="tspan867"
         sodipodi:role="line">b</tspan></text>
    <text
       transform="scale(0.99929935,1.0007011)"
       id="text873"
       y="38.318794"
       x="40.608162"
       style="font-size:2.80308px;line-height:1.25;font-family:'DH Snowflakes';-inkscape-font-specification:'DH Snowflakes';stroke-width:0.0700775"
       xml:space="preserve"><tspan
         style="stroke-width:0.0700775"
         y="38.318794"
         x="40.608162"
         id="tspan871"
         sodipodi:role="line">c</tspan></text>
    <text
       transform="scale(0.97968974,1.0207313)"
       id="text877"
       y="31.894444"
       x="58.317436"
       style="font-size:3.97172px;line-height:1.25;font-family:'DH Snowflakes';-inkscape-font-specification:'DH Snowflakes';stroke-width:0.0992929"
       xml:space="preserve"><tspan
         style="stroke-width:0.0992929"
         y="31.894444"
         x="58.317436"
         id="tspan875"
         sodipodi:role="line">d</tspan></text>
    <text
       transform="scale(0.98885684,1.0112687)"
       id="text885"
       y="47.50103"
       x="64.151955"
       style="font-size:2.57124px;line-height:1.25;font-family:'DH Snowflakes';-inkscape-font-specification:'DH Snowflakes';stroke-width:0.0642812"
       xml:space="preserve"><tspan
         style="stroke-width:0.0642812"
         y="47.50103"
         x="64.151955"
         id="tspan883"
         sodipodi:role="line">f</tspan></text>
    <text
       transform="scale(0.98885684,1.0112687)"
       id="text889"
       y="49.428158"
       x="47.157284"
       style="font-size:2.57124px;line-height:1.25;font-family:'DH Snowflakes';-inkscape-font-specification:'DH Snowflakes';stroke-width:0.0642812"
       xml:space="preserve"><tspan
         style="stroke-width:0.0642812"
         y="49.428158"
         x="47.157284"
         id="tspan887"
         sodipodi:role="line">f</tspan></text>
    <text
       transform="scale(1.071221,0.93351419)"
       id="text893"
       y="60.93718"
       x="52.99371"
       style="font-size:3.55179px;line-height:1.25;font-family:'DH Snowflakes';-inkscape-font-specification:'DH Snowflakes';stroke-width:0.0887952"
       xml:space="preserve"><tspan
         style="stroke-width:0.0887952"
         y="60.93718"
         x="52.99371"
         id="tspan891"
         sodipodi:role="line">h</tspan></text>
    <text
       id="text897"
       y="59.851902"
       x="40.306129"
       style="font-size:3.2175px;line-height:1.25;font-family:'DH Snowflakes';-inkscape-font-specification:'DH Snowflakes';stroke-width:0.0804377"
       xml:space="preserve"><tspan
         style="stroke-width:0.0804377"
         y="59.851902"
         x="40.306129"
         id="tspan895"
         sodipodi:role="line">j</tspan></text>
    <text
       transform="scale(1.0365197,0.964767)"
       id="text901"
       y="45.586033"
       x="43.733799"
       style="font-size:4.28786px;line-height:1.25;font-family:'DH Snowflakes';-inkscape-font-specification:'DH Snowflakes';stroke-width:0.107197"
       xml:space="preserve"><tspan
         style="stroke-width:0.107197"
         y="45.586033"
         x="43.733799"
         id="tspan899"
         sodipodi:role="line">k</tspan></text>
    <text
       transform="scale(0.98857092,1.0115612)"
       id="text905"
       y="51.8186"
       x="32.038288"
       style="font-size:4.598px;line-height:1.25;font-family:'DH Snowflakes';-inkscape-font-specification:'DH Snowflakes';stroke-width:0.11495"
       xml:space="preserve"><tspan
         style="stroke-width:0.11495"
         y="51.8186"
         x="32.038288"
         id="tspan903"
         sodipodi:role="line">l</tspan></text>
    <path
       id="path912"
       d="M 47.96875 24.59375 C 37.696269 24.59375 29.357422 32.932597 29.357422 43.205078 C 29.357422 53.47756 37.696268 61.814453 47.96875 61.814453 C 58.241232 61.814453 66.580078 53.47756 66.580078 43.205078 C 66.580078 32.932597 58.241231 24.59375 47.96875 24.59375 z M 47.96875 25.59375 C 57.700791 25.59375 65.580078 33.473037 65.580078 43.205078 C 65.580078 52.93712 57.700792 60.814453 47.96875 60.814453 C 38.236708 60.814453 30.357422 52.93712 30.357422 43.205078 C 30.357422 33.473037 38.236709 25.59375 47.96875 25.59375 z "
       style="display:inline;color:#000000;font-style:normal;font-variant:normal;font-weight:normal;font-stretch:normal;font-size:medium;line-height:normal;font-family:sans-serif;font-variant-ligatures:normal;font-variant-position:normal;font-variant-caps:normal;font-variant-numeric:normal;font-variant-alternates:normal;font-variant-east-asian:normal;font-feature-settings:normal;font-variation-settings:normal;text-indent:0;text-align:start;text-decoration:none;text-decoration-line:none;text-decoration-style:solid;text-decoration-color:#000000;letter-spacing:normal;word-spacing:normal;text-transform:none;writing-mode:lr-tb;direction:ltr;text-orientation:mixed;dominant-baseline:auto;baseline-shift:baseline;text-anchor:start;white-space:normal;shape-padding:0;shape-margin:0;inline-size:0;clip-rule:nonzero;overflow:visible;visibility:visible;isolation:auto;mix-blend-mode:normal;color-interpolation:sRGB;color-interpolation-filters:linearRGB;solid-color:#000000;solid-opacity:1;vector-effect:none;fill:#000000;fill-opacity:1;fill-rule:nonzero;stroke:none;stroke-width:1;stroke-linecap:butt;stroke-linejoin:miter;stroke-miterlimit:4;stroke-dasharray:none;stroke-dashoffset:0;stroke-opacity:1;color-rendering:auto;image-rendering:auto;shape-rendering:auto;text-rendering:auto;enable-background:accumulate;stop-color:#000000;stop-opacity:1;opacity:1" />
  </g>
  <g
     inkscape:label="Dwgs.User"
     inkscape:groupmode="layer"
     id="g976" />
  <g
     inkscape:label="Drill"
     inkscape:groupmode="layer"
     id="g978">
    <circle
       r="3.7797618"
       cy="16.063988"
       cx="47.968849"
       id="path1574"
       style="fill:none;stroke:#000000;stroke-width:0.499999;stroke-miterlimit:10;stroke-dasharray:none;stroke-opacity:1" />
  </g>
</svg>
