%TF.GenerationSoftware,KiCad,Pcbnew,(5.1.8)-1*%
%TF.CreationDate,2020-11-17T19:57:04-05:00*%
%TF.ProjectId,drawing,64726177-696e-4672-9e6b-696361645f70,rev?*%
%TF.SameCoordinates,Original*%
%TF.FileFunction,Legend,Bot*%
%TF.FilePolarity,Positive*%
%FSLAX46Y46*%
G04 Gerber Fmt 4.6, Leading zero omitted, Abs format (unit mm)*
G04 Created by KiCad (PCBNEW (5.1.8)-1) date 2020-11-17 19:57:04*
%MOMM*%
%LPD*%
G01*
G04 APERTURE LIST*
%ADD10C,0.300000*%
%ADD11C,0.120000*%
%ADD12C,0.010000*%
%ADD13C,0.150000*%
G04 APERTURE END LIST*
D10*
X8792857Y16721428D02*
X8792857Y17721428D01*
X8792857Y17578571D02*
X8721428Y17650000D01*
X8578571Y17721428D01*
X8364285Y17721428D01*
X8221428Y17650000D01*
X8149999Y17507142D01*
X8149999Y16721428D01*
X8149999Y17507142D02*
X8078571Y17650000D01*
X7935714Y17721428D01*
X7721428Y17721428D01*
X7578571Y17650000D01*
X7507142Y17507142D01*
X7507142Y16721428D01*
X6149999Y16721428D02*
X6149999Y17507142D01*
X6221428Y17650000D01*
X6364285Y17721428D01*
X6649999Y17721428D01*
X6792857Y17650000D01*
X6149999Y16792857D02*
X6292857Y16721428D01*
X6649999Y16721428D01*
X6792857Y16792857D01*
X6864285Y16935714D01*
X6864285Y17078571D01*
X6792857Y17221428D01*
X6649999Y17292857D01*
X6292857Y17292857D01*
X6149999Y17364285D01*
X4792857Y16721428D02*
X4792857Y18221428D01*
X4792857Y16792857D02*
X4935714Y16721428D01*
X5221428Y16721428D01*
X5364285Y16792857D01*
X5435714Y16864285D01*
X5507142Y17007142D01*
X5507142Y17435714D01*
X5435714Y17578571D01*
X5364285Y17650000D01*
X5221428Y17721428D01*
X4935714Y17721428D01*
X4792857Y17650000D01*
X3507142Y16792857D02*
X3649999Y16721428D01*
X3935714Y16721428D01*
X4078571Y16792857D01*
X4149999Y16935714D01*
X4149999Y17507142D01*
X4078571Y17650000D01*
X3935714Y17721428D01*
X3649999Y17721428D01*
X3507142Y17650000D01*
X3435714Y17507142D01*
X3435714Y17364285D01*
X4149999Y17221428D01*
X1792857Y17721428D02*
X1507142Y16721428D01*
X1221428Y17435714D01*
X935714Y16721428D01*
X649999Y17721428D01*
X78571Y16721428D02*
X78571Y17721428D01*
X78571Y18221428D02*
X149999Y18150000D01*
X78571Y18078571D01*
X7142Y18150000D01*
X78571Y18221428D01*
X78571Y18078571D01*
X-421428Y17721428D02*
X-992857Y17721428D01*
X-635714Y18221428D02*
X-635714Y16935714D01*
X-707142Y16792857D01*
X-850000Y16721428D01*
X-992857Y16721428D01*
X-1492857Y16721428D02*
X-1492857Y18221428D01*
X-2135714Y16721428D02*
X-2135714Y17507142D01*
X-2064285Y17650000D01*
X-1921428Y17721428D01*
X-1707142Y17721428D01*
X-1564285Y17650000D01*
X-1492857Y17578571D01*
X-4207142Y16721428D02*
X-4064285Y16792857D01*
X-3992857Y16935714D01*
X-3992857Y18221428D01*
X-4992857Y16721428D02*
X-4850000Y16792857D01*
X-4778571Y16864285D01*
X-4707142Y17007142D01*
X-4707142Y17435714D01*
X-4778571Y17578571D01*
X-4850000Y17650000D01*
X-4992857Y17721428D01*
X-5207142Y17721428D01*
X-5350000Y17650000D01*
X-5421428Y17578571D01*
X-5492857Y17435714D01*
X-5492857Y17007142D01*
X-5421428Y16864285D01*
X-5350000Y16792857D01*
X-5207142Y16721428D01*
X-4992857Y16721428D01*
X-5992857Y17721428D02*
X-6350000Y16721428D01*
X-6707142Y17721428D01*
X-7850000Y16792857D02*
X-7707142Y16721428D01*
X-7421428Y16721428D01*
X-7278571Y16792857D01*
X-7207142Y16935714D01*
X-7207142Y17507142D01*
X-7278571Y17650000D01*
X-7421428Y17721428D01*
X-7707142Y17721428D01*
X-7850000Y17650000D01*
X-7921428Y17507142D01*
X-7921428Y17364285D01*
X-7207142Y17221428D01*
X-8635714Y16792857D02*
X-8635714Y16721428D01*
X-8564285Y16578571D01*
X-8492857Y16507142D01*
X-10421428Y16721428D02*
X-10421428Y17721428D01*
X-10421428Y17435714D02*
X-10492857Y17578571D01*
X-10564285Y17650000D01*
X-10707142Y17721428D01*
X-10850000Y17721428D01*
X-11350000Y16721428D02*
X-11350000Y18221428D01*
X-11350000Y17650000D02*
X-11492857Y17721428D01*
X-11778571Y17721428D01*
X-11921428Y17650000D01*
X-11992857Y17578571D01*
X-12064285Y17435714D01*
X-12064285Y17007142D01*
X-11992857Y16864285D01*
X-11921428Y16792857D01*
X-11778571Y16721428D01*
X-11492857Y16721428D01*
X-11350000Y16792857D01*
D11*
%TO.C,SW1*%
X-3150000Y-9630000D02*
X-3350000Y-9630000D01*
X-350000Y-13770000D02*
X-550000Y-13980000D01*
X-1650000Y-13770000D02*
X-1450000Y-13980000D01*
X-350000Y-12480000D02*
X-350000Y-13770000D01*
X-550000Y-13980000D02*
X-1450000Y-13980000D01*
X-1650000Y-13770000D02*
X-1650000Y-12480000D01*
X1100000Y-12480000D02*
X-4600000Y-12480000D01*
X-150000Y-9630000D02*
X-1850000Y-9630000D01*
X1700000Y-10680000D02*
X1700000Y-11470000D01*
X-5200000Y-11470000D02*
X-5200000Y-10680000D01*
%TO.C,R1*%
X-1727064Y-6310000D02*
X-272936Y-6310000D01*
X-1727064Y-4490000D02*
X-272936Y-4490000D01*
%TO.C,BT1*%
X8470000Y12085000D02*
X6862910Y12085000D01*
X-12470000Y12085000D02*
X-10862910Y12085000D01*
X8470000Y2315000D02*
X6862910Y2315000D01*
X8470000Y10200000D02*
X8470000Y12085000D01*
X-12470000Y10200000D02*
X-12470000Y12085000D01*
X8470000Y4200000D02*
X8470000Y2315000D01*
X-12470000Y4200000D02*
X-12470000Y2315000D01*
X-12470000Y2315000D02*
X-10862910Y2315000D01*
X-10862910Y2315000D02*
G75*
G03*
X6862910Y2315000I8862910J4885000D01*
G01*
X6865021Y12081168D02*
G75*
G03*
X-10862910Y12085000I-8865021J-4881168D01*
G01*
D12*
%TO.C,G\u002A\u002A\u002A*%
G36*
X3247201Y21599996D02*
G01*
X3320657Y21550416D01*
X3379973Y21478659D01*
X3420994Y21393623D01*
X3439566Y21304207D01*
X3431536Y21219310D01*
X3392748Y21147829D01*
X3386546Y21141288D01*
X3321721Y21098321D01*
X3250742Y21095421D01*
X3169776Y21132514D01*
X3163118Y21136958D01*
X3076014Y21209984D01*
X3025370Y21289832D01*
X3005443Y21386638D01*
X3004584Y21416746D01*
X3015225Y21514935D01*
X3048728Y21579081D01*
X3107460Y21612187D01*
X3163760Y21618500D01*
X3247201Y21599996D01*
G37*
X3247201Y21599996D02*
X3320657Y21550416D01*
X3379973Y21478659D01*
X3420994Y21393623D01*
X3439566Y21304207D01*
X3431536Y21219310D01*
X3392748Y21147829D01*
X3386546Y21141288D01*
X3321721Y21098321D01*
X3250742Y21095421D01*
X3169776Y21132514D01*
X3163118Y21136958D01*
X3076014Y21209984D01*
X3025370Y21289832D01*
X3005443Y21386638D01*
X3004584Y21416746D01*
X3015225Y21514935D01*
X3048728Y21579081D01*
X3107460Y21612187D01*
X3163760Y21618500D01*
X3247201Y21599996D01*
G36*
X-6393393Y21954528D02*
G01*
X-6219640Y21901093D01*
X-6156608Y21873747D01*
X-6010012Y21783216D01*
X-5884497Y21662158D01*
X-5785512Y21518324D01*
X-5718504Y21359465D01*
X-5690027Y21209901D01*
X-5688689Y21068146D01*
X-5711179Y20960338D01*
X-5759260Y20884293D01*
X-5834697Y20837828D01*
X-5939255Y20818759D01*
X-6005989Y20818959D01*
X-6080012Y20824583D01*
X-6136387Y20832476D01*
X-6162398Y20840676D01*
X-6164662Y20867113D01*
X-6156131Y20921692D01*
X-6140280Y20986459D01*
X-6117222Y21123253D01*
X-6120950Y21262249D01*
X-6148376Y21397114D01*
X-6196415Y21521515D01*
X-6261977Y21629120D01*
X-6341975Y21713595D01*
X-6433322Y21768608D01*
X-6531000Y21787833D01*
X-6630171Y21769304D01*
X-6708805Y21714893D01*
X-6765723Y21626368D01*
X-6799747Y21505493D01*
X-6809820Y21369859D01*
X-6804063Y21258356D01*
X-6784982Y21154457D01*
X-6749742Y21054017D01*
X-6695508Y20952894D01*
X-6619447Y20846944D01*
X-6518722Y20732024D01*
X-6390499Y20603991D01*
X-6231943Y20458700D01*
X-6118250Y20359078D01*
X-5882078Y20146055D01*
X-5682276Y19946149D01*
X-5516350Y19755686D01*
X-5381809Y19570994D01*
X-5276160Y19388397D01*
X-5196910Y19204224D01*
X-5141568Y19014800D01*
X-5116560Y18882708D01*
X-5107403Y18812172D01*
X-5111374Y18774964D01*
X-5135281Y18766973D01*
X-5185932Y18784093D01*
X-5239833Y18808306D01*
X-5324484Y18833120D01*
X-5443425Y18847597D01*
X-5589877Y18851673D01*
X-5757062Y18845281D01*
X-5938202Y18828357D01*
X-6031976Y18815911D01*
X-6146445Y18801383D01*
X-6264589Y18789993D01*
X-6368767Y18783292D01*
X-6415413Y18782166D01*
X-6523435Y18788697D01*
X-6601129Y18812341D01*
X-6659036Y18859178D01*
X-6707697Y18935288D01*
X-6718357Y18956874D01*
X-6737172Y19009110D01*
X-6754507Y19079146D01*
X-6769008Y19157079D01*
X-6779319Y19233006D01*
X-6784086Y19297024D01*
X-6781956Y19339232D01*
X-6772132Y19350025D01*
X-6653872Y19297930D01*
X-6541873Y19261966D01*
X-6425223Y19240379D01*
X-6293007Y19231416D01*
X-6134314Y19233321D01*
X-6065805Y19236477D01*
X-5964768Y19242401D01*
X-5880209Y19248479D01*
X-5820474Y19254028D01*
X-5793911Y19258370D01*
X-5793425Y19258685D01*
X-5797154Y19282506D01*
X-5821022Y19333357D01*
X-5860528Y19403843D01*
X-5911170Y19486573D01*
X-5968447Y19574152D01*
X-6027858Y19659188D01*
X-6076780Y19724083D01*
X-6133081Y19792113D01*
X-6211951Y19882757D01*
X-6306448Y19988276D01*
X-6409628Y20100934D01*
X-6514549Y20212993D01*
X-6531063Y20230380D01*
X-6681636Y20391346D01*
X-6804110Y20529281D01*
X-6902004Y20649300D01*
X-6978841Y20756517D01*
X-7038141Y20856048D01*
X-7083426Y20953008D01*
X-7118216Y21052512D01*
X-7132628Y21104241D01*
X-7155766Y21230714D01*
X-7164598Y21366218D01*
X-7159087Y21495438D01*
X-7139198Y21603059D01*
X-7133835Y21619677D01*
X-7068036Y21747888D01*
X-6973422Y21848639D01*
X-6854321Y21920804D01*
X-6715064Y21963258D01*
X-6559978Y21974874D01*
X-6393393Y21954528D01*
G37*
X-6393393Y21954528D02*
X-6219640Y21901093D01*
X-6156608Y21873747D01*
X-6010012Y21783216D01*
X-5884497Y21662158D01*
X-5785512Y21518324D01*
X-5718504Y21359465D01*
X-5690027Y21209901D01*
X-5688689Y21068146D01*
X-5711179Y20960338D01*
X-5759260Y20884293D01*
X-5834697Y20837828D01*
X-5939255Y20818759D01*
X-6005989Y20818959D01*
X-6080012Y20824583D01*
X-6136387Y20832476D01*
X-6162398Y20840676D01*
X-6164662Y20867113D01*
X-6156131Y20921692D01*
X-6140280Y20986459D01*
X-6117222Y21123253D01*
X-6120950Y21262249D01*
X-6148376Y21397114D01*
X-6196415Y21521515D01*
X-6261977Y21629120D01*
X-6341975Y21713595D01*
X-6433322Y21768608D01*
X-6531000Y21787833D01*
X-6630171Y21769304D01*
X-6708805Y21714893D01*
X-6765723Y21626368D01*
X-6799747Y21505493D01*
X-6809820Y21369859D01*
X-6804063Y21258356D01*
X-6784982Y21154457D01*
X-6749742Y21054017D01*
X-6695508Y20952894D01*
X-6619447Y20846944D01*
X-6518722Y20732024D01*
X-6390499Y20603991D01*
X-6231943Y20458700D01*
X-6118250Y20359078D01*
X-5882078Y20146055D01*
X-5682276Y19946149D01*
X-5516350Y19755686D01*
X-5381809Y19570994D01*
X-5276160Y19388397D01*
X-5196910Y19204224D01*
X-5141568Y19014800D01*
X-5116560Y18882708D01*
X-5107403Y18812172D01*
X-5111374Y18774964D01*
X-5135281Y18766973D01*
X-5185932Y18784093D01*
X-5239833Y18808306D01*
X-5324484Y18833120D01*
X-5443425Y18847597D01*
X-5589877Y18851673D01*
X-5757062Y18845281D01*
X-5938202Y18828357D01*
X-6031976Y18815911D01*
X-6146445Y18801383D01*
X-6264589Y18789993D01*
X-6368767Y18783292D01*
X-6415413Y18782166D01*
X-6523435Y18788697D01*
X-6601129Y18812341D01*
X-6659036Y18859178D01*
X-6707697Y18935288D01*
X-6718357Y18956874D01*
X-6737172Y19009110D01*
X-6754507Y19079146D01*
X-6769008Y19157079D01*
X-6779319Y19233006D01*
X-6784086Y19297024D01*
X-6781956Y19339232D01*
X-6772132Y19350025D01*
X-6653872Y19297930D01*
X-6541873Y19261966D01*
X-6425223Y19240379D01*
X-6293007Y19231416D01*
X-6134314Y19233321D01*
X-6065805Y19236477D01*
X-5964768Y19242401D01*
X-5880209Y19248479D01*
X-5820474Y19254028D01*
X-5793911Y19258370D01*
X-5793425Y19258685D01*
X-5797154Y19282506D01*
X-5821022Y19333357D01*
X-5860528Y19403843D01*
X-5911170Y19486573D01*
X-5968447Y19574152D01*
X-6027858Y19659188D01*
X-6076780Y19724083D01*
X-6133081Y19792113D01*
X-6211951Y19882757D01*
X-6306448Y19988276D01*
X-6409628Y20100934D01*
X-6514549Y20212993D01*
X-6531063Y20230380D01*
X-6681636Y20391346D01*
X-6804110Y20529281D01*
X-6902004Y20649300D01*
X-6978841Y20756517D01*
X-7038141Y20856048D01*
X-7083426Y20953008D01*
X-7118216Y21052512D01*
X-7132628Y21104241D01*
X-7155766Y21230714D01*
X-7164598Y21366218D01*
X-7159087Y21495438D01*
X-7139198Y21603059D01*
X-7133835Y21619677D01*
X-7068036Y21747888D01*
X-6973422Y21848639D01*
X-6854321Y21920804D01*
X-6715064Y21963258D01*
X-6559978Y21974874D01*
X-6393393Y21954528D01*
G36*
X-10161767Y21959414D02*
G01*
X-9996110Y21914530D01*
X-9840479Y21840936D01*
X-9703154Y21740324D01*
X-9668659Y21707078D01*
X-9582370Y21600206D01*
X-9514645Y21479727D01*
X-9466340Y21352349D01*
X-9438314Y21224779D01*
X-9431423Y21103724D01*
X-9446526Y20995893D01*
X-9484479Y20907993D01*
X-9546139Y20846732D01*
X-9557833Y20840073D01*
X-9600637Y20828609D01*
X-9667656Y20821586D01*
X-9745366Y20819082D01*
X-9820248Y20821172D01*
X-9878778Y20827935D01*
X-9906318Y20838096D01*
X-9907619Y20863224D01*
X-9899262Y20917200D01*
X-9883825Y20985177D01*
X-9862361Y21127166D01*
X-9867567Y21269517D01*
X-9896427Y21406093D01*
X-9945924Y21530759D01*
X-10013039Y21637377D01*
X-10094757Y21719811D01*
X-10188059Y21771925D01*
X-10278475Y21787833D01*
X-10376028Y21769111D01*
X-10453828Y21714361D01*
X-10510463Y21625708D01*
X-10544522Y21505277D01*
X-10554707Y21371787D01*
X-10549694Y21262328D01*
X-10532459Y21161239D01*
X-10500114Y21064229D01*
X-10449771Y20967010D01*
X-10378542Y20865291D01*
X-10283540Y20754783D01*
X-10161877Y20631197D01*
X-10010665Y20490243D01*
X-9887253Y20380318D01*
X-9699208Y20212101D01*
X-9541281Y20063688D01*
X-9409241Y19930139D01*
X-9298856Y19806514D01*
X-9205895Y19687875D01*
X-9126126Y19569282D01*
X-9055319Y19445795D01*
X-9009999Y19356237D01*
X-8974990Y19280050D01*
X-8946066Y19206413D01*
X-8920389Y19125777D01*
X-8895119Y19028594D01*
X-8867417Y18905316D01*
X-8847165Y18808625D01*
X-8845881Y18776195D01*
X-8863563Y18764777D01*
X-8905992Y18774359D01*
X-8978948Y18804928D01*
X-8986333Y18808306D01*
X-9070984Y18833120D01*
X-9189925Y18847597D01*
X-9336377Y18851673D01*
X-9503562Y18845281D01*
X-9684702Y18828357D01*
X-9778476Y18815911D01*
X-9892945Y18801383D01*
X-10011089Y18789993D01*
X-10115267Y18783292D01*
X-10161913Y18782166D01*
X-10269424Y18788540D01*
X-10346536Y18811759D01*
X-10403808Y18857968D01*
X-10451801Y18933315D01*
X-10463797Y18957870D01*
X-10482898Y19011104D01*
X-10500495Y19081706D01*
X-10515207Y19159796D01*
X-10525650Y19235491D01*
X-10530445Y19298913D01*
X-10528208Y19340179D01*
X-10518632Y19350025D01*
X-10400372Y19297930D01*
X-10288373Y19261966D01*
X-10171723Y19240379D01*
X-10039507Y19231416D01*
X-9880814Y19233321D01*
X-9812305Y19236477D01*
X-9711331Y19242359D01*
X-9626893Y19248326D01*
X-9567318Y19253712D01*
X-9540931Y19257854D01*
X-9540458Y19258153D01*
X-9545915Y19279104D01*
X-9567319Y19327731D01*
X-9600401Y19394517D01*
X-9609547Y19412085D01*
X-9663545Y19505562D01*
X-9731989Y19606530D01*
X-9818065Y19718895D01*
X-9924958Y19846562D01*
X-10055855Y19993437D01*
X-10213940Y20163427D01*
X-10273970Y20226680D01*
X-10443915Y20410063D01*
X-10582877Y20572397D01*
X-10693465Y20718390D01*
X-10778292Y20852751D01*
X-10839967Y20980188D01*
X-10881104Y21105412D01*
X-10904312Y21233130D01*
X-10912203Y21368050D01*
X-10912249Y21377714D01*
X-10897110Y21547924D01*
X-10850890Y21689630D01*
X-10773308Y21803368D01*
X-10664081Y21889678D01*
X-10636100Y21904875D01*
X-10490041Y21956279D01*
X-10329170Y21973894D01*
X-10161767Y21959414D01*
G37*
X-10161767Y21959414D02*
X-9996110Y21914530D01*
X-9840479Y21840936D01*
X-9703154Y21740324D01*
X-9668659Y21707078D01*
X-9582370Y21600206D01*
X-9514645Y21479727D01*
X-9466340Y21352349D01*
X-9438314Y21224779D01*
X-9431423Y21103724D01*
X-9446526Y20995893D01*
X-9484479Y20907993D01*
X-9546139Y20846732D01*
X-9557833Y20840073D01*
X-9600637Y20828609D01*
X-9667656Y20821586D01*
X-9745366Y20819082D01*
X-9820248Y20821172D01*
X-9878778Y20827935D01*
X-9906318Y20838096D01*
X-9907619Y20863224D01*
X-9899262Y20917200D01*
X-9883825Y20985177D01*
X-9862361Y21127166D01*
X-9867567Y21269517D01*
X-9896427Y21406093D01*
X-9945924Y21530759D01*
X-10013039Y21637377D01*
X-10094757Y21719811D01*
X-10188059Y21771925D01*
X-10278475Y21787833D01*
X-10376028Y21769111D01*
X-10453828Y21714361D01*
X-10510463Y21625708D01*
X-10544522Y21505277D01*
X-10554707Y21371787D01*
X-10549694Y21262328D01*
X-10532459Y21161239D01*
X-10500114Y21064229D01*
X-10449771Y20967010D01*
X-10378542Y20865291D01*
X-10283540Y20754783D01*
X-10161877Y20631197D01*
X-10010665Y20490243D01*
X-9887253Y20380318D01*
X-9699208Y20212101D01*
X-9541281Y20063688D01*
X-9409241Y19930139D01*
X-9298856Y19806514D01*
X-9205895Y19687875D01*
X-9126126Y19569282D01*
X-9055319Y19445795D01*
X-9009999Y19356237D01*
X-8974990Y19280050D01*
X-8946066Y19206413D01*
X-8920389Y19125777D01*
X-8895119Y19028594D01*
X-8867417Y18905316D01*
X-8847165Y18808625D01*
X-8845881Y18776195D01*
X-8863563Y18764777D01*
X-8905992Y18774359D01*
X-8978948Y18804928D01*
X-8986333Y18808306D01*
X-9070984Y18833120D01*
X-9189925Y18847597D01*
X-9336377Y18851673D01*
X-9503562Y18845281D01*
X-9684702Y18828357D01*
X-9778476Y18815911D01*
X-9892945Y18801383D01*
X-10011089Y18789993D01*
X-10115267Y18783292D01*
X-10161913Y18782166D01*
X-10269424Y18788540D01*
X-10346536Y18811759D01*
X-10403808Y18857968D01*
X-10451801Y18933315D01*
X-10463797Y18957870D01*
X-10482898Y19011104D01*
X-10500495Y19081706D01*
X-10515207Y19159796D01*
X-10525650Y19235491D01*
X-10530445Y19298913D01*
X-10528208Y19340179D01*
X-10518632Y19350025D01*
X-10400372Y19297930D01*
X-10288373Y19261966D01*
X-10171723Y19240379D01*
X-10039507Y19231416D01*
X-9880814Y19233321D01*
X-9812305Y19236477D01*
X-9711331Y19242359D01*
X-9626893Y19248326D01*
X-9567318Y19253712D01*
X-9540931Y19257854D01*
X-9540458Y19258153D01*
X-9545915Y19279104D01*
X-9567319Y19327731D01*
X-9600401Y19394517D01*
X-9609547Y19412085D01*
X-9663545Y19505562D01*
X-9731989Y19606530D01*
X-9818065Y19718895D01*
X-9924958Y19846562D01*
X-10055855Y19993437D01*
X-10213940Y20163427D01*
X-10273970Y20226680D01*
X-10443915Y20410063D01*
X-10582877Y20572397D01*
X-10693465Y20718390D01*
X-10778292Y20852751D01*
X-10839967Y20980188D01*
X-10881104Y21105412D01*
X-10904312Y21233130D01*
X-10912203Y21368050D01*
X-10912249Y21377714D01*
X-10897110Y21547924D01*
X-10850890Y21689630D01*
X-10773308Y21803368D01*
X-10664081Y21889678D01*
X-10636100Y21904875D01*
X-10490041Y21956279D01*
X-10329170Y21973894D01*
X-10161767Y21959414D01*
G36*
X7595595Y22006762D02*
G01*
X7749878Y21957257D01*
X7909161Y21877194D01*
X8070698Y21767559D01*
X8231739Y21629337D01*
X8389534Y21463514D01*
X8541336Y21271074D01*
X8600221Y21186180D01*
X8754134Y20937329D01*
X8885358Y20687060D01*
X8993568Y20438461D01*
X9078443Y20194620D01*
X9139658Y19958626D01*
X9176890Y19733567D01*
X9189817Y19522531D01*
X9178115Y19328607D01*
X9141461Y19154883D01*
X9079532Y19004447D01*
X8992005Y18880387D01*
X8878557Y18785793D01*
X8852947Y18770802D01*
X8797028Y18742325D01*
X8745911Y18723764D01*
X8687335Y18712649D01*
X8609041Y18706505D01*
X8518500Y18703364D01*
X8395551Y18702651D01*
X8301645Y18708796D01*
X8223867Y18723043D01*
X8179597Y18735989D01*
X7987924Y18820128D01*
X7819493Y18936658D01*
X7678346Y19081533D01*
X7568527Y19250710D01*
X7501741Y19414104D01*
X7471282Y19544924D01*
X7463187Y19662068D01*
X7476594Y19759562D01*
X7510641Y19831431D01*
X7564468Y19871700D01*
X7567899Y19872852D01*
X7610737Y19876584D01*
X7640839Y19852144D01*
X7662275Y19794225D01*
X7673663Y19735019D01*
X7716938Y19574658D01*
X7790992Y19427122D01*
X7890314Y19298379D01*
X8009394Y19194402D01*
X8142719Y19121160D01*
X8272569Y19086146D01*
X8390756Y19087248D01*
X8489740Y19124019D01*
X8569060Y19194170D01*
X8628260Y19295413D01*
X8666881Y19425460D01*
X8684464Y19582023D01*
X8680552Y19762813D01*
X8654686Y19965543D01*
X8606408Y20187924D01*
X8539000Y20416415D01*
X8420080Y20730169D01*
X8281651Y21012468D01*
X8125133Y21260884D01*
X7951943Y21472988D01*
X7879093Y21546381D01*
X7747504Y21657858D01*
X7621594Y21738189D01*
X7505167Y21785688D01*
X7402029Y21798670D01*
X7338481Y21785830D01*
X7286525Y21745375D01*
X7245293Y21673559D01*
X7218635Y21580793D01*
X7210397Y21477488D01*
X7212243Y21444313D01*
X7246942Y21282053D01*
X7317813Y21137654D01*
X7421293Y21014379D01*
X7553817Y20915489D01*
X7711821Y20844249D01*
X7891742Y20803920D01*
X7914657Y20801310D01*
X7988719Y20792616D01*
X8028943Y20783130D01*
X8043708Y20768923D01*
X8041394Y20746068D01*
X8040320Y20742402D01*
X7997085Y20648250D01*
X7929983Y20556844D01*
X7850305Y20481090D01*
X7770997Y20434513D01*
X7653039Y20410415D01*
X7522513Y20417652D01*
X7392506Y20453883D01*
X7276106Y20516769D01*
X7264982Y20524994D01*
X7143716Y20641950D01*
X7044763Y20786463D01*
X6969829Y20950702D01*
X6920621Y21126834D01*
X6898848Y21307029D01*
X6906216Y21483455D01*
X6944433Y21648280D01*
X6995422Y21761431D01*
X7083462Y21879496D01*
X7190248Y21962076D01*
X7313032Y22010156D01*
X7449064Y22024723D01*
X7595595Y22006762D01*
G37*
X7595595Y22006762D02*
X7749878Y21957257D01*
X7909161Y21877194D01*
X8070698Y21767559D01*
X8231739Y21629337D01*
X8389534Y21463514D01*
X8541336Y21271074D01*
X8600221Y21186180D01*
X8754134Y20937329D01*
X8885358Y20687060D01*
X8993568Y20438461D01*
X9078443Y20194620D01*
X9139658Y19958626D01*
X9176890Y19733567D01*
X9189817Y19522531D01*
X9178115Y19328607D01*
X9141461Y19154883D01*
X9079532Y19004447D01*
X8992005Y18880387D01*
X8878557Y18785793D01*
X8852947Y18770802D01*
X8797028Y18742325D01*
X8745911Y18723764D01*
X8687335Y18712649D01*
X8609041Y18706505D01*
X8518500Y18703364D01*
X8395551Y18702651D01*
X8301645Y18708796D01*
X8223867Y18723043D01*
X8179597Y18735989D01*
X7987924Y18820128D01*
X7819493Y18936658D01*
X7678346Y19081533D01*
X7568527Y19250710D01*
X7501741Y19414104D01*
X7471282Y19544924D01*
X7463187Y19662068D01*
X7476594Y19759562D01*
X7510641Y19831431D01*
X7564468Y19871700D01*
X7567899Y19872852D01*
X7610737Y19876584D01*
X7640839Y19852144D01*
X7662275Y19794225D01*
X7673663Y19735019D01*
X7716938Y19574658D01*
X7790992Y19427122D01*
X7890314Y19298379D01*
X8009394Y19194402D01*
X8142719Y19121160D01*
X8272569Y19086146D01*
X8390756Y19087248D01*
X8489740Y19124019D01*
X8569060Y19194170D01*
X8628260Y19295413D01*
X8666881Y19425460D01*
X8684464Y19582023D01*
X8680552Y19762813D01*
X8654686Y19965543D01*
X8606408Y20187924D01*
X8539000Y20416415D01*
X8420080Y20730169D01*
X8281651Y21012468D01*
X8125133Y21260884D01*
X7951943Y21472988D01*
X7879093Y21546381D01*
X7747504Y21657858D01*
X7621594Y21738189D01*
X7505167Y21785688D01*
X7402029Y21798670D01*
X7338481Y21785830D01*
X7286525Y21745375D01*
X7245293Y21673559D01*
X7218635Y21580793D01*
X7210397Y21477488D01*
X7212243Y21444313D01*
X7246942Y21282053D01*
X7317813Y21137654D01*
X7421293Y21014379D01*
X7553817Y20915489D01*
X7711821Y20844249D01*
X7891742Y20803920D01*
X7914657Y20801310D01*
X7988719Y20792616D01*
X8028943Y20783130D01*
X8043708Y20768923D01*
X8041394Y20746068D01*
X8040320Y20742402D01*
X7997085Y20648250D01*
X7929983Y20556844D01*
X7850305Y20481090D01*
X7770997Y20434513D01*
X7653039Y20410415D01*
X7522513Y20417652D01*
X7392506Y20453883D01*
X7276106Y20516769D01*
X7264982Y20524994D01*
X7143716Y20641950D01*
X7044763Y20786463D01*
X6969829Y20950702D01*
X6920621Y21126834D01*
X6898848Y21307029D01*
X6906216Y21483455D01*
X6944433Y21648280D01*
X6995422Y21761431D01*
X7083462Y21879496D01*
X7190248Y21962076D01*
X7313032Y22010156D01*
X7449064Y22024723D01*
X7595595Y22006762D01*
G36*
X6051633Y21851647D02*
G01*
X6144459Y21802405D01*
X6244282Y21716063D01*
X6349150Y21596898D01*
X6457110Y21449186D01*
X6566211Y21277204D01*
X6674501Y21085230D01*
X6780028Y20877539D01*
X6880841Y20658408D01*
X6974987Y20432115D01*
X7060515Y20202935D01*
X7135472Y19975146D01*
X7197908Y19753025D01*
X7245870Y19540848D01*
X7277406Y19342891D01*
X7290564Y19163433D01*
X7290834Y19136391D01*
X7283769Y18989358D01*
X7261484Y18876292D01*
X7222343Y18791065D01*
X7187003Y18747609D01*
X7152395Y18717572D01*
X7116324Y18702455D01*
X7064390Y18698718D01*
X7000044Y18701650D01*
X6922571Y18709114D01*
X6869871Y18724224D01*
X6824380Y18754336D01*
X6783001Y18792586D01*
X6730097Y18853544D01*
X6686072Y18921009D01*
X6655065Y18985815D01*
X6641213Y19038795D01*
X6648655Y19070781D01*
X6655579Y19074887D01*
X6722285Y19118910D01*
X6768666Y19198560D01*
X6792618Y19304452D01*
X6795592Y19383046D01*
X6785626Y19469394D01*
X6761029Y19568831D01*
X6720107Y19686691D01*
X6661166Y19828308D01*
X6582513Y19999017D01*
X6551892Y20062750D01*
X6446481Y20266336D01*
X6345738Y20432596D01*
X6250396Y20560629D01*
X6161188Y20649535D01*
X6078846Y20698414D01*
X6026219Y20708333D01*
X5986125Y20702151D01*
X5958378Y20681343D01*
X5943289Y20642518D01*
X5941173Y20582284D01*
X5952342Y20497250D01*
X5977111Y20384024D01*
X6015791Y20239214D01*
X6068697Y20059429D01*
X6093706Y19977634D01*
X6157188Y19769035D01*
X6208075Y19595255D01*
X6247579Y19451092D01*
X6276911Y19331347D01*
X6297283Y19230819D01*
X6309907Y19144308D01*
X6315994Y19066613D01*
X6317019Y19019240D01*
X6307597Y18887037D01*
X6278700Y18791209D01*
X6229814Y18730282D01*
X6212506Y18719294D01*
X6148961Y18701539D01*
X6062089Y18697330D01*
X5968354Y18705766D01*
X5884221Y18725947D01*
X5853233Y18738949D01*
X5758454Y18805073D01*
X5657591Y18907827D01*
X5553865Y19042543D01*
X5450495Y19204553D01*
X5350701Y19389187D01*
X5257705Y19591779D01*
X5246671Y19618250D01*
X5212977Y19703239D01*
X5169806Y19816960D01*
X5121358Y19948086D01*
X5071834Y20085287D01*
X5038675Y20179166D01*
X4909204Y20549583D01*
X4761227Y20550281D01*
X4669697Y20553238D01*
X4580505Y20560223D01*
X4522356Y20568175D01*
X4431462Y20585370D01*
X4539885Y20387560D01*
X4678008Y20125645D01*
X4797247Y19878969D01*
X4896385Y19650704D01*
X4974204Y19444019D01*
X5029485Y19262085D01*
X5061011Y19108073D01*
X5068334Y19012042D01*
X5057822Y18907778D01*
X5029149Y18816729D01*
X4986608Y18749417D01*
X4949773Y18721541D01*
X4859745Y18698694D01*
X4755732Y18699014D01*
X4656853Y18721011D01*
X4600484Y18748810D01*
X4517304Y18821116D01*
X4455858Y18914434D01*
X4422224Y18995324D01*
X4405510Y19048079D01*
X4405351Y19072280D01*
X4422056Y19078466D01*
X4424651Y19078500D01*
X4460345Y19092531D01*
X4504531Y19126690D01*
X4508379Y19130454D01*
X4536281Y19165489D01*
X4554921Y19208053D01*
X4563490Y19261121D01*
X4561173Y19327666D01*
X4547161Y19410662D01*
X4520640Y19513084D01*
X4480800Y19637905D01*
X4426828Y19788100D01*
X4357913Y19966643D01*
X4273243Y20176508D01*
X4172006Y20420668D01*
X4126888Y20528133D01*
X4069858Y20672995D01*
X4031967Y20790448D01*
X4013811Y20877957D01*
X4015988Y20932983D01*
X4027758Y20949643D01*
X4057405Y20950895D01*
X4116764Y20942067D01*
X4194915Y20924957D01*
X4226044Y20916984D01*
X4306913Y20899854D01*
X4405376Y20885543D01*
X4512145Y20874599D01*
X4617931Y20867573D01*
X4713443Y20865014D01*
X4789393Y20867470D01*
X4836491Y20875491D01*
X4845170Y20880380D01*
X4840069Y20901862D01*
X4811335Y20940015D01*
X4795673Y20956570D01*
X4735805Y21044698D01*
X4713004Y21148163D01*
X4728863Y21259202D01*
X4731798Y21268032D01*
X4774775Y21344859D01*
X4834256Y21387839D01*
X4904259Y21398993D01*
X4978799Y21380339D01*
X5051891Y21333896D01*
X5117551Y21261684D01*
X5169795Y21165721D01*
X5187657Y21114217D01*
X5211569Y20969762D01*
X5195528Y20838733D01*
X5144158Y20728335D01*
X5087870Y20643278D01*
X5165639Y20416514D01*
X5260868Y20153811D01*
X5358247Y19913698D01*
X5456020Y19699665D01*
X5552433Y19515196D01*
X5645731Y19363781D01*
X5734158Y19248907D01*
X5773655Y19208421D01*
X5827526Y19158425D01*
X5840682Y19229587D01*
X5841702Y19280664D01*
X5830624Y19360653D01*
X5806941Y19471682D01*
X5770144Y19615874D01*
X5719728Y19795357D01*
X5655185Y20012255D01*
X5649483Y20031000D01*
X5614640Y20149335D01*
X5591368Y20241906D01*
X5577319Y20322926D01*
X5570146Y20406612D01*
X5567500Y20507178D01*
X5567321Y20528416D01*
X5567726Y20636647D01*
X5571584Y20712719D01*
X5580279Y20766754D01*
X5595193Y20808876D01*
X5609228Y20835261D01*
X5685028Y20926092D01*
X5781816Y20983562D01*
X5891763Y21005323D01*
X6007041Y20989027D01*
X6056753Y20969519D01*
X6143896Y20913227D01*
X6240696Y20825026D01*
X6340315Y20711996D01*
X6435912Y20581214D01*
X6444404Y20568326D01*
X6502650Y20479463D01*
X6540072Y20424427D01*
X6558932Y20401557D01*
X6561491Y20409195D01*
X6550011Y20445682D01*
X6527484Y20507379D01*
X6443697Y20718499D01*
X6353105Y20919340D01*
X6258416Y21105446D01*
X6162337Y21272365D01*
X6067577Y21415642D01*
X5976843Y21530824D01*
X5892843Y21613456D01*
X5830345Y21654054D01*
X5771746Y21685860D01*
X5749687Y21715876D01*
X5760075Y21754182D01*
X5778183Y21782503D01*
X5836130Y21831853D01*
X5917410Y21859540D01*
X6006974Y21861758D01*
X6051633Y21851647D01*
G37*
X6051633Y21851647D02*
X6144459Y21802405D01*
X6244282Y21716063D01*
X6349150Y21596898D01*
X6457110Y21449186D01*
X6566211Y21277204D01*
X6674501Y21085230D01*
X6780028Y20877539D01*
X6880841Y20658408D01*
X6974987Y20432115D01*
X7060515Y20202935D01*
X7135472Y19975146D01*
X7197908Y19753025D01*
X7245870Y19540848D01*
X7277406Y19342891D01*
X7290564Y19163433D01*
X7290834Y19136391D01*
X7283769Y18989358D01*
X7261484Y18876292D01*
X7222343Y18791065D01*
X7187003Y18747609D01*
X7152395Y18717572D01*
X7116324Y18702455D01*
X7064390Y18698718D01*
X7000044Y18701650D01*
X6922571Y18709114D01*
X6869871Y18724224D01*
X6824380Y18754336D01*
X6783001Y18792586D01*
X6730097Y18853544D01*
X6686072Y18921009D01*
X6655065Y18985815D01*
X6641213Y19038795D01*
X6648655Y19070781D01*
X6655579Y19074887D01*
X6722285Y19118910D01*
X6768666Y19198560D01*
X6792618Y19304452D01*
X6795592Y19383046D01*
X6785626Y19469394D01*
X6761029Y19568831D01*
X6720107Y19686691D01*
X6661166Y19828308D01*
X6582513Y19999017D01*
X6551892Y20062750D01*
X6446481Y20266336D01*
X6345738Y20432596D01*
X6250396Y20560629D01*
X6161188Y20649535D01*
X6078846Y20698414D01*
X6026219Y20708333D01*
X5986125Y20702151D01*
X5958378Y20681343D01*
X5943289Y20642518D01*
X5941173Y20582284D01*
X5952342Y20497250D01*
X5977111Y20384024D01*
X6015791Y20239214D01*
X6068697Y20059429D01*
X6093706Y19977634D01*
X6157188Y19769035D01*
X6208075Y19595255D01*
X6247579Y19451092D01*
X6276911Y19331347D01*
X6297283Y19230819D01*
X6309907Y19144308D01*
X6315994Y19066613D01*
X6317019Y19019240D01*
X6307597Y18887037D01*
X6278700Y18791209D01*
X6229814Y18730282D01*
X6212506Y18719294D01*
X6148961Y18701539D01*
X6062089Y18697330D01*
X5968354Y18705766D01*
X5884221Y18725947D01*
X5853233Y18738949D01*
X5758454Y18805073D01*
X5657591Y18907827D01*
X5553865Y19042543D01*
X5450495Y19204553D01*
X5350701Y19389187D01*
X5257705Y19591779D01*
X5246671Y19618250D01*
X5212977Y19703239D01*
X5169806Y19816960D01*
X5121358Y19948086D01*
X5071834Y20085287D01*
X5038675Y20179166D01*
X4909204Y20549583D01*
X4761227Y20550281D01*
X4669697Y20553238D01*
X4580505Y20560223D01*
X4522356Y20568175D01*
X4431462Y20585370D01*
X4539885Y20387560D01*
X4678008Y20125645D01*
X4797247Y19878969D01*
X4896385Y19650704D01*
X4974204Y19444019D01*
X5029485Y19262085D01*
X5061011Y19108073D01*
X5068334Y19012042D01*
X5057822Y18907778D01*
X5029149Y18816729D01*
X4986608Y18749417D01*
X4949773Y18721541D01*
X4859745Y18698694D01*
X4755732Y18699014D01*
X4656853Y18721011D01*
X4600484Y18748810D01*
X4517304Y18821116D01*
X4455858Y18914434D01*
X4422224Y18995324D01*
X4405510Y19048079D01*
X4405351Y19072280D01*
X4422056Y19078466D01*
X4424651Y19078500D01*
X4460345Y19092531D01*
X4504531Y19126690D01*
X4508379Y19130454D01*
X4536281Y19165489D01*
X4554921Y19208053D01*
X4563490Y19261121D01*
X4561173Y19327666D01*
X4547161Y19410662D01*
X4520640Y19513084D01*
X4480800Y19637905D01*
X4426828Y19788100D01*
X4357913Y19966643D01*
X4273243Y20176508D01*
X4172006Y20420668D01*
X4126888Y20528133D01*
X4069858Y20672995D01*
X4031967Y20790448D01*
X4013811Y20877957D01*
X4015988Y20932983D01*
X4027758Y20949643D01*
X4057405Y20950895D01*
X4116764Y20942067D01*
X4194915Y20924957D01*
X4226044Y20916984D01*
X4306913Y20899854D01*
X4405376Y20885543D01*
X4512145Y20874599D01*
X4617931Y20867573D01*
X4713443Y20865014D01*
X4789393Y20867470D01*
X4836491Y20875491D01*
X4845170Y20880380D01*
X4840069Y20901862D01*
X4811335Y20940015D01*
X4795673Y20956570D01*
X4735805Y21044698D01*
X4713004Y21148163D01*
X4728863Y21259202D01*
X4731798Y21268032D01*
X4774775Y21344859D01*
X4834256Y21387839D01*
X4904259Y21398993D01*
X4978799Y21380339D01*
X5051891Y21333896D01*
X5117551Y21261684D01*
X5169795Y21165721D01*
X5187657Y21114217D01*
X5211569Y20969762D01*
X5195528Y20838733D01*
X5144158Y20728335D01*
X5087870Y20643278D01*
X5165639Y20416514D01*
X5260868Y20153811D01*
X5358247Y19913698D01*
X5456020Y19699665D01*
X5552433Y19515196D01*
X5645731Y19363781D01*
X5734158Y19248907D01*
X5773655Y19208421D01*
X5827526Y19158425D01*
X5840682Y19229587D01*
X5841702Y19280664D01*
X5830624Y19360653D01*
X5806941Y19471682D01*
X5770144Y19615874D01*
X5719728Y19795357D01*
X5655185Y20012255D01*
X5649483Y20031000D01*
X5614640Y20149335D01*
X5591368Y20241906D01*
X5577319Y20322926D01*
X5570146Y20406612D01*
X5567500Y20507178D01*
X5567321Y20528416D01*
X5567726Y20636647D01*
X5571584Y20712719D01*
X5580279Y20766754D01*
X5595193Y20808876D01*
X5609228Y20835261D01*
X5685028Y20926092D01*
X5781816Y20983562D01*
X5891763Y21005323D01*
X6007041Y20989027D01*
X6056753Y20969519D01*
X6143896Y20913227D01*
X6240696Y20825026D01*
X6340315Y20711996D01*
X6435912Y20581214D01*
X6444404Y20568326D01*
X6502650Y20479463D01*
X6540072Y20424427D01*
X6558932Y20401557D01*
X6561491Y20409195D01*
X6550011Y20445682D01*
X6527484Y20507379D01*
X6443697Y20718499D01*
X6353105Y20919340D01*
X6258416Y21105446D01*
X6162337Y21272365D01*
X6067577Y21415642D01*
X5976843Y21530824D01*
X5892843Y21613456D01*
X5830345Y21654054D01*
X5771746Y21685860D01*
X5749687Y21715876D01*
X5760075Y21754182D01*
X5778183Y21782503D01*
X5836130Y21831853D01*
X5917410Y21859540D01*
X6006974Y21861758D01*
X6051633Y21851647D01*
G36*
X683949Y22211817D02*
G01*
X801357Y22152551D01*
X926437Y22053574D01*
X1059810Y21914389D01*
X1202099Y21734498D01*
X1211825Y21721173D01*
X1259643Y21654549D01*
X1296696Y21605713D01*
X1330555Y21571127D01*
X1368790Y21547253D01*
X1418972Y21530553D01*
X1488673Y21517488D01*
X1585464Y21504520D01*
X1708125Y21489230D01*
X1802676Y21476604D01*
X1862874Y21465865D01*
X1896430Y21454167D01*
X1911060Y21438663D01*
X1914477Y21416508D01*
X1914500Y21413078D01*
X1906323Y21360204D01*
X1886273Y21295912D01*
X1882615Y21286829D01*
X1850731Y21210518D01*
X1689993Y21225084D01*
X1615103Y21229938D01*
X1561034Y21229714D01*
X1537315Y21224562D01*
X1537152Y21222700D01*
X1548734Y21198808D01*
X1575644Y21143719D01*
X1614553Y21064238D01*
X1662132Y20967167D01*
X1695653Y20898833D01*
X1842892Y20581796D01*
X1970110Y20272764D01*
X2073438Y19981365D01*
X2103859Y19883252D01*
X2165968Y19648899D01*
X2208020Y19433472D01*
X2230019Y19239927D01*
X2231966Y19071219D01*
X2213865Y18930305D01*
X2175721Y18820142D01*
X2117536Y18743684D01*
X2102581Y18732054D01*
X2047677Y18710879D01*
X1969128Y18700034D01*
X1884542Y18700355D01*
X1811528Y18712674D01*
X1797417Y18717615D01*
X1747469Y18749347D01*
X1694742Y18801082D01*
X1644376Y18864601D01*
X1601514Y18931685D01*
X1571296Y18994116D01*
X1558865Y19043673D01*
X1569362Y19072139D01*
X1574202Y19074428D01*
X1606802Y19093294D01*
X1651980Y19127853D01*
X1656629Y19131807D01*
X1683903Y19158444D01*
X1701288Y19188297D01*
X1711562Y19231785D01*
X1717500Y19299321D01*
X1720800Y19372591D01*
X1715708Y19554442D01*
X1686622Y19757512D01*
X1632751Y19986164D01*
X1574566Y20180293D01*
X1531121Y20304818D01*
X1474025Y20454037D01*
X1408206Y20616252D01*
X1338589Y20779765D01*
X1270101Y20932879D01*
X1207669Y21063897D01*
X1178345Y21121083D01*
X1099584Y21269250D01*
X907568Y21266522D01*
X751999Y21258723D01*
X611881Y21240928D01*
X498596Y21214740D01*
X469828Y21204833D01*
X446332Y21201846D01*
X435499Y21222905D01*
X432834Y21276980D01*
X432834Y21278620D01*
X446955Y21385536D01*
X490514Y21465159D01*
X565304Y21518908D01*
X673117Y21548206D01*
X781404Y21555000D01*
X851670Y21556703D01*
X901446Y21561161D01*
X919667Y21567191D01*
X907666Y21588719D01*
X876012Y21634191D01*
X831234Y21694283D01*
X825300Y21702019D01*
X725220Y21820122D01*
X621677Y21920979D01*
X522192Y21998067D01*
X434288Y22044861D01*
X427022Y22047424D01*
X337584Y22077363D01*
X414842Y22154848D01*
X471431Y22204377D01*
X521772Y22227192D01*
X573592Y22231868D01*
X683949Y22211817D01*
G37*
X683949Y22211817D02*
X801357Y22152551D01*
X926437Y22053574D01*
X1059810Y21914389D01*
X1202099Y21734498D01*
X1211825Y21721173D01*
X1259643Y21654549D01*
X1296696Y21605713D01*
X1330555Y21571127D01*
X1368790Y21547253D01*
X1418972Y21530553D01*
X1488673Y21517488D01*
X1585464Y21504520D01*
X1708125Y21489230D01*
X1802676Y21476604D01*
X1862874Y21465865D01*
X1896430Y21454167D01*
X1911060Y21438663D01*
X1914477Y21416508D01*
X1914500Y21413078D01*
X1906323Y21360204D01*
X1886273Y21295912D01*
X1882615Y21286829D01*
X1850731Y21210518D01*
X1689993Y21225084D01*
X1615103Y21229938D01*
X1561034Y21229714D01*
X1537315Y21224562D01*
X1537152Y21222700D01*
X1548734Y21198808D01*
X1575644Y21143719D01*
X1614553Y21064238D01*
X1662132Y20967167D01*
X1695653Y20898833D01*
X1842892Y20581796D01*
X1970110Y20272764D01*
X2073438Y19981365D01*
X2103859Y19883252D01*
X2165968Y19648899D01*
X2208020Y19433472D01*
X2230019Y19239927D01*
X2231966Y19071219D01*
X2213865Y18930305D01*
X2175721Y18820142D01*
X2117536Y18743684D01*
X2102581Y18732054D01*
X2047677Y18710879D01*
X1969128Y18700034D01*
X1884542Y18700355D01*
X1811528Y18712674D01*
X1797417Y18717615D01*
X1747469Y18749347D01*
X1694742Y18801082D01*
X1644376Y18864601D01*
X1601514Y18931685D01*
X1571296Y18994116D01*
X1558865Y19043673D01*
X1569362Y19072139D01*
X1574202Y19074428D01*
X1606802Y19093294D01*
X1651980Y19127853D01*
X1656629Y19131807D01*
X1683903Y19158444D01*
X1701288Y19188297D01*
X1711562Y19231785D01*
X1717500Y19299321D01*
X1720800Y19372591D01*
X1715708Y19554442D01*
X1686622Y19757512D01*
X1632751Y19986164D01*
X1574566Y20180293D01*
X1531121Y20304818D01*
X1474025Y20454037D01*
X1408206Y20616252D01*
X1338589Y20779765D01*
X1270101Y20932879D01*
X1207669Y21063897D01*
X1178345Y21121083D01*
X1099584Y21269250D01*
X907568Y21266522D01*
X751999Y21258723D01*
X611881Y21240928D01*
X498596Y21214740D01*
X469828Y21204833D01*
X446332Y21201846D01*
X435499Y21222905D01*
X432834Y21276980D01*
X432834Y21278620D01*
X446955Y21385536D01*
X490514Y21465159D01*
X565304Y21518908D01*
X673117Y21548206D01*
X781404Y21555000D01*
X851670Y21556703D01*
X901446Y21561161D01*
X919667Y21567191D01*
X907666Y21588719D01*
X876012Y21634191D01*
X831234Y21694283D01*
X825300Y21702019D01*
X725220Y21820122D01*
X621677Y21920979D01*
X522192Y21998067D01*
X434288Y22044861D01*
X427022Y22047424D01*
X337584Y22077363D01*
X414842Y22154848D01*
X471431Y22204377D01*
X521772Y22227192D01*
X573592Y22231868D01*
X683949Y22211817D01*
G36*
X-11212Y20993283D02*
G01*
X95605Y20944804D01*
X206093Y20857185D01*
X322222Y20732608D01*
X440991Y20575559D01*
X559400Y20390522D01*
X674446Y20181983D01*
X783130Y19954425D01*
X827477Y19851083D01*
X858299Y19781493D01*
X882330Y19736177D01*
X896127Y19721184D01*
X898113Y19727058D01*
X892130Y19776118D01*
X875604Y19854496D01*
X851461Y19951376D01*
X822628Y20055942D01*
X792029Y20157379D01*
X762591Y20244869D01*
X747186Y20285000D01*
X693438Y20402898D01*
X634277Y20511730D01*
X574132Y20605074D01*
X517430Y20676509D01*
X468600Y20719613D01*
X440706Y20729500D01*
X408490Y20740782D01*
X404810Y20769598D01*
X424099Y20808398D01*
X460791Y20849635D01*
X509317Y20885760D01*
X564111Y20909225D01*
X575077Y20911687D01*
X658913Y20911071D01*
X740132Y20875273D01*
X822463Y20801985D01*
X890510Y20716388D01*
X999189Y20540962D01*
X1100419Y20333502D01*
X1191048Y20104089D01*
X1267927Y19862804D01*
X1327905Y19619728D01*
X1367832Y19384940D01*
X1384559Y19168523D01*
X1384869Y19134421D01*
X1378347Y18981002D01*
X1358141Y18864693D01*
X1322162Y18781893D01*
X1268321Y18728996D01*
X1194532Y18702400D01*
X1131674Y18697500D01*
X1018589Y18715471D01*
X922865Y18770251D01*
X842808Y18863142D01*
X792353Y18957863D01*
X747638Y19058948D01*
X796029Y19098133D01*
X820626Y19120424D01*
X832978Y19144375D01*
X834408Y19181295D01*
X826239Y19242497D01*
X818375Y19289198D01*
X787643Y19426462D01*
X741523Y19576791D01*
X714353Y19650000D01*
X898500Y19650000D01*
X906245Y19632577D01*
X912611Y19635889D01*
X915145Y19661009D01*
X912611Y19664111D01*
X900028Y19661205D01*
X898500Y19650000D01*
X714353Y19650000D01*
X682723Y19735221D01*
X613954Y19896788D01*
X537926Y20056528D01*
X457348Y20209478D01*
X374930Y20350672D01*
X293383Y20475148D01*
X215415Y20577941D01*
X143737Y20654088D01*
X81058Y20698624D01*
X43678Y20708333D01*
X17428Y20701933D01*
X1035Y20680572D01*
X-4916Y20641013D01*
X164Y20580016D01*
X16862Y20494343D01*
X45765Y20380755D01*
X87462Y20236013D01*
X142539Y20056880D01*
X187675Y19914583D01*
X254716Y19699218D01*
X306841Y19517811D01*
X345243Y19365172D01*
X371116Y19236110D01*
X385651Y19125434D01*
X390042Y19034033D01*
X382724Y18903488D01*
X357750Y18808624D01*
X312061Y18745388D01*
X242598Y18709724D01*
X146303Y18697578D01*
X136194Y18697500D01*
X12616Y18714594D01*
X-88909Y18766932D01*
X-170827Y18856094D01*
X-207592Y18919750D01*
X-244452Y19001513D01*
X-257615Y19052311D01*
X-247707Y19075824D01*
X-234661Y19078500D01*
X-195984Y19096610D01*
X-176914Y19148956D01*
X-176879Y19232555D01*
X-195308Y19344428D01*
X-231629Y19481594D01*
X-285270Y19641074D01*
X-355661Y19819886D01*
X-393876Y19908647D01*
X-488377Y20110446D01*
X-541583Y20210916D01*
X-350333Y20210916D01*
X-339750Y20200333D01*
X-329166Y20210916D01*
X-339750Y20221500D01*
X-350333Y20210916D01*
X-541583Y20210916D01*
X-582471Y20288125D01*
X-673884Y20438166D01*
X-760339Y20557052D01*
X-839560Y20641267D01*
X-892773Y20679512D01*
X-942204Y20699573D01*
X-977087Y20697234D01*
X-997247Y20670238D01*
X-1002514Y20616325D01*
X-992712Y20533237D01*
X-967670Y20418716D01*
X-927214Y20270501D01*
X-871172Y20086335D01*
X-839828Y19988046D01*
X-760026Y19732889D01*
X-697135Y19513540D01*
X-650840Y19327133D01*
X-620827Y19170807D01*
X-606782Y19041697D01*
X-608390Y18936940D01*
X-625338Y18853672D01*
X-657310Y18789030D01*
X-702948Y18740968D01*
X-763345Y18713368D01*
X-846741Y18699137D01*
X-935562Y18699566D01*
X-1012234Y18715948D01*
X-1017083Y18717888D01*
X-1074183Y18755885D01*
X-1136897Y18818737D01*
X-1193183Y18892822D01*
X-1227677Y18956112D01*
X-1251864Y19018503D01*
X-1256139Y19054283D01*
X-1237821Y19075507D01*
X-1197204Y19093110D01*
X-1150427Y19119051D01*
X-1118559Y19158542D01*
X-1101757Y19215434D01*
X-1100178Y19293581D01*
X-1113978Y19396836D01*
X-1143313Y19529050D01*
X-1188340Y19694076D01*
X-1226814Y19823120D01*
X-1291710Y20045304D01*
X-1339525Y20231140D01*
X-1370740Y20382796D01*
X-1385836Y20502442D01*
X-1387500Y20547649D01*
X-1377512Y20679691D01*
X-1349639Y20798577D01*
X-1307015Y20892973D01*
X-1283009Y20925399D01*
X-1238958Y20966101D01*
X-1189044Y20988005D01*
X-1115572Y20998673D01*
X-1110597Y20999076D01*
X-1038924Y21001472D01*
X-985098Y20991147D01*
X-928841Y20962540D01*
X-893233Y20939490D01*
X-801766Y20865343D01*
X-704403Y20760356D01*
X-598610Y20621480D01*
X-481854Y20445662D01*
X-477718Y20439088D01*
X-358443Y20249223D01*
X-367654Y20489866D01*
X-370616Y20606601D01*
X-368498Y20692005D01*
X-360417Y20756871D01*
X-345486Y20811993D01*
X-339998Y20827047D01*
X-285320Y20919565D01*
X-208189Y20979221D01*
X-114766Y21004349D01*
X-11212Y20993283D01*
G37*
X-11212Y20993283D02*
X95605Y20944804D01*
X206093Y20857185D01*
X322222Y20732608D01*
X440991Y20575559D01*
X559400Y20390522D01*
X674446Y20181983D01*
X783130Y19954425D01*
X827477Y19851083D01*
X858299Y19781493D01*
X882330Y19736177D01*
X896127Y19721184D01*
X898113Y19727058D01*
X892130Y19776118D01*
X875604Y19854496D01*
X851461Y19951376D01*
X822628Y20055942D01*
X792029Y20157379D01*
X762591Y20244869D01*
X747186Y20285000D01*
X693438Y20402898D01*
X634277Y20511730D01*
X574132Y20605074D01*
X517430Y20676509D01*
X468600Y20719613D01*
X440706Y20729500D01*
X408490Y20740782D01*
X404810Y20769598D01*
X424099Y20808398D01*
X460791Y20849635D01*
X509317Y20885760D01*
X564111Y20909225D01*
X575077Y20911687D01*
X658913Y20911071D01*
X740132Y20875273D01*
X822463Y20801985D01*
X890510Y20716388D01*
X999189Y20540962D01*
X1100419Y20333502D01*
X1191048Y20104089D01*
X1267927Y19862804D01*
X1327905Y19619728D01*
X1367832Y19384940D01*
X1384559Y19168523D01*
X1384869Y19134421D01*
X1378347Y18981002D01*
X1358141Y18864693D01*
X1322162Y18781893D01*
X1268321Y18728996D01*
X1194532Y18702400D01*
X1131674Y18697500D01*
X1018589Y18715471D01*
X922865Y18770251D01*
X842808Y18863142D01*
X792353Y18957863D01*
X747638Y19058948D01*
X796029Y19098133D01*
X820626Y19120424D01*
X832978Y19144375D01*
X834408Y19181295D01*
X826239Y19242497D01*
X818375Y19289198D01*
X787643Y19426462D01*
X741523Y19576791D01*
X714353Y19650000D01*
X898500Y19650000D01*
X906245Y19632577D01*
X912611Y19635889D01*
X915145Y19661009D01*
X912611Y19664111D01*
X900028Y19661205D01*
X898500Y19650000D01*
X714353Y19650000D01*
X682723Y19735221D01*
X613954Y19896788D01*
X537926Y20056528D01*
X457348Y20209478D01*
X374930Y20350672D01*
X293383Y20475148D01*
X215415Y20577941D01*
X143737Y20654088D01*
X81058Y20698624D01*
X43678Y20708333D01*
X17428Y20701933D01*
X1035Y20680572D01*
X-4916Y20641013D01*
X164Y20580016D01*
X16862Y20494343D01*
X45765Y20380755D01*
X87462Y20236013D01*
X142539Y20056880D01*
X187675Y19914583D01*
X254716Y19699218D01*
X306841Y19517811D01*
X345243Y19365172D01*
X371116Y19236110D01*
X385651Y19125434D01*
X390042Y19034033D01*
X382724Y18903488D01*
X357750Y18808624D01*
X312061Y18745388D01*
X242598Y18709724D01*
X146303Y18697578D01*
X136194Y18697500D01*
X12616Y18714594D01*
X-88909Y18766932D01*
X-170827Y18856094D01*
X-207592Y18919750D01*
X-244452Y19001513D01*
X-257615Y19052311D01*
X-247707Y19075824D01*
X-234661Y19078500D01*
X-195984Y19096610D01*
X-176914Y19148956D01*
X-176879Y19232555D01*
X-195308Y19344428D01*
X-231629Y19481594D01*
X-285270Y19641074D01*
X-355661Y19819886D01*
X-393876Y19908647D01*
X-488377Y20110446D01*
X-541583Y20210916D01*
X-350333Y20210916D01*
X-339750Y20200333D01*
X-329166Y20210916D01*
X-339750Y20221500D01*
X-350333Y20210916D01*
X-541583Y20210916D01*
X-582471Y20288125D01*
X-673884Y20438166D01*
X-760339Y20557052D01*
X-839560Y20641267D01*
X-892773Y20679512D01*
X-942204Y20699573D01*
X-977087Y20697234D01*
X-997247Y20670238D01*
X-1002514Y20616325D01*
X-992712Y20533237D01*
X-967670Y20418716D01*
X-927214Y20270501D01*
X-871172Y20086335D01*
X-839828Y19988046D01*
X-760026Y19732889D01*
X-697135Y19513540D01*
X-650840Y19327133D01*
X-620827Y19170807D01*
X-606782Y19041697D01*
X-608390Y18936940D01*
X-625338Y18853672D01*
X-657310Y18789030D01*
X-702948Y18740968D01*
X-763345Y18713368D01*
X-846741Y18699137D01*
X-935562Y18699566D01*
X-1012234Y18715948D01*
X-1017083Y18717888D01*
X-1074183Y18755885D01*
X-1136897Y18818737D01*
X-1193183Y18892822D01*
X-1227677Y18956112D01*
X-1251864Y19018503D01*
X-1256139Y19054283D01*
X-1237821Y19075507D01*
X-1197204Y19093110D01*
X-1150427Y19119051D01*
X-1118559Y19158542D01*
X-1101757Y19215434D01*
X-1100178Y19293581D01*
X-1113978Y19396836D01*
X-1143313Y19529050D01*
X-1188340Y19694076D01*
X-1226814Y19823120D01*
X-1291710Y20045304D01*
X-1339525Y20231140D01*
X-1370740Y20382796D01*
X-1385836Y20502442D01*
X-1387500Y20547649D01*
X-1377512Y20679691D01*
X-1349639Y20798577D01*
X-1307015Y20892973D01*
X-1283009Y20925399D01*
X-1238958Y20966101D01*
X-1189044Y20988005D01*
X-1115572Y20998673D01*
X-1110597Y20999076D01*
X-1038924Y21001472D01*
X-985098Y20991147D01*
X-928841Y20962540D01*
X-893233Y20939490D01*
X-801766Y20865343D01*
X-704403Y20760356D01*
X-598610Y20621480D01*
X-481854Y20445662D01*
X-477718Y20439088D01*
X-358443Y20249223D01*
X-367654Y20489866D01*
X-370616Y20606601D01*
X-368498Y20692005D01*
X-360417Y20756871D01*
X-345486Y20811993D01*
X-339998Y20827047D01*
X-285320Y20919565D01*
X-208189Y20979221D01*
X-114766Y21004349D01*
X-11212Y20993283D01*
G36*
X-2428779Y21000496D02*
G01*
X-2322330Y20984216D01*
X-2226444Y20949165D01*
X-2130599Y20889962D01*
X-2024275Y20801226D01*
X-2005900Y20784220D01*
X-1840396Y20602129D01*
X-1695171Y20385886D01*
X-1572289Y20139555D01*
X-1473814Y19867200D01*
X-1408997Y19609288D01*
X-1379950Y19440710D01*
X-1368438Y19299393D01*
X-1374237Y19174167D01*
X-1397123Y19053864D01*
X-1397765Y19051385D01*
X-1447351Y18911600D01*
X-1515096Y18808879D01*
X-1603814Y18740831D01*
X-1716317Y18705067D01*
X-1813715Y18697965D01*
X-1934133Y18708348D01*
X-2031444Y18736687D01*
X-2033083Y18737436D01*
X-2120711Y18791455D01*
X-2211520Y18869575D01*
X-2290274Y18957776D01*
X-2321028Y19002352D01*
X-2347398Y19043884D01*
X-2358563Y19051216D01*
X-2361131Y19026429D01*
X-2361205Y19015000D01*
X-2373393Y18921345D01*
X-2404816Y18829057D01*
X-2448749Y18756859D01*
X-2457196Y18747713D01*
X-2521270Y18710446D01*
X-2606185Y18696331D01*
X-2697036Y18705845D01*
X-2775794Y18737525D01*
X-2868954Y18816280D01*
X-2944341Y18923748D01*
X-2966339Y18969960D01*
X-2988874Y19028186D01*
X-2991785Y19060882D01*
X-2972546Y19081243D01*
X-2942150Y19096316D01*
X-2885227Y19145439D01*
X-2847418Y19232002D01*
X-2828863Y19355598D01*
X-2826833Y19424297D01*
X-2835184Y19586010D01*
X-2858775Y19756880D01*
X-2895414Y19930941D01*
X-2942907Y20102229D01*
X-2999062Y20264778D01*
X-3061687Y20412623D01*
X-3128588Y20539799D01*
X-3168254Y20597610D01*
X-2763333Y20597610D01*
X-2763333Y20597483D01*
X-2754748Y20568544D01*
X-2731972Y20512443D01*
X-2699475Y20440014D01*
X-2690470Y20420865D01*
X-2598815Y20206355D01*
X-2514697Y19968221D01*
X-2444621Y19725159D01*
X-2435223Y19687373D01*
X-2377484Y19496534D01*
X-2304903Y19334912D01*
X-2219863Y19207270D01*
X-2167450Y19152195D01*
X-2106064Y19102060D01*
X-2060977Y19081736D01*
X-2021610Y19088325D01*
X-1995027Y19104958D01*
X-1959024Y19156061D01*
X-1937515Y19241066D01*
X-1930360Y19354152D01*
X-1937421Y19489498D01*
X-1958556Y19641281D01*
X-1993627Y19803682D01*
X-2013546Y19877381D01*
X-2070534Y20048845D01*
X-2138866Y20210390D01*
X-2215308Y20357243D01*
X-2296628Y20484631D01*
X-2379594Y20587781D01*
X-2460972Y20661918D01*
X-2537529Y20702270D01*
X-2576309Y20708333D01*
X-2637480Y20697356D01*
X-2698167Y20669834D01*
X-2744681Y20633881D01*
X-2763333Y20597610D01*
X-3168254Y20597610D01*
X-3197573Y20640339D01*
X-3266448Y20708281D01*
X-3307179Y20731057D01*
X-3340024Y20747018D01*
X-3344924Y20768771D01*
X-3325574Y20811607D01*
X-3274634Y20868224D01*
X-3196504Y20906608D01*
X-3108952Y20920000D01*
X-3063381Y20905298D01*
X-3003571Y20866481D01*
X-2968820Y20837132D01*
X-2878919Y20754265D01*
X-2811200Y20834926D01*
X-2707055Y20929157D01*
X-2586285Y20985225D01*
X-2452188Y21001700D01*
X-2428779Y21000496D01*
G37*
X-2428779Y21000496D02*
X-2322330Y20984216D01*
X-2226444Y20949165D01*
X-2130599Y20889962D01*
X-2024275Y20801226D01*
X-2005900Y20784220D01*
X-1840396Y20602129D01*
X-1695171Y20385886D01*
X-1572289Y20139555D01*
X-1473814Y19867200D01*
X-1408997Y19609288D01*
X-1379950Y19440710D01*
X-1368438Y19299393D01*
X-1374237Y19174167D01*
X-1397123Y19053864D01*
X-1397765Y19051385D01*
X-1447351Y18911600D01*
X-1515096Y18808879D01*
X-1603814Y18740831D01*
X-1716317Y18705067D01*
X-1813715Y18697965D01*
X-1934133Y18708348D01*
X-2031444Y18736687D01*
X-2033083Y18737436D01*
X-2120711Y18791455D01*
X-2211520Y18869575D01*
X-2290274Y18957776D01*
X-2321028Y19002352D01*
X-2347398Y19043884D01*
X-2358563Y19051216D01*
X-2361131Y19026429D01*
X-2361205Y19015000D01*
X-2373393Y18921345D01*
X-2404816Y18829057D01*
X-2448749Y18756859D01*
X-2457196Y18747713D01*
X-2521270Y18710446D01*
X-2606185Y18696331D01*
X-2697036Y18705845D01*
X-2775794Y18737525D01*
X-2868954Y18816280D01*
X-2944341Y18923748D01*
X-2966339Y18969960D01*
X-2988874Y19028186D01*
X-2991785Y19060882D01*
X-2972546Y19081243D01*
X-2942150Y19096316D01*
X-2885227Y19145439D01*
X-2847418Y19232002D01*
X-2828863Y19355598D01*
X-2826833Y19424297D01*
X-2835184Y19586010D01*
X-2858775Y19756880D01*
X-2895414Y19930941D01*
X-2942907Y20102229D01*
X-2999062Y20264778D01*
X-3061687Y20412623D01*
X-3128588Y20539799D01*
X-3168254Y20597610D01*
X-2763333Y20597610D01*
X-2763333Y20597483D01*
X-2754748Y20568544D01*
X-2731972Y20512443D01*
X-2699475Y20440014D01*
X-2690470Y20420865D01*
X-2598815Y20206355D01*
X-2514697Y19968221D01*
X-2444621Y19725159D01*
X-2435223Y19687373D01*
X-2377484Y19496534D01*
X-2304903Y19334912D01*
X-2219863Y19207270D01*
X-2167450Y19152195D01*
X-2106064Y19102060D01*
X-2060977Y19081736D01*
X-2021610Y19088325D01*
X-1995027Y19104958D01*
X-1959024Y19156061D01*
X-1937515Y19241066D01*
X-1930360Y19354152D01*
X-1937421Y19489498D01*
X-1958556Y19641281D01*
X-1993627Y19803682D01*
X-2013546Y19877381D01*
X-2070534Y20048845D01*
X-2138866Y20210390D01*
X-2215308Y20357243D01*
X-2296628Y20484631D01*
X-2379594Y20587781D01*
X-2460972Y20661918D01*
X-2537529Y20702270D01*
X-2576309Y20708333D01*
X-2637480Y20697356D01*
X-2698167Y20669834D01*
X-2744681Y20633881D01*
X-2763333Y20597610D01*
X-3168254Y20597610D01*
X-3197573Y20640339D01*
X-3266448Y20708281D01*
X-3307179Y20731057D01*
X-3340024Y20747018D01*
X-3344924Y20768771D01*
X-3325574Y20811607D01*
X-3274634Y20868224D01*
X-3196504Y20906608D01*
X-3108952Y20920000D01*
X-3063381Y20905298D01*
X-3003571Y20866481D01*
X-2968820Y20837132D01*
X-2878919Y20754265D01*
X-2811200Y20834926D01*
X-2707055Y20929157D01*
X-2586285Y20985225D01*
X-2452188Y21001700D01*
X-2428779Y21000496D01*
G36*
X-8399929Y21860630D02*
G01*
X-8328403Y21854803D01*
X-8269773Y21841480D01*
X-8209338Y21817709D01*
X-8158584Y21793515D01*
X-7992807Y21690640D01*
X-7832039Y21549618D01*
X-7678804Y21374563D01*
X-7535627Y21169587D01*
X-7405032Y20938804D01*
X-7289543Y20686327D01*
X-7191685Y20416270D01*
X-7113982Y20132747D01*
X-7099641Y20068021D01*
X-7074125Y19915686D01*
X-7057755Y19749398D01*
X-7050661Y19579983D01*
X-7052970Y19418269D01*
X-7064810Y19275082D01*
X-7086311Y19161250D01*
X-7088793Y19152583D01*
X-7152104Y18990375D01*
X-7235398Y18865051D01*
X-7340148Y18775419D01*
X-7467825Y18720292D01*
X-7619905Y18698479D01*
X-7651697Y18698002D01*
X-7773275Y18704893D01*
X-7875084Y18727166D01*
X-7930191Y18747296D01*
X-8099840Y18838130D01*
X-8265741Y18968224D01*
X-8425158Y19134517D01*
X-8575355Y19333947D01*
X-8713595Y19563453D01*
X-8784265Y19702916D01*
X-8893282Y19956960D01*
X-8980401Y20212252D01*
X-9045291Y20464417D01*
X-9087619Y20709081D01*
X-9107052Y20941868D01*
X-9105211Y21047000D01*
X-8655510Y21047000D01*
X-8653851Y20900132D01*
X-8648540Y20780830D01*
X-8638169Y20674386D01*
X-8621329Y20566091D01*
X-8598177Y20448690D01*
X-8534656Y20180102D01*
X-8462649Y19936575D01*
X-8383408Y19720377D01*
X-8298190Y19533777D01*
X-8208248Y19379043D01*
X-8114837Y19258444D01*
X-8019211Y19174248D01*
X-7922624Y19128723D01*
X-7863918Y19120912D01*
X-7798920Y19129941D01*
X-7744982Y19151862D01*
X-7743662Y19152766D01*
X-7687204Y19216495D01*
X-7644961Y19315680D01*
X-7616890Y19445916D01*
X-7602945Y19602798D01*
X-7603082Y19781924D01*
X-7617256Y19978889D01*
X-7645423Y20189289D01*
X-7687538Y20408721D01*
X-7743557Y20632779D01*
X-7759188Y20687166D01*
X-7825621Y20886725D01*
X-7901308Y21069654D01*
X-7983893Y21233041D01*
X-8071017Y21373969D01*
X-8160323Y21489524D01*
X-8249452Y21576792D01*
X-8336047Y21632858D01*
X-8417751Y21654807D01*
X-8492205Y21639725D01*
X-8517277Y21624299D01*
X-8566313Y21577423D01*
X-8603127Y21515876D01*
X-8629077Y21433983D01*
X-8645523Y21326068D01*
X-8653823Y21186455D01*
X-8655510Y21047000D01*
X-9105211Y21047000D01*
X-9103259Y21158405D01*
X-9075907Y21354317D01*
X-9024663Y21525228D01*
X-8949195Y21666764D01*
X-8934934Y21686282D01*
X-8868482Y21761614D01*
X-8798011Y21812836D01*
X-8713630Y21843933D01*
X-8605448Y21858890D01*
X-8499055Y21861916D01*
X-8399929Y21860630D01*
G37*
X-8399929Y21860630D02*
X-8328403Y21854803D01*
X-8269773Y21841480D01*
X-8209338Y21817709D01*
X-8158584Y21793515D01*
X-7992807Y21690640D01*
X-7832039Y21549618D01*
X-7678804Y21374563D01*
X-7535627Y21169587D01*
X-7405032Y20938804D01*
X-7289543Y20686327D01*
X-7191685Y20416270D01*
X-7113982Y20132747D01*
X-7099641Y20068021D01*
X-7074125Y19915686D01*
X-7057755Y19749398D01*
X-7050661Y19579983D01*
X-7052970Y19418269D01*
X-7064810Y19275082D01*
X-7086311Y19161250D01*
X-7088793Y19152583D01*
X-7152104Y18990375D01*
X-7235398Y18865051D01*
X-7340148Y18775419D01*
X-7467825Y18720292D01*
X-7619905Y18698479D01*
X-7651697Y18698002D01*
X-7773275Y18704893D01*
X-7875084Y18727166D01*
X-7930191Y18747296D01*
X-8099840Y18838130D01*
X-8265741Y18968224D01*
X-8425158Y19134517D01*
X-8575355Y19333947D01*
X-8713595Y19563453D01*
X-8784265Y19702916D01*
X-8893282Y19956960D01*
X-8980401Y20212252D01*
X-9045291Y20464417D01*
X-9087619Y20709081D01*
X-9107052Y20941868D01*
X-9105211Y21047000D01*
X-8655510Y21047000D01*
X-8653851Y20900132D01*
X-8648540Y20780830D01*
X-8638169Y20674386D01*
X-8621329Y20566091D01*
X-8598177Y20448690D01*
X-8534656Y20180102D01*
X-8462649Y19936575D01*
X-8383408Y19720377D01*
X-8298190Y19533777D01*
X-8208248Y19379043D01*
X-8114837Y19258444D01*
X-8019211Y19174248D01*
X-7922624Y19128723D01*
X-7863918Y19120912D01*
X-7798920Y19129941D01*
X-7744982Y19151862D01*
X-7743662Y19152766D01*
X-7687204Y19216495D01*
X-7644961Y19315680D01*
X-7616890Y19445916D01*
X-7602945Y19602798D01*
X-7603082Y19781924D01*
X-7617256Y19978889D01*
X-7645423Y20189289D01*
X-7687538Y20408721D01*
X-7743557Y20632779D01*
X-7759188Y20687166D01*
X-7825621Y20886725D01*
X-7901308Y21069654D01*
X-7983893Y21233041D01*
X-8071017Y21373969D01*
X-8160323Y21489524D01*
X-8249452Y21576792D01*
X-8336047Y21632858D01*
X-8417751Y21654807D01*
X-8492205Y21639725D01*
X-8517277Y21624299D01*
X-8566313Y21577423D01*
X-8603127Y21515876D01*
X-8629077Y21433983D01*
X-8645523Y21326068D01*
X-8653823Y21186455D01*
X-8655510Y21047000D01*
X-9105211Y21047000D01*
X-9103259Y21158405D01*
X-9075907Y21354317D01*
X-9024663Y21525228D01*
X-8949195Y21666764D01*
X-8934934Y21686282D01*
X-8868482Y21761614D01*
X-8798011Y21812836D01*
X-8713630Y21843933D01*
X-8605448Y21858890D01*
X-8499055Y21861916D01*
X-8399929Y21860630D01*
G36*
X-12215679Y21869242D02*
G01*
X-12074622Y21853483D01*
X-11947439Y21816277D01*
X-11826066Y21753451D01*
X-11702437Y21660829D01*
X-11568666Y21534423D01*
X-11384893Y21318872D01*
X-11220937Y21070125D01*
X-11079181Y20793564D01*
X-10962007Y20494571D01*
X-10871798Y20178527D01*
X-10810938Y19850813D01*
X-10805792Y19811530D01*
X-10789299Y19587908D01*
X-10796924Y19381585D01*
X-10827543Y19196226D01*
X-10880030Y19035494D01*
X-10953262Y18903054D01*
X-11046115Y18802570D01*
X-11131934Y18748502D01*
X-11262603Y18708055D01*
X-11410325Y18696012D01*
X-11560753Y18712388D01*
X-11678276Y18747940D01*
X-11851316Y18840627D01*
X-12018899Y18972973D01*
X-12178964Y19142441D01*
X-12329453Y19346492D01*
X-12468306Y19582589D01*
X-12593464Y19848194D01*
X-12616459Y19904105D01*
X-12708688Y20160093D01*
X-12778299Y20410263D01*
X-12825497Y20651306D01*
X-12850485Y20879912D01*
X-12851860Y20978144D01*
X-12408842Y20978144D01*
X-12390732Y20766845D01*
X-12356724Y20539161D01*
X-12309049Y20304738D01*
X-12249938Y20073217D01*
X-12181622Y19854242D01*
X-12106331Y19657458D01*
X-12026296Y19492506D01*
X-12019578Y19480666D01*
X-11949730Y19371980D01*
X-11873271Y19274233D01*
X-11798793Y19197639D01*
X-11750542Y19160908D01*
X-11668788Y19129143D01*
X-11580249Y19122551D01*
X-11504141Y19142549D01*
X-11503844Y19142708D01*
X-11453353Y19191228D01*
X-11410286Y19274663D01*
X-11376235Y19385997D01*
X-11352791Y19518215D01*
X-11341546Y19664303D01*
X-11344093Y19817245D01*
X-11345706Y19839632D01*
X-11375382Y20098173D01*
X-11422158Y20355190D01*
X-11483961Y20604721D01*
X-11558718Y20840805D01*
X-11644359Y21057480D01*
X-11738810Y21248787D01*
X-11840001Y21408764D01*
X-11927480Y21513337D01*
X-12028639Y21601043D01*
X-12119728Y21648011D01*
X-12199974Y21654806D01*
X-12268601Y21621989D01*
X-12324836Y21550125D01*
X-12367903Y21439775D01*
X-12397028Y21291504D01*
X-12408825Y21163416D01*
X-12408842Y20978144D01*
X-12851860Y20978144D01*
X-12853466Y21092771D01*
X-12834643Y21286574D01*
X-12794220Y21458010D01*
X-12732401Y21603770D01*
X-12649389Y21720544D01*
X-12545387Y21805022D01*
X-12498159Y21828940D01*
X-12429726Y21854409D01*
X-12363739Y21867675D01*
X-12283454Y21871128D01*
X-12215679Y21869242D01*
G37*
X-12215679Y21869242D02*
X-12074622Y21853483D01*
X-11947439Y21816277D01*
X-11826066Y21753451D01*
X-11702437Y21660829D01*
X-11568666Y21534423D01*
X-11384893Y21318872D01*
X-11220937Y21070125D01*
X-11079181Y20793564D01*
X-10962007Y20494571D01*
X-10871798Y20178527D01*
X-10810938Y19850813D01*
X-10805792Y19811530D01*
X-10789299Y19587908D01*
X-10796924Y19381585D01*
X-10827543Y19196226D01*
X-10880030Y19035494D01*
X-10953262Y18903054D01*
X-11046115Y18802570D01*
X-11131934Y18748502D01*
X-11262603Y18708055D01*
X-11410325Y18696012D01*
X-11560753Y18712388D01*
X-11678276Y18747940D01*
X-11851316Y18840627D01*
X-12018899Y18972973D01*
X-12178964Y19142441D01*
X-12329453Y19346492D01*
X-12468306Y19582589D01*
X-12593464Y19848194D01*
X-12616459Y19904105D01*
X-12708688Y20160093D01*
X-12778299Y20410263D01*
X-12825497Y20651306D01*
X-12850485Y20879912D01*
X-12851860Y20978144D01*
X-12408842Y20978144D01*
X-12390732Y20766845D01*
X-12356724Y20539161D01*
X-12309049Y20304738D01*
X-12249938Y20073217D01*
X-12181622Y19854242D01*
X-12106331Y19657458D01*
X-12026296Y19492506D01*
X-12019578Y19480666D01*
X-11949730Y19371980D01*
X-11873271Y19274233D01*
X-11798793Y19197639D01*
X-11750542Y19160908D01*
X-11668788Y19129143D01*
X-11580249Y19122551D01*
X-11504141Y19142549D01*
X-11503844Y19142708D01*
X-11453353Y19191228D01*
X-11410286Y19274663D01*
X-11376235Y19385997D01*
X-11352791Y19518215D01*
X-11341546Y19664303D01*
X-11344093Y19817245D01*
X-11345706Y19839632D01*
X-11375382Y20098173D01*
X-11422158Y20355190D01*
X-11483961Y20604721D01*
X-11558718Y20840805D01*
X-11644359Y21057480D01*
X-11738810Y21248787D01*
X-11840001Y21408764D01*
X-11927480Y21513337D01*
X-12028639Y21601043D01*
X-12119728Y21648011D01*
X-12199974Y21654806D01*
X-12268601Y21621989D01*
X-12324836Y21550125D01*
X-12367903Y21439775D01*
X-12397028Y21291504D01*
X-12408825Y21163416D01*
X-12408842Y20978144D01*
X-12851860Y20978144D01*
X-12853466Y21092771D01*
X-12834643Y21286574D01*
X-12794220Y21458010D01*
X-12732401Y21603770D01*
X-12649389Y21720544D01*
X-12545387Y21805022D01*
X-12498159Y21828940D01*
X-12429726Y21854409D01*
X-12363739Y21867675D01*
X-12283454Y21871128D01*
X-12215679Y21869242D01*
G36*
X2591235Y20994172D02*
G01*
X2691218Y20959498D01*
X2778989Y20900200D01*
X2831802Y20839880D01*
X2880847Y20754886D01*
X2912062Y20664073D01*
X2925546Y20561274D01*
X2921397Y20440324D01*
X2899715Y20295055D01*
X2860597Y20119300D01*
X2844333Y20055303D01*
X2794127Y19843178D01*
X2763518Y19664596D01*
X2752802Y19515422D01*
X2762273Y19391525D01*
X2792225Y19288769D01*
X2842955Y19203021D01*
X2910029Y19134079D01*
X2977984Y19089412D01*
X3033701Y19082731D01*
X3082543Y19113523D01*
X3085970Y19117208D01*
X3117065Y19180630D01*
X3120172Y19261355D01*
X3097968Y19347500D01*
X3053129Y19427186D01*
X3005006Y19476552D01*
X2964131Y19512114D01*
X2956482Y19538041D01*
X2981077Y19569635D01*
X2997991Y19585675D01*
X3058616Y19617323D01*
X3140663Y19628876D01*
X3227943Y19619669D01*
X3289260Y19597638D01*
X3373881Y19534427D01*
X3451543Y19441878D01*
X3514435Y19332977D01*
X3554750Y19220710D01*
X3565500Y19138229D01*
X3570766Y19092422D01*
X3591137Y19081543D01*
X3633472Y19103222D01*
X3644635Y19110874D01*
X3690556Y19167454D01*
X3719183Y19256262D01*
X3731902Y19371541D01*
X3730100Y19507530D01*
X3715163Y19658471D01*
X3688480Y19818604D01*
X3651435Y19982170D01*
X3605417Y20143409D01*
X3551813Y20296564D01*
X3492008Y20435874D01*
X3427390Y20555580D01*
X3359345Y20649923D01*
X3289262Y20713144D01*
X3254488Y20731057D01*
X3221643Y20747018D01*
X3216742Y20768771D01*
X3236093Y20811607D01*
X3287602Y20868767D01*
X3367001Y20906918D01*
X3456970Y20920000D01*
X3510845Y20901768D01*
X3577062Y20851124D01*
X3650339Y20774146D01*
X3725392Y20676911D01*
X3796938Y20565497D01*
X3848297Y20469837D01*
X3915092Y20320555D01*
X3983578Y20145086D01*
X4048362Y19958979D01*
X4104052Y19777784D01*
X4145254Y19617051D01*
X4147305Y19607666D01*
X4172428Y19464584D01*
X4188858Y19314312D01*
X4196278Y19167222D01*
X4194370Y19033684D01*
X4182819Y18924069D01*
X4169858Y18870170D01*
X4140936Y18802029D01*
X4106868Y18747853D01*
X4088260Y18729261D01*
X4022670Y18704264D01*
X3937186Y18698711D01*
X3849218Y18712034D01*
X3783099Y18739212D01*
X3730364Y18781255D01*
X3674832Y18840561D01*
X3626000Y18905013D01*
X3593363Y18962491D01*
X3585251Y18991717D01*
X3579160Y18994743D01*
X3565282Y18964186D01*
X3556295Y18937524D01*
X3502292Y18814446D01*
X3426171Y18725106D01*
X3324793Y18667377D01*
X3195018Y18639132D01*
X3110417Y18635394D01*
X3021268Y18639876D01*
X2936700Y18651089D01*
X2881774Y18664563D01*
X2737625Y18737604D01*
X2617661Y18844217D01*
X2523163Y18982371D01*
X2455413Y19150037D01*
X2415692Y19345184D01*
X2409077Y19413560D01*
X2406085Y19485997D01*
X2408674Y19559809D01*
X2418009Y19641669D01*
X2435258Y19738253D01*
X2461584Y19856235D01*
X2498154Y20002290D01*
X2538581Y20155048D01*
X2574055Y20307881D01*
X2589260Y20430870D01*
X2584553Y20531141D01*
X2561478Y20613010D01*
X2519972Y20671480D01*
X2464246Y20700255D01*
X2405560Y20699390D01*
X2355176Y20668941D01*
X2325043Y20611826D01*
X2307622Y20574030D01*
X2275709Y20569898D01*
X2266585Y20572315D01*
X2191995Y20613538D01*
X2149498Y20680362D01*
X2141110Y20742426D01*
X2162032Y20834003D01*
X2214265Y20907097D01*
X2290555Y20960684D01*
X2383650Y20993742D01*
X2486294Y21005246D01*
X2591235Y20994172D01*
G37*
X2591235Y20994172D02*
X2691218Y20959498D01*
X2778989Y20900200D01*
X2831802Y20839880D01*
X2880847Y20754886D01*
X2912062Y20664073D01*
X2925546Y20561274D01*
X2921397Y20440324D01*
X2899715Y20295055D01*
X2860597Y20119300D01*
X2844333Y20055303D01*
X2794127Y19843178D01*
X2763518Y19664596D01*
X2752802Y19515422D01*
X2762273Y19391525D01*
X2792225Y19288769D01*
X2842955Y19203021D01*
X2910029Y19134079D01*
X2977984Y19089412D01*
X3033701Y19082731D01*
X3082543Y19113523D01*
X3085970Y19117208D01*
X3117065Y19180630D01*
X3120172Y19261355D01*
X3097968Y19347500D01*
X3053129Y19427186D01*
X3005006Y19476552D01*
X2964131Y19512114D01*
X2956482Y19538041D01*
X2981077Y19569635D01*
X2997991Y19585675D01*
X3058616Y19617323D01*
X3140663Y19628876D01*
X3227943Y19619669D01*
X3289260Y19597638D01*
X3373881Y19534427D01*
X3451543Y19441878D01*
X3514435Y19332977D01*
X3554750Y19220710D01*
X3565500Y19138229D01*
X3570766Y19092422D01*
X3591137Y19081543D01*
X3633472Y19103222D01*
X3644635Y19110874D01*
X3690556Y19167454D01*
X3719183Y19256262D01*
X3731902Y19371541D01*
X3730100Y19507530D01*
X3715163Y19658471D01*
X3688480Y19818604D01*
X3651435Y19982170D01*
X3605417Y20143409D01*
X3551813Y20296564D01*
X3492008Y20435874D01*
X3427390Y20555580D01*
X3359345Y20649923D01*
X3289262Y20713144D01*
X3254488Y20731057D01*
X3221643Y20747018D01*
X3216742Y20768771D01*
X3236093Y20811607D01*
X3287602Y20868767D01*
X3367001Y20906918D01*
X3456970Y20920000D01*
X3510845Y20901768D01*
X3577062Y20851124D01*
X3650339Y20774146D01*
X3725392Y20676911D01*
X3796938Y20565497D01*
X3848297Y20469837D01*
X3915092Y20320555D01*
X3983578Y20145086D01*
X4048362Y19958979D01*
X4104052Y19777784D01*
X4145254Y19617051D01*
X4147305Y19607666D01*
X4172428Y19464584D01*
X4188858Y19314312D01*
X4196278Y19167222D01*
X4194370Y19033684D01*
X4182819Y18924069D01*
X4169858Y18870170D01*
X4140936Y18802029D01*
X4106868Y18747853D01*
X4088260Y18729261D01*
X4022670Y18704264D01*
X3937186Y18698711D01*
X3849218Y18712034D01*
X3783099Y18739212D01*
X3730364Y18781255D01*
X3674832Y18840561D01*
X3626000Y18905013D01*
X3593363Y18962491D01*
X3585251Y18991717D01*
X3579160Y18994743D01*
X3565282Y18964186D01*
X3556295Y18937524D01*
X3502292Y18814446D01*
X3426171Y18725106D01*
X3324793Y18667377D01*
X3195018Y18639132D01*
X3110417Y18635394D01*
X3021268Y18639876D01*
X2936700Y18651089D01*
X2881774Y18664563D01*
X2737625Y18737604D01*
X2617661Y18844217D01*
X2523163Y18982371D01*
X2455413Y19150037D01*
X2415692Y19345184D01*
X2409077Y19413560D01*
X2406085Y19485997D01*
X2408674Y19559809D01*
X2418009Y19641669D01*
X2435258Y19738253D01*
X2461584Y19856235D01*
X2498154Y20002290D01*
X2538581Y20155048D01*
X2574055Y20307881D01*
X2589260Y20430870D01*
X2584553Y20531141D01*
X2561478Y20613010D01*
X2519972Y20671480D01*
X2464246Y20700255D01*
X2405560Y20699390D01*
X2355176Y20668941D01*
X2325043Y20611826D01*
X2307622Y20574030D01*
X2275709Y20569898D01*
X2266585Y20572315D01*
X2191995Y20613538D01*
X2149498Y20680362D01*
X2141110Y20742426D01*
X2162032Y20834003D01*
X2214265Y20907097D01*
X2290555Y20960684D01*
X2383650Y20993742D01*
X2486294Y21005246D01*
X2591235Y20994172D01*
G36*
X-3998707Y20993106D02*
G01*
X-3893185Y20951070D01*
X-3867084Y20935137D01*
X-3791324Y20865470D01*
X-3736575Y20781540D01*
X-3701728Y20679053D01*
X-3681114Y20554988D01*
X-3676615Y20428257D01*
X-3690111Y20317770D01*
X-3690358Y20316750D01*
X-3703738Y20263052D01*
X-3724806Y20179835D01*
X-3750648Y20078563D01*
X-3777744Y19973047D01*
X-3824243Y19762320D01*
X-3846257Y19583357D01*
X-3843490Y19433179D01*
X-3815643Y19308804D01*
X-3762420Y19207254D01*
X-3693971Y19134079D01*
X-3626016Y19089412D01*
X-3570299Y19082731D01*
X-3521457Y19113523D01*
X-3518030Y19117208D01*
X-3486566Y19181101D01*
X-3483654Y19262017D01*
X-3506605Y19348411D01*
X-3552731Y19428738D01*
X-3602328Y19479175D01*
X-3659003Y19523755D01*
X-3609645Y19576294D01*
X-3561548Y19613337D01*
X-3499744Y19627789D01*
X-3467676Y19628833D01*
X-3352123Y19609020D01*
X-3249271Y19553099D01*
X-3162917Y19466352D01*
X-3096864Y19354058D01*
X-3054909Y19221498D01*
X-3040853Y19073952D01*
X-3042028Y19037350D01*
X-3066431Y18896943D01*
X-3121962Y18784616D01*
X-3208247Y18701017D01*
X-3249347Y18676751D01*
X-3331391Y18650129D01*
X-3438114Y18636280D01*
X-3553706Y18635610D01*
X-3662360Y18648527D01*
X-3722226Y18664563D01*
X-3866611Y18737671D01*
X-3986388Y18844590D01*
X-4080660Y18984061D01*
X-4148530Y19154825D01*
X-4182938Y19311330D01*
X-4194967Y19415917D01*
X-4196462Y19517743D01*
X-4186317Y19626230D01*
X-4163427Y19750802D01*
X-4126687Y19900880D01*
X-4104082Y19983761D01*
X-4052978Y20187967D01*
X-4023433Y20357059D01*
X-4015481Y20490673D01*
X-4029161Y20588444D01*
X-4041148Y20618313D01*
X-4089455Y20679109D01*
X-4147082Y20704740D01*
X-4204596Y20695033D01*
X-4252560Y20649817D01*
X-4266682Y20622422D01*
X-4291235Y20579061D01*
X-4320881Y20569022D01*
X-4337750Y20572713D01*
X-4408728Y20609004D01*
X-4446843Y20668012D01*
X-4456666Y20742658D01*
X-4437838Y20832277D01*
X-4386238Y20905935D01*
X-4309196Y20961240D01*
X-4214041Y20995798D01*
X-4108102Y21007218D01*
X-3998707Y20993106D01*
G37*
X-3998707Y20993106D02*
X-3893185Y20951070D01*
X-3867084Y20935137D01*
X-3791324Y20865470D01*
X-3736575Y20781540D01*
X-3701728Y20679053D01*
X-3681114Y20554988D01*
X-3676615Y20428257D01*
X-3690111Y20317770D01*
X-3690358Y20316750D01*
X-3703738Y20263052D01*
X-3724806Y20179835D01*
X-3750648Y20078563D01*
X-3777744Y19973047D01*
X-3824243Y19762320D01*
X-3846257Y19583357D01*
X-3843490Y19433179D01*
X-3815643Y19308804D01*
X-3762420Y19207254D01*
X-3693971Y19134079D01*
X-3626016Y19089412D01*
X-3570299Y19082731D01*
X-3521457Y19113523D01*
X-3518030Y19117208D01*
X-3486566Y19181101D01*
X-3483654Y19262017D01*
X-3506605Y19348411D01*
X-3552731Y19428738D01*
X-3602328Y19479175D01*
X-3659003Y19523755D01*
X-3609645Y19576294D01*
X-3561548Y19613337D01*
X-3499744Y19627789D01*
X-3467676Y19628833D01*
X-3352123Y19609020D01*
X-3249271Y19553099D01*
X-3162917Y19466352D01*
X-3096864Y19354058D01*
X-3054909Y19221498D01*
X-3040853Y19073952D01*
X-3042028Y19037350D01*
X-3066431Y18896943D01*
X-3121962Y18784616D01*
X-3208247Y18701017D01*
X-3249347Y18676751D01*
X-3331391Y18650129D01*
X-3438114Y18636280D01*
X-3553706Y18635610D01*
X-3662360Y18648527D01*
X-3722226Y18664563D01*
X-3866611Y18737671D01*
X-3986388Y18844590D01*
X-4080660Y18984061D01*
X-4148530Y19154825D01*
X-4182938Y19311330D01*
X-4194967Y19415917D01*
X-4196462Y19517743D01*
X-4186317Y19626230D01*
X-4163427Y19750802D01*
X-4126687Y19900880D01*
X-4104082Y19983761D01*
X-4052978Y20187967D01*
X-4023433Y20357059D01*
X-4015481Y20490673D01*
X-4029161Y20588444D01*
X-4041148Y20618313D01*
X-4089455Y20679109D01*
X-4147082Y20704740D01*
X-4204596Y20695033D01*
X-4252560Y20649817D01*
X-4266682Y20622422D01*
X-4291235Y20579061D01*
X-4320881Y20569022D01*
X-4337750Y20572713D01*
X-4408728Y20609004D01*
X-4446843Y20668012D01*
X-4456666Y20742658D01*
X-4437838Y20832277D01*
X-4386238Y20905935D01*
X-4309196Y20961240D01*
X-4214041Y20995798D01*
X-4108102Y21007218D01*
X-3998707Y20993106D01*
%TO.C,SW1*%
D13*
X-416666Y-7954761D02*
X-559523Y-8002380D01*
X-797619Y-8002380D01*
X-892857Y-7954761D01*
X-940476Y-7907142D01*
X-988095Y-7811904D01*
X-988095Y-7716666D01*
X-940476Y-7621428D01*
X-892857Y-7573809D01*
X-797619Y-7526190D01*
X-607142Y-7478571D01*
X-511904Y-7430952D01*
X-464285Y-7383333D01*
X-416666Y-7288095D01*
X-416666Y-7192857D01*
X-464285Y-7097619D01*
X-511904Y-7050000D01*
X-607142Y-7002380D01*
X-845238Y-7002380D01*
X-988095Y-7050000D01*
X-1321428Y-7002380D02*
X-1559523Y-8002380D01*
X-1750000Y-7288095D01*
X-1940476Y-8002380D01*
X-2178571Y-7002380D01*
X-3083333Y-8002380D02*
X-2511904Y-8002380D01*
X-2797619Y-8002380D02*
X-2797619Y-7002380D01*
X-2702380Y-7145238D01*
X-2607142Y-7240476D01*
X-2511904Y-7288095D01*
%TO.C,R1*%
X-833333Y-7672380D02*
X-500000Y-7196190D01*
X-261904Y-7672380D02*
X-261904Y-6672380D01*
X-642857Y-6672380D01*
X-738095Y-6720000D01*
X-785714Y-6767619D01*
X-833333Y-6862857D01*
X-833333Y-7005714D01*
X-785714Y-7100952D01*
X-738095Y-7148571D01*
X-642857Y-7196190D01*
X-261904Y-7196190D01*
X-1785714Y-7672380D02*
X-1214285Y-7672380D01*
X-1499999Y-7672380D02*
X-1499999Y-6672380D01*
X-1404761Y-6815238D01*
X-1309523Y-6910476D01*
X-1214285Y-6958095D01*
%TO.C,BT1*%
X-1214285Y-3928571D02*
X-1357142Y-3976190D01*
X-1404761Y-4023809D01*
X-1452380Y-4119047D01*
X-1452380Y-4261904D01*
X-1404761Y-4357142D01*
X-1357142Y-4404761D01*
X-1261904Y-4452380D01*
X-880952Y-4452380D01*
X-880952Y-3452380D01*
X-1214285Y-3452380D01*
X-1309523Y-3500000D01*
X-1357142Y-3547619D01*
X-1404761Y-3642857D01*
X-1404761Y-3738095D01*
X-1357142Y-3833333D01*
X-1309523Y-3880952D01*
X-1214285Y-3928571D01*
X-880952Y-3928571D01*
X-1738095Y-3452380D02*
X-2309523Y-3452380D01*
X-2023809Y-4452380D02*
X-2023809Y-3452380D01*
X-3166666Y-4452380D02*
X-2595238Y-4452380D01*
X-2880952Y-4452380D02*
X-2880952Y-3452380D01*
X-2785714Y-3595238D01*
X-2690476Y-3690476D01*
X-2595238Y-3738095D01*
%TD*%
M02*
