%TF.GenerationSoftware,KiCad,Pcbnew,(5.1.8)-1*%
%TF.CreationDate,2020-11-17T19:57:04-05:00*%
%TF.ProjectId,drawing,64726177-696e-4672-9e6b-696361645f70,rev?*%
%TF.SameCoordinates,Original*%
%TF.FileFunction,Copper,L2,Bot*%
%TF.FilePolarity,Positive*%
%FSLAX46Y46*%
G04 Gerber Fmt 4.6, Leading zero omitted, Abs format (unit mm)*
G04 Created by KiCad (PCBNEW (5.1.8)-1) date 2020-11-17 19:57:04*
%MOMM*%
%LPD*%
G01*
G04 APERTURE LIST*
%TA.AperFunction,SMDPad,CuDef*%
%ADD10R,1.000000X0.800000*%
%TD*%
%TA.AperFunction,SMDPad,CuDef*%
%ADD11R,0.700000X1.500000*%
%TD*%
%TA.AperFunction,SMDPad,CuDef*%
%ADD12C,17.800000*%
%TD*%
%TA.AperFunction,SMDPad,CuDef*%
%ADD13R,2.600000X5.560000*%
%TD*%
%TA.AperFunction,ComponentPad*%
%ADD14C,7.559524*%
%TD*%
%TA.AperFunction,ViaPad*%
%ADD15C,0.600000*%
%TD*%
%TA.AperFunction,Conductor*%
%ADD16C,0.250000*%
%TD*%
%TA.AperFunction,Conductor*%
%ADD17C,0.254000*%
%TD*%
%TA.AperFunction,Conductor*%
%ADD18C,0.100000*%
%TD*%
G04 APERTURE END LIST*
D10*
%TO.P,SW1,*%
%TO.N,*%
X1900000Y-9970000D03*
X-5400000Y-9970000D03*
X-5400000Y-12180000D03*
X1900000Y-12180000D03*
D11*
%TO.P,SW1,3*%
%TO.N,Net-(SW1-Pad3)*%
X-4000000Y-9320000D03*
%TO.P,SW1,2*%
%TO.N,/VRes*%
X-2500000Y-9320000D03*
%TO.P,SW1,1*%
X500000Y-9320000D03*
%TD*%
%TO.P,R1,2*%
%TO.N,/Vin*%
%TA.AperFunction,SMDPad,CuDef*%
G36*
G01*
X-100000Y-6025001D02*
X-100000Y-4774999D01*
G75*
G02*
X149999Y-4525000I249999J0D01*
G01*
X775001Y-4525000D01*
G75*
G02*
X1025000Y-4774999I0J-249999D01*
G01*
X1025000Y-6025001D01*
G75*
G02*
X775001Y-6275000I-249999J0D01*
G01*
X149999Y-6275000D01*
G75*
G02*
X-100000Y-6025001I0J249999D01*
G01*
G37*
%TD.AperFunction*%
%TO.P,R1,1*%
%TO.N,/VRes*%
%TA.AperFunction,SMDPad,CuDef*%
G36*
G01*
X-3025000Y-6025001D02*
X-3025000Y-4774999D01*
G75*
G02*
X-2775001Y-4525000I249999J0D01*
G01*
X-2149999Y-4525000D01*
G75*
G02*
X-1900000Y-4774999I0J-249999D01*
G01*
X-1900000Y-6025001D01*
G75*
G02*
X-2149999Y-6275000I-249999J0D01*
G01*
X-2775001Y-6275000D01*
G75*
G02*
X-3025000Y-6025001I0J249999D01*
G01*
G37*
%TD.AperFunction*%
%TD*%
D12*
%TO.P,BT1,2*%
%TO.N,/GND*%
X-2000000Y7200000D03*
D13*
%TO.P,BT1,1*%
%TO.N,/Vin*%
X9905000Y7200000D03*
X-13905000Y7200000D03*
%TD*%
D14*
%TO.P,,1*%
%TO.N,N/C*%
X-2031151Y33936012D03*
%TD*%
D15*
%TO.N,/GND*%
X-16400000Y15200000D03*
%TO.N,/VRes*%
X-8800000Y-2800000D03*
%TD*%
D16*
%TO.N,/Vin*%
X10655000Y7000000D02*
X10655000Y-5345000D01*
X10600000Y-5400000D02*
X462500Y-5400000D01*
X10655000Y-5345000D02*
X10600000Y-5400000D01*
%TO.N,/VRes*%
X-2500000Y-9320000D02*
X500000Y-9320000D01*
X-2462500Y-9282500D02*
X-2500000Y-9320000D01*
X-2462500Y-5400000D02*
X-2462500Y-9282500D01*
X-2462500Y-5400000D02*
X-3200000Y-6137500D01*
X-5462500Y-6137500D02*
X-8800000Y-2800000D01*
X-3200000Y-6137500D02*
X-5462500Y-6137500D01*
%TD*%
D17*
%TO.N,/GND*%
X-1699614Y40613051D02*
X-1370345Y40588550D01*
X-1043844Y40548009D01*
X-720800Y40491635D01*
X-401601Y40419659D01*
X-86775Y40332303D01*
X222986Y40229805D01*
X527308Y40112384D01*
X825425Y39980286D01*
X1116958Y39833702D01*
X1401338Y39672869D01*
X1677928Y39498082D01*
X1946173Y39309504D01*
X2205693Y39107313D01*
X2455907Y38891755D01*
X2696191Y38663172D01*
X2924792Y38422869D01*
X3140307Y38172795D01*
X3342450Y37913247D01*
X3531041Y37644919D01*
X3705916Y37368275D01*
X3866714Y37083954D01*
X4013280Y36792455D01*
X4145350Y36494302D01*
X4262830Y36189940D01*
X4365318Y35880210D01*
X4452647Y35565536D01*
X4524581Y35246233D01*
X4581005Y34923112D01*
X4621541Y34596741D01*
X4646027Y34267537D01*
X4654102Y33939583D01*
X4637284Y33464209D01*
X4587397Y32995453D01*
X4504683Y32531367D01*
X4391033Y32080965D01*
X4379081Y32047090D01*
X4369797Y31982531D01*
X4360075Y31917765D01*
X4360176Y31915632D01*
X4359874Y31913531D01*
X4363366Y31848329D01*
X4366463Y31782984D01*
X4366976Y31780921D01*
X4367090Y31778793D01*
X4383259Y31715432D01*
X4399022Y31652037D01*
X4399929Y31650111D01*
X4400455Y31648049D01*
X4428648Y31589118D01*
X4456502Y31529960D01*
X4457768Y31528247D01*
X4458686Y31526328D01*
X4497858Y31473995D01*
X4536693Y31421442D01*
X4563266Y31397274D01*
X4844620Y31089595D01*
X5094512Y30757067D01*
X5311816Y30400584D01*
X5494492Y30022388D01*
X5640298Y29624695D01*
X5747117Y29209319D01*
X5812916Y28777913D01*
X5836301Y28314807D01*
X5836300Y24922335D01*
X5834536Y24911760D01*
X5836300Y24854994D01*
X5836300Y24831954D01*
X5837346Y24821334D01*
X5838727Y24776892D01*
X5843943Y24754351D01*
X5846212Y24731318D01*
X5859125Y24688750D01*
X5869149Y24645434D01*
X5878662Y24624345D01*
X5885381Y24602195D01*
X5906346Y24562972D01*
X5924631Y24522436D01*
X5938079Y24503603D01*
X5948988Y24483194D01*
X5977202Y24448815D01*
X6003045Y24412625D01*
X6019909Y24396777D01*
X6034589Y24378890D01*
X6068966Y24350677D01*
X6101374Y24320222D01*
X6121002Y24307971D01*
X6138893Y24293288D01*
X6178119Y24272322D01*
X6187159Y24266679D01*
X6207784Y24256465D01*
X6257894Y24229681D01*
X6268156Y24226568D01*
X6854064Y23936418D01*
X7465027Y23605921D01*
X8061025Y23255430D01*
X8641574Y22885490D01*
X9206389Y22496521D01*
X9755215Y22089174D01*
X10287672Y21663902D01*
X10803436Y21221240D01*
X11302142Y20761838D01*
X11783446Y20286036D01*
X12247096Y19794573D01*
X12692564Y19287881D01*
X13119738Y18766445D01*
X13528067Y18230923D01*
X13917367Y17681788D01*
X14287161Y17119515D01*
X14637285Y16544734D01*
X14967202Y15958010D01*
X15276729Y15359912D01*
X15565409Y14750776D01*
X15833020Y14131338D01*
X16079079Y13502189D01*
X16303303Y12863699D01*
X16505327Y12216392D01*
X16684951Y11560861D01*
X16841671Y10897770D01*
X16975236Y10227337D01*
X17085324Y9550492D01*
X17171554Y8867506D01*
X17233458Y8178941D01*
X17270935Y7485216D01*
X17283547Y6789384D01*
X17259732Y5829343D01*
X17188941Y4878061D01*
X17071796Y3934818D01*
X16908979Y3001376D01*
X16700964Y2079120D01*
X16448609Y1169657D01*
X16152506Y274590D01*
X15813354Y-604382D01*
X15431579Y-1465863D01*
X15008200Y-2308178D01*
X14543598Y-3129609D01*
X14038532Y-3928829D01*
X13493593Y-4704086D01*
X12909496Y-5453815D01*
X12286986Y-6176568D01*
X11626509Y-6870558D01*
X10932376Y-7531082D01*
X10209686Y-8153718D01*
X9459904Y-8737880D01*
X8684738Y-9282728D01*
X7885494Y-9787905D01*
X7064068Y-10252505D01*
X6221765Y-10675976D01*
X5360282Y-11057656D01*
X4481260Y-11396923D01*
X3586307Y-11693020D01*
X3038072Y-11845201D01*
X3038072Y-11780000D01*
X3025812Y-11655518D01*
X2989502Y-11535820D01*
X2930537Y-11425506D01*
X2851185Y-11328815D01*
X2754494Y-11249463D01*
X2644180Y-11190498D01*
X2524482Y-11154188D01*
X2400000Y-11141928D01*
X1400000Y-11141928D01*
X1275518Y-11154188D01*
X1155820Y-11190498D01*
X1045506Y-11249463D01*
X948815Y-11328815D01*
X869463Y-11425506D01*
X810498Y-11535820D01*
X774188Y-11655518D01*
X761928Y-11780000D01*
X761928Y-12323644D01*
X-122073Y-12433442D01*
X-1073339Y-12504232D01*
X-2031216Y-12527990D01*
X-2988957Y-12504232D01*
X-3940239Y-12433441D01*
X-4261928Y-12393489D01*
X-4261928Y-11780000D01*
X-4274188Y-11655518D01*
X-4310498Y-11535820D01*
X-4369463Y-11425506D01*
X-4448815Y-11328815D01*
X-4545506Y-11249463D01*
X-4655820Y-11190498D01*
X-4775518Y-11154188D01*
X-4900000Y-11141928D01*
X-5900000Y-11141928D01*
X-6024482Y-11154188D01*
X-6144180Y-11190498D01*
X-6254494Y-11249463D01*
X-6351185Y-11328815D01*
X-6430537Y-11425506D01*
X-6489502Y-11535820D01*
X-6525812Y-11655518D01*
X-6538072Y-11780000D01*
X-6538072Y-11990801D01*
X-6739161Y-11945467D01*
X-7648596Y-11693023D01*
X-8543555Y-11396925D01*
X-9422576Y-11057659D01*
X-10284058Y-10675979D01*
X-11126361Y-10252509D01*
X-11947786Y-9787910D01*
X-12747027Y-9282735D01*
X-13522294Y-8737886D01*
X-14271967Y-8153734D01*
X-14994657Y-7531099D01*
X-15688791Y-6870576D01*
X-16349280Y-6176576D01*
X-16971905Y-5453803D01*
X-17555960Y-4704129D01*
X-18100802Y-3928875D01*
X-18605893Y-3129616D01*
X-18844409Y-2707911D01*
X-9735000Y-2707911D01*
X-9735000Y-2892089D01*
X-9699068Y-3072729D01*
X-9628586Y-3242889D01*
X-9526262Y-3396028D01*
X-9396028Y-3526262D01*
X-9242889Y-3628586D01*
X-9072729Y-3699068D01*
X-8951648Y-3723153D01*
X-6026299Y-6648503D01*
X-6002501Y-6677501D01*
X-5886776Y-6772474D01*
X-5754747Y-6843046D01*
X-5611486Y-6886503D01*
X-5499833Y-6897500D01*
X-5499825Y-6897500D01*
X-5462500Y-6901176D01*
X-5425175Y-6897500D01*
X-3237322Y-6897500D01*
X-3222500Y-6898960D01*
X-3222499Y-8054240D01*
X-3250000Y-8076809D01*
X-3295506Y-8039463D01*
X-3405820Y-7980498D01*
X-3525518Y-7944188D01*
X-3650000Y-7931928D01*
X-4350000Y-7931928D01*
X-4474482Y-7944188D01*
X-4594180Y-7980498D01*
X-4704494Y-8039463D01*
X-4801185Y-8118815D01*
X-4880537Y-8215506D01*
X-4939502Y-8325820D01*
X-4975812Y-8445518D01*
X-4988072Y-8570000D01*
X-4988072Y-8931928D01*
X-5900000Y-8931928D01*
X-6024482Y-8944188D01*
X-6144180Y-8980498D01*
X-6254494Y-9039463D01*
X-6351185Y-9118815D01*
X-6430537Y-9215506D01*
X-6489502Y-9325820D01*
X-6525812Y-9445518D01*
X-6538072Y-9570000D01*
X-6538072Y-10370000D01*
X-6525812Y-10494482D01*
X-6489502Y-10614180D01*
X-6430537Y-10724494D01*
X-6351185Y-10821185D01*
X-6254494Y-10900537D01*
X-6144180Y-10959502D01*
X-6024482Y-10995812D01*
X-5900000Y-11008072D01*
X-4900000Y-11008072D01*
X-4775518Y-10995812D01*
X-4655820Y-10959502D01*
X-4545506Y-10900537D01*
X-4448815Y-10821185D01*
X-4369463Y-10724494D01*
X-4360151Y-10707072D01*
X-4350000Y-10708072D01*
X-4270338Y-10708072D01*
X-4293304Y-10763517D01*
X-4335000Y-10973137D01*
X-4335000Y-11186863D01*
X-4293304Y-11396483D01*
X-4211515Y-11593940D01*
X-4092775Y-11771647D01*
X-3941647Y-11922775D01*
X-3763940Y-12041515D01*
X-3566483Y-12123304D01*
X-3356863Y-12165000D01*
X-3143137Y-12165000D01*
X-2933517Y-12123304D01*
X-2736060Y-12041515D01*
X-2558353Y-11922775D01*
X-2407225Y-11771647D01*
X-2288485Y-11593940D01*
X-2206696Y-11396483D01*
X-2165000Y-11186863D01*
X-2165000Y-10973137D01*
X-2206696Y-10763517D01*
X-2229662Y-10708072D01*
X-2150000Y-10708072D01*
X-2025518Y-10695812D01*
X-1905820Y-10659502D01*
X-1795506Y-10600537D01*
X-1698815Y-10521185D01*
X-1619463Y-10424494D01*
X-1560498Y-10314180D01*
X-1524188Y-10194482D01*
X-1512913Y-10080000D01*
X-671029Y-10080000D01*
X-763940Y-10118485D01*
X-941647Y-10237225D01*
X-1092775Y-10388353D01*
X-1211515Y-10566060D01*
X-1293304Y-10763517D01*
X-1335000Y-10973137D01*
X-1335000Y-11186863D01*
X-1293304Y-11396483D01*
X-1211515Y-11593940D01*
X-1092775Y-11771647D01*
X-941647Y-11922775D01*
X-763940Y-12041515D01*
X-566483Y-12123304D01*
X-356863Y-12165000D01*
X-143137Y-12165000D01*
X66483Y-12123304D01*
X263940Y-12041515D01*
X441647Y-11922775D01*
X592775Y-11771647D01*
X711515Y-11593940D01*
X793304Y-11396483D01*
X835000Y-11186863D01*
X835000Y-10973137D01*
X793304Y-10763517D01*
X770338Y-10708072D01*
X850000Y-10708072D01*
X860151Y-10707072D01*
X869463Y-10724494D01*
X948815Y-10821185D01*
X1045506Y-10900537D01*
X1155820Y-10959502D01*
X1275518Y-10995812D01*
X1400000Y-11008072D01*
X2400000Y-11008072D01*
X2524482Y-10995812D01*
X2644180Y-10959502D01*
X2754494Y-10900537D01*
X2851185Y-10821185D01*
X2930537Y-10724494D01*
X2989502Y-10614180D01*
X3025812Y-10494482D01*
X3038072Y-10370000D01*
X3038072Y-9570000D01*
X3025812Y-9445518D01*
X2989502Y-9325820D01*
X2930537Y-9215506D01*
X2851185Y-9118815D01*
X2754494Y-9039463D01*
X2644180Y-8980498D01*
X2524482Y-8944188D01*
X2400000Y-8931928D01*
X1488072Y-8931928D01*
X1488072Y-8570000D01*
X1475812Y-8445518D01*
X1439502Y-8325820D01*
X1380537Y-8215506D01*
X1301185Y-8118815D01*
X1204494Y-8039463D01*
X1094180Y-7980498D01*
X974482Y-7944188D01*
X850000Y-7931928D01*
X150000Y-7931928D01*
X25518Y-7944188D01*
X-94180Y-7980498D01*
X-204494Y-8039463D01*
X-301185Y-8118815D01*
X-380537Y-8215506D01*
X-439502Y-8325820D01*
X-475812Y-8445518D01*
X-487087Y-8560000D01*
X-1512913Y-8560000D01*
X-1524188Y-8445518D01*
X-1560498Y-8325820D01*
X-1619463Y-8215506D01*
X-1698815Y-8118815D01*
X-1702500Y-8115791D01*
X-1702500Y-6787932D01*
X-1656613Y-6763405D01*
X-1522038Y-6652962D01*
X-1411595Y-6518387D01*
X-1329528Y-6364851D01*
X-1278992Y-6198255D01*
X-1261928Y-6025001D01*
X-1261928Y-4774999D01*
X-738072Y-4774999D01*
X-738072Y-6025001D01*
X-721008Y-6198255D01*
X-670472Y-6364851D01*
X-588405Y-6518387D01*
X-477962Y-6652962D01*
X-343387Y-6763405D01*
X-189851Y-6845472D01*
X-23255Y-6896008D01*
X149999Y-6913072D01*
X775001Y-6913072D01*
X948255Y-6896008D01*
X1114851Y-6845472D01*
X1268387Y-6763405D01*
X1402962Y-6652962D01*
X1513405Y-6518387D01*
X1595472Y-6364851D01*
X1646008Y-6198255D01*
X1649776Y-6160000D01*
X10562678Y-6160000D01*
X10600000Y-6163676D01*
X10637322Y-6160000D01*
X10637333Y-6160000D01*
X10748986Y-6149003D01*
X10892247Y-6105546D01*
X11024276Y-6034974D01*
X11140001Y-5940001D01*
X11163804Y-5910997D01*
X11165997Y-5908804D01*
X11195001Y-5885001D01*
X11289974Y-5769276D01*
X11360546Y-5637247D01*
X11404003Y-5493986D01*
X11415000Y-5382333D01*
X11415000Y-5382325D01*
X11418676Y-5345000D01*
X11415000Y-5307675D01*
X11415000Y3820130D01*
X11449180Y3830498D01*
X11559494Y3889463D01*
X11656185Y3968815D01*
X11735537Y4065506D01*
X11794502Y4175820D01*
X11830812Y4295518D01*
X11843072Y4420000D01*
X11843072Y9980000D01*
X11830812Y10104482D01*
X11794502Y10224180D01*
X11735537Y10334494D01*
X11656185Y10431185D01*
X11559494Y10510537D01*
X11449180Y10569502D01*
X11329482Y10605812D01*
X11205000Y10618072D01*
X8605000Y10618072D01*
X8480518Y10605812D01*
X8360820Y10569502D01*
X8250506Y10510537D01*
X8153815Y10431185D01*
X8074463Y10334494D01*
X8015498Y10224180D01*
X7979188Y10104482D01*
X7966928Y9980000D01*
X7966928Y4420000D01*
X7979188Y4295518D01*
X8015498Y4175820D01*
X8074463Y4065506D01*
X8153815Y3968815D01*
X8250506Y3889463D01*
X8360820Y3830498D01*
X8480518Y3794188D01*
X8605000Y3781928D01*
X9895000Y3781928D01*
X9895001Y-4640000D01*
X1649776Y-4640000D01*
X1646008Y-4601745D01*
X1595472Y-4435149D01*
X1513405Y-4281613D01*
X1402962Y-4147038D01*
X1268387Y-4036595D01*
X1114851Y-3954528D01*
X948255Y-3903992D01*
X775001Y-3886928D01*
X149999Y-3886928D01*
X-23255Y-3903992D01*
X-189851Y-3954528D01*
X-343387Y-4036595D01*
X-477962Y-4147038D01*
X-588405Y-4281613D01*
X-670472Y-4435149D01*
X-721008Y-4601745D01*
X-738072Y-4774999D01*
X-1261928Y-4774999D01*
X-1278992Y-4601745D01*
X-1329528Y-4435149D01*
X-1411595Y-4281613D01*
X-1522038Y-4147038D01*
X-1656613Y-4036595D01*
X-1810149Y-3954528D01*
X-1976745Y-3903992D01*
X-2149999Y-3886928D01*
X-2775001Y-3886928D01*
X-2948255Y-3903992D01*
X-3114851Y-3954528D01*
X-3268387Y-4036595D01*
X-3402962Y-4147038D01*
X-3513405Y-4281613D01*
X-3595472Y-4435149D01*
X-3646008Y-4601745D01*
X-3663072Y-4774999D01*
X-3663072Y-5377500D01*
X-5147698Y-5377500D01*
X-7876847Y-2648352D01*
X-7900932Y-2527271D01*
X-7971414Y-2357111D01*
X-8073738Y-2203972D01*
X-8203972Y-2073738D01*
X-8357111Y-1971414D01*
X-8527271Y-1900932D01*
X-8707911Y-1865000D01*
X-8892089Y-1865000D01*
X-9072729Y-1900932D01*
X-9242889Y-1971414D01*
X-9396028Y-2073738D01*
X-9526262Y-2203972D01*
X-9628586Y-2357111D01*
X-9699068Y-2527271D01*
X-9735000Y-2707911D01*
X-18844409Y-2707911D01*
X-19070505Y-2308168D01*
X-19493976Y-1465865D01*
X-19875639Y-604421D01*
X-20214818Y274621D01*
X-20272249Y448170D01*
X-8572225Y448170D01*
X-7528410Y-625270D01*
X-5895549Y-1553449D01*
X-4112984Y-2145238D01*
X-2249218Y-2377894D01*
X-375875Y-2242478D01*
X1435054Y-1744192D01*
X3113976Y-902186D01*
X3528410Y-625270D01*
X4572225Y448170D01*
X-2000000Y7020395D01*
X-8572225Y448170D01*
X-20272249Y448170D01*
X-20511016Y1169684D01*
X-20763357Y2079094D01*
X-20971276Y3001359D01*
X-21134096Y3934816D01*
X-21251241Y4878058D01*
X-21322032Y5829341D01*
X-21345848Y6789417D01*
X-21333333Y7485263D01*
X-21295860Y8178890D01*
X-21233854Y8867521D01*
X-21147716Y9550543D01*
X-21077876Y9980000D01*
X-15843072Y9980000D01*
X-15843072Y4420000D01*
X-15830812Y4295518D01*
X-15794502Y4175820D01*
X-15735537Y4065506D01*
X-15656185Y3968815D01*
X-15559494Y3889463D01*
X-15449180Y3830498D01*
X-15329482Y3794188D01*
X-15205000Y3781928D01*
X-12605000Y3781928D01*
X-12480518Y3794188D01*
X-12360820Y3830498D01*
X-12250506Y3889463D01*
X-12153815Y3968815D01*
X-12074463Y4065506D01*
X-12015498Y4175820D01*
X-11979188Y4295518D01*
X-11966928Y4420000D01*
X-11966928Y7449218D01*
X-11577894Y7449218D01*
X-11442478Y5575875D01*
X-10944192Y3764946D01*
X-10102186Y2086024D01*
X-9825270Y1671590D01*
X-8751830Y627775D01*
X-2179605Y7200000D01*
X-1820395Y7200000D01*
X4751830Y627775D01*
X5825270Y1671590D01*
X6753449Y3304451D01*
X7345238Y5087016D01*
X7577894Y6950782D01*
X7442478Y8824125D01*
X6944192Y10635054D01*
X6102186Y12313976D01*
X5825270Y12728410D01*
X4751830Y13772225D01*
X-1820395Y7200000D01*
X-2179605Y7200000D01*
X-8751830Y13772225D01*
X-9825270Y12728410D01*
X-10753449Y11095549D01*
X-11345238Y9312984D01*
X-11577894Y7449218D01*
X-11966928Y7449218D01*
X-11966928Y9980000D01*
X-11979188Y10104482D01*
X-12015498Y10224180D01*
X-12074463Y10334494D01*
X-12153815Y10431185D01*
X-12250506Y10510537D01*
X-12360820Y10569502D01*
X-12480518Y10605812D01*
X-12605000Y10618072D01*
X-15205000Y10618072D01*
X-15329482Y10605812D01*
X-15449180Y10569502D01*
X-15559494Y10510537D01*
X-15656185Y10431185D01*
X-15735537Y10334494D01*
X-15794502Y10224180D01*
X-15830812Y10104482D01*
X-15843072Y9980000D01*
X-21077876Y9980000D01*
X-21037633Y10227453D01*
X-20904070Y10897875D01*
X-20747337Y11561017D01*
X-20567824Y12216499D01*
X-20365708Y12863789D01*
X-20141469Y13502416D01*
X-19965704Y13951830D01*
X-8572225Y13951830D01*
X-2000000Y7379605D01*
X4572225Y13951830D01*
X3528410Y15025270D01*
X1895549Y15953449D01*
X112984Y16545238D01*
X-1750782Y16777894D01*
X-3624125Y16642478D01*
X-5435054Y16144192D01*
X-7113976Y15302186D01*
X-7528410Y15025270D01*
X-8572225Y13951830D01*
X-19965704Y13951830D01*
X-19895394Y14131605D01*
X-19627867Y14751166D01*
X-19339227Y15360119D01*
X-19029683Y15958344D01*
X-18699771Y16545057D01*
X-18349687Y17119774D01*
X-17979757Y17682105D01*
X-17590547Y18231249D01*
X-17182153Y18766727D01*
X-16754948Y19288201D01*
X-16309421Y19795056D01*
X-15845915Y20286467D01*
X-15364490Y20762290D01*
X-14865842Y21221732D01*
X-14350090Y21664288D01*
X-13817564Y22089614D01*
X-13268786Y22497021D01*
X-12703874Y22885991D01*
X-12123396Y23255948D01*
X-11527434Y23606417D01*
X-10916356Y23936923D01*
X-10330459Y24227067D01*
X-10320194Y24230181D01*
X-10270071Y24256972D01*
X-10249460Y24267179D01*
X-10240426Y24272818D01*
X-10201193Y24293788D01*
X-10183298Y24308474D01*
X-10163675Y24320722D01*
X-10131277Y24351167D01*
X-10096889Y24379389D01*
X-10082205Y24397281D01*
X-10065345Y24413125D01*
X-10039508Y24449307D01*
X-10011288Y24483693D01*
X-10000376Y24504108D01*
X-9986932Y24522935D01*
X-9968650Y24563463D01*
X-9947681Y24602694D01*
X-9940962Y24624845D01*
X-9931449Y24645933D01*
X-9921425Y24689249D01*
X-9908512Y24731817D01*
X-9906243Y24754850D01*
X-9901027Y24777391D01*
X-9899646Y24821828D01*
X-9898600Y24832453D01*
X-9898600Y24855512D01*
X-9896837Y24912260D01*
X-9898600Y24922829D01*
X-9898600Y28314826D01*
X-9875216Y28777914D01*
X-9809417Y29209320D01*
X-9702598Y29624696D01*
X-9556770Y30022446D01*
X-9374205Y30400590D01*
X-9156845Y30757023D01*
X-8906916Y31089599D01*
X-8625566Y31397274D01*
X-8598993Y31421442D01*
X-8560158Y31473995D01*
X-8520986Y31526328D01*
X-8520068Y31528247D01*
X-8518802Y31529960D01*
X-8490963Y31589085D01*
X-8462755Y31648048D01*
X-8462228Y31650112D01*
X-8461322Y31652037D01*
X-8445569Y31715393D01*
X-8429390Y31778792D01*
X-8429276Y31780921D01*
X-8428763Y31782984D01*
X-8425666Y31848321D01*
X-8422174Y31913531D01*
X-8422476Y31915632D01*
X-8422375Y31917766D01*
X-8432100Y31982555D01*
X-8441381Y32047090D01*
X-8453331Y32080960D01*
X-8566997Y32531422D01*
X-8649793Y32995459D01*
X-8699589Y33464204D01*
X-8716494Y33939436D01*
X-8707951Y34278249D01*
X-8700956Y34370828D01*
X-6445913Y34370828D01*
X-6445913Y33501196D01*
X-6276256Y32648273D01*
X-5943462Y31844838D01*
X-5460320Y31121765D01*
X-4845398Y30506843D01*
X-4122325Y30023701D01*
X-3318890Y29690907D01*
X-2465967Y29521250D01*
X-1596335Y29521250D01*
X-743412Y29690907D01*
X60023Y30023701D01*
X783096Y30506843D01*
X1398018Y31121765D01*
X1881160Y31844838D01*
X2213954Y32648273D01*
X2383611Y33501196D01*
X2383611Y34370828D01*
X2213954Y35223751D01*
X1881160Y36027186D01*
X1398018Y36750259D01*
X783096Y37365181D01*
X60023Y37848323D01*
X-743412Y38181117D01*
X-1596335Y38350774D01*
X-2465967Y38350774D01*
X-3318890Y38181117D01*
X-4122325Y37848323D01*
X-4845398Y37365181D01*
X-5460320Y36750259D01*
X-5943462Y36027186D01*
X-6276256Y35223751D01*
X-6445913Y34370828D01*
X-8700956Y34370828D01*
X-8682436Y34615934D01*
X-8640526Y34948493D01*
X-8582514Y35275534D01*
X-8508819Y35596873D01*
X-8419907Y35912095D01*
X-8316136Y36220870D01*
X-8197939Y36522706D01*
X-8065646Y36817394D01*
X-7919850Y37104270D01*
X-7760679Y37383158D01*
X-7588808Y37653435D01*
X-7404493Y37914670D01*
X-7207971Y38166835D01*
X-7000074Y38409036D01*
X-6780912Y38640993D01*
X-6550993Y38862380D01*
X-6310834Y39072598D01*
X-6060640Y39271338D01*
X-5801026Y39458222D01*
X-5532342Y39632730D01*
X-5255103Y39794485D01*
X-4969586Y39943074D01*
X-4676238Y40078099D01*
X-4375467Y40199169D01*
X-4067782Y40305848D01*
X-3753392Y40397755D01*
X-3432696Y40474475D01*
X-3106181Y40535616D01*
X-2774101Y40580744D01*
X-2436706Y40609446D01*
X-2089070Y40621470D01*
X-2039666Y40621470D01*
X-1699614Y40613051D01*
%TA.AperFunction,Conductor*%
D18*
G36*
X-1699614Y40613051D02*
G01*
X-1370345Y40588550D01*
X-1043844Y40548009D01*
X-720800Y40491635D01*
X-401601Y40419659D01*
X-86775Y40332303D01*
X222986Y40229805D01*
X527308Y40112384D01*
X825425Y39980286D01*
X1116958Y39833702D01*
X1401338Y39672869D01*
X1677928Y39498082D01*
X1946173Y39309504D01*
X2205693Y39107313D01*
X2455907Y38891755D01*
X2696191Y38663172D01*
X2924792Y38422869D01*
X3140307Y38172795D01*
X3342450Y37913247D01*
X3531041Y37644919D01*
X3705916Y37368275D01*
X3866714Y37083954D01*
X4013280Y36792455D01*
X4145350Y36494302D01*
X4262830Y36189940D01*
X4365318Y35880210D01*
X4452647Y35565536D01*
X4524581Y35246233D01*
X4581005Y34923112D01*
X4621541Y34596741D01*
X4646027Y34267537D01*
X4654102Y33939583D01*
X4637284Y33464209D01*
X4587397Y32995453D01*
X4504683Y32531367D01*
X4391033Y32080965D01*
X4379081Y32047090D01*
X4369797Y31982531D01*
X4360075Y31917765D01*
X4360176Y31915632D01*
X4359874Y31913531D01*
X4363366Y31848329D01*
X4366463Y31782984D01*
X4366976Y31780921D01*
X4367090Y31778793D01*
X4383259Y31715432D01*
X4399022Y31652037D01*
X4399929Y31650111D01*
X4400455Y31648049D01*
X4428648Y31589118D01*
X4456502Y31529960D01*
X4457768Y31528247D01*
X4458686Y31526328D01*
X4497858Y31473995D01*
X4536693Y31421442D01*
X4563266Y31397274D01*
X4844620Y31089595D01*
X5094512Y30757067D01*
X5311816Y30400584D01*
X5494492Y30022388D01*
X5640298Y29624695D01*
X5747117Y29209319D01*
X5812916Y28777913D01*
X5836301Y28314807D01*
X5836300Y24922335D01*
X5834536Y24911760D01*
X5836300Y24854994D01*
X5836300Y24831954D01*
X5837346Y24821334D01*
X5838727Y24776892D01*
X5843943Y24754351D01*
X5846212Y24731318D01*
X5859125Y24688750D01*
X5869149Y24645434D01*
X5878662Y24624345D01*
X5885381Y24602195D01*
X5906346Y24562972D01*
X5924631Y24522436D01*
X5938079Y24503603D01*
X5948988Y24483194D01*
X5977202Y24448815D01*
X6003045Y24412625D01*
X6019909Y24396777D01*
X6034589Y24378890D01*
X6068966Y24350677D01*
X6101374Y24320222D01*
X6121002Y24307971D01*
X6138893Y24293288D01*
X6178119Y24272322D01*
X6187159Y24266679D01*
X6207784Y24256465D01*
X6257894Y24229681D01*
X6268156Y24226568D01*
X6854064Y23936418D01*
X7465027Y23605921D01*
X8061025Y23255430D01*
X8641574Y22885490D01*
X9206389Y22496521D01*
X9755215Y22089174D01*
X10287672Y21663902D01*
X10803436Y21221240D01*
X11302142Y20761838D01*
X11783446Y20286036D01*
X12247096Y19794573D01*
X12692564Y19287881D01*
X13119738Y18766445D01*
X13528067Y18230923D01*
X13917367Y17681788D01*
X14287161Y17119515D01*
X14637285Y16544734D01*
X14967202Y15958010D01*
X15276729Y15359912D01*
X15565409Y14750776D01*
X15833020Y14131338D01*
X16079079Y13502189D01*
X16303303Y12863699D01*
X16505327Y12216392D01*
X16684951Y11560861D01*
X16841671Y10897770D01*
X16975236Y10227337D01*
X17085324Y9550492D01*
X17171554Y8867506D01*
X17233458Y8178941D01*
X17270935Y7485216D01*
X17283547Y6789384D01*
X17259732Y5829343D01*
X17188941Y4878061D01*
X17071796Y3934818D01*
X16908979Y3001376D01*
X16700964Y2079120D01*
X16448609Y1169657D01*
X16152506Y274590D01*
X15813354Y-604382D01*
X15431579Y-1465863D01*
X15008200Y-2308178D01*
X14543598Y-3129609D01*
X14038532Y-3928829D01*
X13493593Y-4704086D01*
X12909496Y-5453815D01*
X12286986Y-6176568D01*
X11626509Y-6870558D01*
X10932376Y-7531082D01*
X10209686Y-8153718D01*
X9459904Y-8737880D01*
X8684738Y-9282728D01*
X7885494Y-9787905D01*
X7064068Y-10252505D01*
X6221765Y-10675976D01*
X5360282Y-11057656D01*
X4481260Y-11396923D01*
X3586307Y-11693020D01*
X3038072Y-11845201D01*
X3038072Y-11780000D01*
X3025812Y-11655518D01*
X2989502Y-11535820D01*
X2930537Y-11425506D01*
X2851185Y-11328815D01*
X2754494Y-11249463D01*
X2644180Y-11190498D01*
X2524482Y-11154188D01*
X2400000Y-11141928D01*
X1400000Y-11141928D01*
X1275518Y-11154188D01*
X1155820Y-11190498D01*
X1045506Y-11249463D01*
X948815Y-11328815D01*
X869463Y-11425506D01*
X810498Y-11535820D01*
X774188Y-11655518D01*
X761928Y-11780000D01*
X761928Y-12323644D01*
X-122073Y-12433442D01*
X-1073339Y-12504232D01*
X-2031216Y-12527990D01*
X-2988957Y-12504232D01*
X-3940239Y-12433441D01*
X-4261928Y-12393489D01*
X-4261928Y-11780000D01*
X-4274188Y-11655518D01*
X-4310498Y-11535820D01*
X-4369463Y-11425506D01*
X-4448815Y-11328815D01*
X-4545506Y-11249463D01*
X-4655820Y-11190498D01*
X-4775518Y-11154188D01*
X-4900000Y-11141928D01*
X-5900000Y-11141928D01*
X-6024482Y-11154188D01*
X-6144180Y-11190498D01*
X-6254494Y-11249463D01*
X-6351185Y-11328815D01*
X-6430537Y-11425506D01*
X-6489502Y-11535820D01*
X-6525812Y-11655518D01*
X-6538072Y-11780000D01*
X-6538072Y-11990801D01*
X-6739161Y-11945467D01*
X-7648596Y-11693023D01*
X-8543555Y-11396925D01*
X-9422576Y-11057659D01*
X-10284058Y-10675979D01*
X-11126361Y-10252509D01*
X-11947786Y-9787910D01*
X-12747027Y-9282735D01*
X-13522294Y-8737886D01*
X-14271967Y-8153734D01*
X-14994657Y-7531099D01*
X-15688791Y-6870576D01*
X-16349280Y-6176576D01*
X-16971905Y-5453803D01*
X-17555960Y-4704129D01*
X-18100802Y-3928875D01*
X-18605893Y-3129616D01*
X-18844409Y-2707911D01*
X-9735000Y-2707911D01*
X-9735000Y-2892089D01*
X-9699068Y-3072729D01*
X-9628586Y-3242889D01*
X-9526262Y-3396028D01*
X-9396028Y-3526262D01*
X-9242889Y-3628586D01*
X-9072729Y-3699068D01*
X-8951648Y-3723153D01*
X-6026299Y-6648503D01*
X-6002501Y-6677501D01*
X-5886776Y-6772474D01*
X-5754747Y-6843046D01*
X-5611486Y-6886503D01*
X-5499833Y-6897500D01*
X-5499825Y-6897500D01*
X-5462500Y-6901176D01*
X-5425175Y-6897500D01*
X-3237322Y-6897500D01*
X-3222500Y-6898960D01*
X-3222499Y-8054240D01*
X-3250000Y-8076809D01*
X-3295506Y-8039463D01*
X-3405820Y-7980498D01*
X-3525518Y-7944188D01*
X-3650000Y-7931928D01*
X-4350000Y-7931928D01*
X-4474482Y-7944188D01*
X-4594180Y-7980498D01*
X-4704494Y-8039463D01*
X-4801185Y-8118815D01*
X-4880537Y-8215506D01*
X-4939502Y-8325820D01*
X-4975812Y-8445518D01*
X-4988072Y-8570000D01*
X-4988072Y-8931928D01*
X-5900000Y-8931928D01*
X-6024482Y-8944188D01*
X-6144180Y-8980498D01*
X-6254494Y-9039463D01*
X-6351185Y-9118815D01*
X-6430537Y-9215506D01*
X-6489502Y-9325820D01*
X-6525812Y-9445518D01*
X-6538072Y-9570000D01*
X-6538072Y-10370000D01*
X-6525812Y-10494482D01*
X-6489502Y-10614180D01*
X-6430537Y-10724494D01*
X-6351185Y-10821185D01*
X-6254494Y-10900537D01*
X-6144180Y-10959502D01*
X-6024482Y-10995812D01*
X-5900000Y-11008072D01*
X-4900000Y-11008072D01*
X-4775518Y-10995812D01*
X-4655820Y-10959502D01*
X-4545506Y-10900537D01*
X-4448815Y-10821185D01*
X-4369463Y-10724494D01*
X-4360151Y-10707072D01*
X-4350000Y-10708072D01*
X-4270338Y-10708072D01*
X-4293304Y-10763517D01*
X-4335000Y-10973137D01*
X-4335000Y-11186863D01*
X-4293304Y-11396483D01*
X-4211515Y-11593940D01*
X-4092775Y-11771647D01*
X-3941647Y-11922775D01*
X-3763940Y-12041515D01*
X-3566483Y-12123304D01*
X-3356863Y-12165000D01*
X-3143137Y-12165000D01*
X-2933517Y-12123304D01*
X-2736060Y-12041515D01*
X-2558353Y-11922775D01*
X-2407225Y-11771647D01*
X-2288485Y-11593940D01*
X-2206696Y-11396483D01*
X-2165000Y-11186863D01*
X-2165000Y-10973137D01*
X-2206696Y-10763517D01*
X-2229662Y-10708072D01*
X-2150000Y-10708072D01*
X-2025518Y-10695812D01*
X-1905820Y-10659502D01*
X-1795506Y-10600537D01*
X-1698815Y-10521185D01*
X-1619463Y-10424494D01*
X-1560498Y-10314180D01*
X-1524188Y-10194482D01*
X-1512913Y-10080000D01*
X-671029Y-10080000D01*
X-763940Y-10118485D01*
X-941647Y-10237225D01*
X-1092775Y-10388353D01*
X-1211515Y-10566060D01*
X-1293304Y-10763517D01*
X-1335000Y-10973137D01*
X-1335000Y-11186863D01*
X-1293304Y-11396483D01*
X-1211515Y-11593940D01*
X-1092775Y-11771647D01*
X-941647Y-11922775D01*
X-763940Y-12041515D01*
X-566483Y-12123304D01*
X-356863Y-12165000D01*
X-143137Y-12165000D01*
X66483Y-12123304D01*
X263940Y-12041515D01*
X441647Y-11922775D01*
X592775Y-11771647D01*
X711515Y-11593940D01*
X793304Y-11396483D01*
X835000Y-11186863D01*
X835000Y-10973137D01*
X793304Y-10763517D01*
X770338Y-10708072D01*
X850000Y-10708072D01*
X860151Y-10707072D01*
X869463Y-10724494D01*
X948815Y-10821185D01*
X1045506Y-10900537D01*
X1155820Y-10959502D01*
X1275518Y-10995812D01*
X1400000Y-11008072D01*
X2400000Y-11008072D01*
X2524482Y-10995812D01*
X2644180Y-10959502D01*
X2754494Y-10900537D01*
X2851185Y-10821185D01*
X2930537Y-10724494D01*
X2989502Y-10614180D01*
X3025812Y-10494482D01*
X3038072Y-10370000D01*
X3038072Y-9570000D01*
X3025812Y-9445518D01*
X2989502Y-9325820D01*
X2930537Y-9215506D01*
X2851185Y-9118815D01*
X2754494Y-9039463D01*
X2644180Y-8980498D01*
X2524482Y-8944188D01*
X2400000Y-8931928D01*
X1488072Y-8931928D01*
X1488072Y-8570000D01*
X1475812Y-8445518D01*
X1439502Y-8325820D01*
X1380537Y-8215506D01*
X1301185Y-8118815D01*
X1204494Y-8039463D01*
X1094180Y-7980498D01*
X974482Y-7944188D01*
X850000Y-7931928D01*
X150000Y-7931928D01*
X25518Y-7944188D01*
X-94180Y-7980498D01*
X-204494Y-8039463D01*
X-301185Y-8118815D01*
X-380537Y-8215506D01*
X-439502Y-8325820D01*
X-475812Y-8445518D01*
X-487087Y-8560000D01*
X-1512913Y-8560000D01*
X-1524188Y-8445518D01*
X-1560498Y-8325820D01*
X-1619463Y-8215506D01*
X-1698815Y-8118815D01*
X-1702500Y-8115791D01*
X-1702500Y-6787932D01*
X-1656613Y-6763405D01*
X-1522038Y-6652962D01*
X-1411595Y-6518387D01*
X-1329528Y-6364851D01*
X-1278992Y-6198255D01*
X-1261928Y-6025001D01*
X-1261928Y-4774999D01*
X-738072Y-4774999D01*
X-738072Y-6025001D01*
X-721008Y-6198255D01*
X-670472Y-6364851D01*
X-588405Y-6518387D01*
X-477962Y-6652962D01*
X-343387Y-6763405D01*
X-189851Y-6845472D01*
X-23255Y-6896008D01*
X149999Y-6913072D01*
X775001Y-6913072D01*
X948255Y-6896008D01*
X1114851Y-6845472D01*
X1268387Y-6763405D01*
X1402962Y-6652962D01*
X1513405Y-6518387D01*
X1595472Y-6364851D01*
X1646008Y-6198255D01*
X1649776Y-6160000D01*
X10562678Y-6160000D01*
X10600000Y-6163676D01*
X10637322Y-6160000D01*
X10637333Y-6160000D01*
X10748986Y-6149003D01*
X10892247Y-6105546D01*
X11024276Y-6034974D01*
X11140001Y-5940001D01*
X11163804Y-5910997D01*
X11165997Y-5908804D01*
X11195001Y-5885001D01*
X11289974Y-5769276D01*
X11360546Y-5637247D01*
X11404003Y-5493986D01*
X11415000Y-5382333D01*
X11415000Y-5382325D01*
X11418676Y-5345000D01*
X11415000Y-5307675D01*
X11415000Y3820130D01*
X11449180Y3830498D01*
X11559494Y3889463D01*
X11656185Y3968815D01*
X11735537Y4065506D01*
X11794502Y4175820D01*
X11830812Y4295518D01*
X11843072Y4420000D01*
X11843072Y9980000D01*
X11830812Y10104482D01*
X11794502Y10224180D01*
X11735537Y10334494D01*
X11656185Y10431185D01*
X11559494Y10510537D01*
X11449180Y10569502D01*
X11329482Y10605812D01*
X11205000Y10618072D01*
X8605000Y10618072D01*
X8480518Y10605812D01*
X8360820Y10569502D01*
X8250506Y10510537D01*
X8153815Y10431185D01*
X8074463Y10334494D01*
X8015498Y10224180D01*
X7979188Y10104482D01*
X7966928Y9980000D01*
X7966928Y4420000D01*
X7979188Y4295518D01*
X8015498Y4175820D01*
X8074463Y4065506D01*
X8153815Y3968815D01*
X8250506Y3889463D01*
X8360820Y3830498D01*
X8480518Y3794188D01*
X8605000Y3781928D01*
X9895000Y3781928D01*
X9895001Y-4640000D01*
X1649776Y-4640000D01*
X1646008Y-4601745D01*
X1595472Y-4435149D01*
X1513405Y-4281613D01*
X1402962Y-4147038D01*
X1268387Y-4036595D01*
X1114851Y-3954528D01*
X948255Y-3903992D01*
X775001Y-3886928D01*
X149999Y-3886928D01*
X-23255Y-3903992D01*
X-189851Y-3954528D01*
X-343387Y-4036595D01*
X-477962Y-4147038D01*
X-588405Y-4281613D01*
X-670472Y-4435149D01*
X-721008Y-4601745D01*
X-738072Y-4774999D01*
X-1261928Y-4774999D01*
X-1278992Y-4601745D01*
X-1329528Y-4435149D01*
X-1411595Y-4281613D01*
X-1522038Y-4147038D01*
X-1656613Y-4036595D01*
X-1810149Y-3954528D01*
X-1976745Y-3903992D01*
X-2149999Y-3886928D01*
X-2775001Y-3886928D01*
X-2948255Y-3903992D01*
X-3114851Y-3954528D01*
X-3268387Y-4036595D01*
X-3402962Y-4147038D01*
X-3513405Y-4281613D01*
X-3595472Y-4435149D01*
X-3646008Y-4601745D01*
X-3663072Y-4774999D01*
X-3663072Y-5377500D01*
X-5147698Y-5377500D01*
X-7876847Y-2648352D01*
X-7900932Y-2527271D01*
X-7971414Y-2357111D01*
X-8073738Y-2203972D01*
X-8203972Y-2073738D01*
X-8357111Y-1971414D01*
X-8527271Y-1900932D01*
X-8707911Y-1865000D01*
X-8892089Y-1865000D01*
X-9072729Y-1900932D01*
X-9242889Y-1971414D01*
X-9396028Y-2073738D01*
X-9526262Y-2203972D01*
X-9628586Y-2357111D01*
X-9699068Y-2527271D01*
X-9735000Y-2707911D01*
X-18844409Y-2707911D01*
X-19070505Y-2308168D01*
X-19493976Y-1465865D01*
X-19875639Y-604421D01*
X-20214818Y274621D01*
X-20272249Y448170D01*
X-8572225Y448170D01*
X-7528410Y-625270D01*
X-5895549Y-1553449D01*
X-4112984Y-2145238D01*
X-2249218Y-2377894D01*
X-375875Y-2242478D01*
X1435054Y-1744192D01*
X3113976Y-902186D01*
X3528410Y-625270D01*
X4572225Y448170D01*
X-2000000Y7020395D01*
X-8572225Y448170D01*
X-20272249Y448170D01*
X-20511016Y1169684D01*
X-20763357Y2079094D01*
X-20971276Y3001359D01*
X-21134096Y3934816D01*
X-21251241Y4878058D01*
X-21322032Y5829341D01*
X-21345848Y6789417D01*
X-21333333Y7485263D01*
X-21295860Y8178890D01*
X-21233854Y8867521D01*
X-21147716Y9550543D01*
X-21077876Y9980000D01*
X-15843072Y9980000D01*
X-15843072Y4420000D01*
X-15830812Y4295518D01*
X-15794502Y4175820D01*
X-15735537Y4065506D01*
X-15656185Y3968815D01*
X-15559494Y3889463D01*
X-15449180Y3830498D01*
X-15329482Y3794188D01*
X-15205000Y3781928D01*
X-12605000Y3781928D01*
X-12480518Y3794188D01*
X-12360820Y3830498D01*
X-12250506Y3889463D01*
X-12153815Y3968815D01*
X-12074463Y4065506D01*
X-12015498Y4175820D01*
X-11979188Y4295518D01*
X-11966928Y4420000D01*
X-11966928Y7449218D01*
X-11577894Y7449218D01*
X-11442478Y5575875D01*
X-10944192Y3764946D01*
X-10102186Y2086024D01*
X-9825270Y1671590D01*
X-8751830Y627775D01*
X-2179605Y7200000D01*
X-1820395Y7200000D01*
X4751830Y627775D01*
X5825270Y1671590D01*
X6753449Y3304451D01*
X7345238Y5087016D01*
X7577894Y6950782D01*
X7442478Y8824125D01*
X6944192Y10635054D01*
X6102186Y12313976D01*
X5825270Y12728410D01*
X4751830Y13772225D01*
X-1820395Y7200000D01*
X-2179605Y7200000D01*
X-8751830Y13772225D01*
X-9825270Y12728410D01*
X-10753449Y11095549D01*
X-11345238Y9312984D01*
X-11577894Y7449218D01*
X-11966928Y7449218D01*
X-11966928Y9980000D01*
X-11979188Y10104482D01*
X-12015498Y10224180D01*
X-12074463Y10334494D01*
X-12153815Y10431185D01*
X-12250506Y10510537D01*
X-12360820Y10569502D01*
X-12480518Y10605812D01*
X-12605000Y10618072D01*
X-15205000Y10618072D01*
X-15329482Y10605812D01*
X-15449180Y10569502D01*
X-15559494Y10510537D01*
X-15656185Y10431185D01*
X-15735537Y10334494D01*
X-15794502Y10224180D01*
X-15830812Y10104482D01*
X-15843072Y9980000D01*
X-21077876Y9980000D01*
X-21037633Y10227453D01*
X-20904070Y10897875D01*
X-20747337Y11561017D01*
X-20567824Y12216499D01*
X-20365708Y12863789D01*
X-20141469Y13502416D01*
X-19965704Y13951830D01*
X-8572225Y13951830D01*
X-2000000Y7379605D01*
X4572225Y13951830D01*
X3528410Y15025270D01*
X1895549Y15953449D01*
X112984Y16545238D01*
X-1750782Y16777894D01*
X-3624125Y16642478D01*
X-5435054Y16144192D01*
X-7113976Y15302186D01*
X-7528410Y15025270D01*
X-8572225Y13951830D01*
X-19965704Y13951830D01*
X-19895394Y14131605D01*
X-19627867Y14751166D01*
X-19339227Y15360119D01*
X-19029683Y15958344D01*
X-18699771Y16545057D01*
X-18349687Y17119774D01*
X-17979757Y17682105D01*
X-17590547Y18231249D01*
X-17182153Y18766727D01*
X-16754948Y19288201D01*
X-16309421Y19795056D01*
X-15845915Y20286467D01*
X-15364490Y20762290D01*
X-14865842Y21221732D01*
X-14350090Y21664288D01*
X-13817564Y22089614D01*
X-13268786Y22497021D01*
X-12703874Y22885991D01*
X-12123396Y23255948D01*
X-11527434Y23606417D01*
X-10916356Y23936923D01*
X-10330459Y24227067D01*
X-10320194Y24230181D01*
X-10270071Y24256972D01*
X-10249460Y24267179D01*
X-10240426Y24272818D01*
X-10201193Y24293788D01*
X-10183298Y24308474D01*
X-10163675Y24320722D01*
X-10131277Y24351167D01*
X-10096889Y24379389D01*
X-10082205Y24397281D01*
X-10065345Y24413125D01*
X-10039508Y24449307D01*
X-10011288Y24483693D01*
X-10000376Y24504108D01*
X-9986932Y24522935D01*
X-9968650Y24563463D01*
X-9947681Y24602694D01*
X-9940962Y24624845D01*
X-9931449Y24645933D01*
X-9921425Y24689249D01*
X-9908512Y24731817D01*
X-9906243Y24754850D01*
X-9901027Y24777391D01*
X-9899646Y24821828D01*
X-9898600Y24832453D01*
X-9898600Y24855512D01*
X-9896837Y24912260D01*
X-9898600Y24922829D01*
X-9898600Y28314826D01*
X-9875216Y28777914D01*
X-9809417Y29209320D01*
X-9702598Y29624696D01*
X-9556770Y30022446D01*
X-9374205Y30400590D01*
X-9156845Y30757023D01*
X-8906916Y31089599D01*
X-8625566Y31397274D01*
X-8598993Y31421442D01*
X-8560158Y31473995D01*
X-8520986Y31526328D01*
X-8520068Y31528247D01*
X-8518802Y31529960D01*
X-8490963Y31589085D01*
X-8462755Y31648048D01*
X-8462228Y31650112D01*
X-8461322Y31652037D01*
X-8445569Y31715393D01*
X-8429390Y31778792D01*
X-8429276Y31780921D01*
X-8428763Y31782984D01*
X-8425666Y31848321D01*
X-8422174Y31913531D01*
X-8422476Y31915632D01*
X-8422375Y31917766D01*
X-8432100Y31982555D01*
X-8441381Y32047090D01*
X-8453331Y32080960D01*
X-8566997Y32531422D01*
X-8649793Y32995459D01*
X-8699589Y33464204D01*
X-8716494Y33939436D01*
X-8707951Y34278249D01*
X-8700956Y34370828D01*
X-6445913Y34370828D01*
X-6445913Y33501196D01*
X-6276256Y32648273D01*
X-5943462Y31844838D01*
X-5460320Y31121765D01*
X-4845398Y30506843D01*
X-4122325Y30023701D01*
X-3318890Y29690907D01*
X-2465967Y29521250D01*
X-1596335Y29521250D01*
X-743412Y29690907D01*
X60023Y30023701D01*
X783096Y30506843D01*
X1398018Y31121765D01*
X1881160Y31844838D01*
X2213954Y32648273D01*
X2383611Y33501196D01*
X2383611Y34370828D01*
X2213954Y35223751D01*
X1881160Y36027186D01*
X1398018Y36750259D01*
X783096Y37365181D01*
X60023Y37848323D01*
X-743412Y38181117D01*
X-1596335Y38350774D01*
X-2465967Y38350774D01*
X-3318890Y38181117D01*
X-4122325Y37848323D01*
X-4845398Y37365181D01*
X-5460320Y36750259D01*
X-5943462Y36027186D01*
X-6276256Y35223751D01*
X-6445913Y34370828D01*
X-8700956Y34370828D01*
X-8682436Y34615934D01*
X-8640526Y34948493D01*
X-8582514Y35275534D01*
X-8508819Y35596873D01*
X-8419907Y35912095D01*
X-8316136Y36220870D01*
X-8197939Y36522706D01*
X-8065646Y36817394D01*
X-7919850Y37104270D01*
X-7760679Y37383158D01*
X-7588808Y37653435D01*
X-7404493Y37914670D01*
X-7207971Y38166835D01*
X-7000074Y38409036D01*
X-6780912Y38640993D01*
X-6550993Y38862380D01*
X-6310834Y39072598D01*
X-6060640Y39271338D01*
X-5801026Y39458222D01*
X-5532342Y39632730D01*
X-5255103Y39794485D01*
X-4969586Y39943074D01*
X-4676238Y40078099D01*
X-4375467Y40199169D01*
X-4067782Y40305848D01*
X-3753392Y40397755D01*
X-3432696Y40474475D01*
X-3106181Y40535616D01*
X-2774101Y40580744D01*
X-2436706Y40609446D01*
X-2089070Y40621470D01*
X-2039666Y40621470D01*
X-1699614Y40613051D01*
G37*
%TD.AperFunction*%
%TD*%
M02*
