%TF.GenerationSoftware,KiCad,Pcbnew,(5.1.8)-1*%
%TF.CreationDate,2020-11-17T19:57:04-05:00*%
%TF.ProjectId,drawing,64726177-696e-4672-9e6b-696361645f70,rev?*%
%TF.SameCoordinates,Original*%
%TF.FileFunction,Profile,NP*%
%FSLAX46Y46*%
G04 Gerber Fmt 4.6, Leading zero omitted, Abs format (unit mm)*
G04 Created by KiCad (PCBNEW (5.1.8)-1) date 2020-11-17 19:57:04*
%MOMM*%
%LPD*%
G01*
G04 APERTURE LIST*
%TA.AperFunction,Profile*%
%ADD10C,0.100000*%
%TD*%
G04 APERTURE END LIST*
D10*
X-2100900Y41306470D02*
X-2477600Y41293440D01*
X-2477600Y41293440D02*
X-2849300Y41261820D01*
X-2849300Y41261820D02*
X-3215400Y41212070D01*
X-3215400Y41212070D02*
X-3575500Y41144640D01*
X-3575500Y41144640D02*
X-3929300Y41060000D01*
X-3929300Y41060000D02*
X-4276200Y40958590D01*
X-4276200Y40958590D02*
X-4615700Y40840880D01*
X-4615700Y40840880D02*
X-4947500Y40707320D01*
X-4947500Y40707320D02*
X-5271100Y40558370D01*
X-5271100Y40558370D02*
X-5586000Y40394490D01*
X-5586000Y40394490D02*
X-5891700Y40216130D01*
X-5891700Y40216130D02*
X-6187900Y40023750D01*
X-6187900Y40023750D02*
X-6474000Y39817800D01*
X-6474000Y39817800D02*
X-6749700Y39598800D01*
X-6749700Y39598800D02*
X-7014400Y39367100D01*
X-7014400Y39367100D02*
X-7267700Y39123200D01*
X-7267700Y39123200D02*
X-7509200Y38867600D01*
X-7509200Y38867600D02*
X-7738300Y38600700D01*
X-7738300Y38600700D02*
X-7954800Y38322900D01*
X-7954800Y38322900D02*
X-8158000Y38034900D01*
X-8158000Y38034900D02*
X-8347500Y37736900D01*
X-8347500Y37736900D02*
X-8523000Y37429400D01*
X-8523000Y37429400D02*
X-8683800Y37113000D01*
X-8683800Y37113000D02*
X-8829700Y36788000D01*
X-8829700Y36788000D02*
X-8960100Y36455000D01*
X-8960100Y36455000D02*
X-9074600Y36114300D01*
X-9074600Y36114300D02*
X-9172700Y35766500D01*
X-9172700Y35766500D02*
X-9254000Y35412000D01*
X-9254000Y35412000D02*
X-9318000Y35051200D01*
X-9318000Y35051200D02*
X-9364200Y34684600D01*
X-9364200Y34684600D02*
X-9392300Y34312700D01*
X-9392300Y34312700D02*
X-9401800Y33935900D01*
X-9401800Y33935900D02*
X-9383300Y33415800D01*
X-9383300Y33415800D02*
X-9328400Y32899000D01*
X-9328400Y32899000D02*
X-9237100Y32387300D01*
X-9237100Y32387300D02*
X-9109800Y31882800D01*
X-9109800Y31882800D02*
X-9434700Y31527500D01*
X-9434700Y31527500D02*
X-9724400Y31142000D01*
X-9724400Y31142000D02*
X-9976500Y30728600D01*
X-9976500Y30728600D02*
X-10188300Y30289900D01*
X-10188300Y30289900D02*
X-10357500Y29828400D01*
X-10357500Y29828400D02*
X-10481400Y29346600D01*
X-10481400Y29346600D02*
X-10557600Y28847000D01*
X-10557600Y28847000D02*
X-10583600Y28332100D01*
X-10583600Y28332100D02*
X-10583600Y24866100D01*
X-10583600Y24866100D02*
X-11231400Y24545300D01*
X-11231400Y24545300D02*
X-11864100Y24203100D01*
X-11864100Y24203100D02*
X-12481200Y23840200D01*
X-12481200Y23840200D02*
X-13082300Y23457100D01*
X-13082300Y23457100D02*
X-13667300Y23054300D01*
X-13667300Y23054300D02*
X-14235600Y22632400D01*
X-14235600Y22632400D02*
X-14787000Y22192000D01*
X-14787000Y22192000D02*
X-15321100Y21733700D01*
X-15321100Y21733700D02*
X-15837500Y21257900D01*
X-15837500Y21257900D02*
X-16336000Y20765200D01*
X-16336000Y20765200D02*
X-16816000Y20256300D01*
X-16816000Y20256300D02*
X-17277300Y19731500D01*
X-17277300Y19731500D02*
X-17719600Y19191600D01*
X-17719600Y19191600D02*
X-18142500Y18637100D01*
X-18142500Y18637100D02*
X-18545500Y18068500D01*
X-18545500Y18068500D02*
X-18928500Y17486300D01*
X-18928500Y17486300D02*
X-19291000Y16891200D01*
X-19291000Y16891200D02*
X-19632600Y16283700D01*
X-19632600Y16283700D02*
X-19953100Y15664300D01*
X-19953100Y15664300D02*
X-20252000Y15033700D01*
X-20252000Y15033700D02*
X-20529000Y14392200D01*
X-20529000Y14392200D02*
X-20783800Y13740700D01*
X-20783800Y13740700D02*
X-21016000Y13079400D01*
X-21016000Y13079400D02*
X-21225300Y12409100D01*
X-21225300Y12409100D02*
X-21411200Y11730300D01*
X-21411200Y11730300D02*
X-21573500Y11043600D01*
X-21573500Y11043600D02*
X-21711800Y10349400D01*
X-21711800Y10349400D02*
X-21825800Y9648400D01*
X-21825800Y9648400D02*
X-21915000Y8941100D01*
X-21915000Y8941100D02*
X-21979200Y8228100D01*
X-21979200Y8228100D02*
X-22018000Y7509900D01*
X-22018000Y7509900D02*
X-22031000Y6787100D01*
X-22031000Y6787100D02*
X-22006400Y5795400D01*
X-22006400Y5795400D02*
X-21933100Y4810400D01*
X-21933100Y4810400D02*
X-21811800Y3833700D01*
X-21811800Y3833700D02*
X-21643200Y2867100D01*
X-21643200Y2867100D02*
X-21427900Y1912100D01*
X-21427900Y1912100D02*
X-21166600Y970400D01*
X-21166600Y970400D02*
X-20859900Y43600D01*
X-20859900Y43600D02*
X-20508700Y-866600D01*
X-20508700Y-866600D02*
X-20113500Y-1758600D01*
X-20113500Y-1758600D02*
X-19675000Y-2630800D01*
X-19675000Y-2630800D02*
X-19193900Y-3481400D01*
X-19193900Y-3481400D02*
X-18670900Y-4309000D01*
X-18670900Y-4309000D02*
X-18106700Y-5111800D01*
X-18106700Y-5111800D02*
X-17501900Y-5888100D01*
X-17501900Y-5888100D02*
X-16857200Y-6636500D01*
X-16857200Y-6636500D02*
X-16173300Y-7355100D01*
X-16173300Y-7355100D02*
X-15454600Y-8039000D01*
X-15454600Y-8039000D02*
X-14706300Y-8683700D01*
X-14706300Y-8683700D02*
X-13930000Y-9288600D01*
X-13930000Y-9288600D02*
X-13127200Y-9852800D01*
X-13127200Y-9852800D02*
X-12299600Y-10375900D01*
X-12299600Y-10375900D02*
X-11449000Y-10857000D01*
X-11449000Y-10857000D02*
X-10576800Y-11295500D01*
X-10576800Y-11295500D02*
X-9684800Y-11690700D01*
X-9684800Y-11690700D02*
X-8774600Y-12042000D01*
X-8774600Y-12042000D02*
X-7847900Y-12348600D01*
X-7847900Y-12348600D02*
X-6906200Y-12610000D01*
X-6906200Y-12610000D02*
X-5951200Y-12825300D01*
X-5951200Y-12825300D02*
X-4984600Y-12994000D01*
X-4984600Y-12994000D02*
X-4007900Y-13115300D01*
X-4007900Y-13115300D02*
X-3022900Y-13188600D01*
X-3022900Y-13188600D02*
X-2031200Y-13213200D01*
X-2031200Y-13213200D02*
X-1039400Y-13188600D01*
X-1039400Y-13188600D02*
X-54400Y-13115300D01*
X-54400Y-13115300D02*
X922200Y-12994000D01*
X922200Y-12994000D02*
X1888900Y-12825300D01*
X1888900Y-12825300D02*
X2843900Y-12610000D01*
X2843900Y-12610000D02*
X3785600Y-12348600D01*
X3785600Y-12348600D02*
X4712300Y-12042000D01*
X4712300Y-12042000D02*
X5622500Y-11690700D01*
X5622500Y-11690700D02*
X6514500Y-11295500D01*
X6514500Y-11295500D02*
X7386700Y-10857000D01*
X7386700Y-10857000D02*
X8237300Y-10375900D01*
X8237300Y-10375900D02*
X9064900Y-9852800D01*
X9064900Y-9852800D02*
X9867600Y-9288600D01*
X9867600Y-9288600D02*
X10644000Y-8683700D01*
X10644000Y-8683700D02*
X11392300Y-8039000D01*
X11392300Y-8039000D02*
X12111000Y-7355100D01*
X12111000Y-7355100D02*
X12794900Y-6636500D01*
X12794900Y-6636500D02*
X13439500Y-5888100D01*
X13439500Y-5888100D02*
X14044300Y-5111800D01*
X14044300Y-5111800D02*
X14608600Y-4309000D01*
X14608600Y-4309000D02*
X15131600Y-3481400D01*
X15131600Y-3481400D02*
X15612700Y-2630800D01*
X15612700Y-2630800D02*
X16051100Y-1758600D01*
X16051100Y-1758600D02*
X16446400Y-866600D01*
X16446400Y-866600D02*
X16797600Y43600D01*
X16797600Y43600D02*
X17104200Y970400D01*
X17104200Y970400D02*
X17365500Y1912100D01*
X17365500Y1912100D02*
X17580900Y2867100D01*
X17580900Y2867100D02*
X17749500Y3833700D01*
X17749500Y3833700D02*
X17870800Y4810400D01*
X17870800Y4810400D02*
X17944100Y5795400D01*
X17944100Y5795400D02*
X17968700Y6787100D01*
X17968700Y6787100D02*
X17955600Y7509900D01*
X17955600Y7509900D02*
X17916800Y8228100D01*
X17916800Y8228100D02*
X17852700Y8941100D01*
X17852700Y8941100D02*
X17763400Y9648400D01*
X17763400Y9648400D02*
X17649400Y10349300D01*
X17649400Y10349300D02*
X17511100Y11043500D01*
X17511100Y11043500D02*
X17348800Y11730200D01*
X17348800Y11730200D02*
X17162800Y12409000D01*
X17162800Y12409000D02*
X16953600Y13079300D01*
X16953600Y13079300D02*
X16721400Y13740500D01*
X16721400Y13740500D02*
X16466600Y14392000D01*
X16466600Y14392000D02*
X16189500Y15033400D01*
X16189500Y15033400D02*
X15890600Y15664100D01*
X15890600Y15664100D02*
X15570100Y16283400D01*
X15570100Y16283400D02*
X15228500Y16890900D01*
X15228500Y16890900D02*
X14866000Y17486000D01*
X14866000Y17486000D02*
X14483100Y18068200D01*
X14483100Y18068200D02*
X14080000Y18636800D01*
X14080000Y18636800D02*
X13657200Y19191300D01*
X13657200Y19191300D02*
X13214900Y19731200D01*
X13214900Y19731200D02*
X12753600Y20255900D01*
X12753600Y20255900D02*
X12273500Y20764800D01*
X12273500Y20764800D02*
X11775100Y21257500D01*
X11775100Y21257500D02*
X11258700Y21733200D01*
X11258700Y21733200D02*
X10724600Y22191600D01*
X10724600Y22191600D02*
X10173200Y22632000D01*
X10173200Y22632000D02*
X9604900Y23053800D01*
X9604900Y23053800D02*
X9020000Y23456600D01*
X9020000Y23456600D02*
X8418800Y23839700D01*
X8418800Y23839700D02*
X7801700Y24202600D01*
X7801700Y24202600D02*
X7169100Y24544800D01*
X7169100Y24544800D02*
X6521300Y24865600D01*
X6521300Y24865600D02*
X6521300Y28332100D01*
X6521300Y28332100D02*
X6495300Y28847000D01*
X6495300Y28847000D02*
X6419100Y29346600D01*
X6419100Y29346600D02*
X6295200Y29828400D01*
X6295200Y29828400D02*
X6126000Y30289900D01*
X6126000Y30289900D02*
X5914100Y30728600D01*
X5914100Y30728600D02*
X5662100Y31142000D01*
X5662100Y31142000D02*
X5372400Y31527500D01*
X5372400Y31527500D02*
X5047500Y31882800D01*
X5047500Y31882800D02*
X5174800Y32387300D01*
X5174800Y32387300D02*
X5266000Y32899000D01*
X5266000Y32899000D02*
X5321000Y33415800D01*
X5321000Y33415800D02*
X5339400Y33935900D01*
X5339400Y33935900D02*
X5330400Y34301400D01*
X5330400Y34301400D02*
X5303400Y34664400D01*
X5303400Y34664400D02*
X5258700Y35024300D01*
X5258700Y35024300D02*
X5196500Y35380500D01*
X5196500Y35380500D02*
X5117200Y35732500D01*
X5117200Y35732500D02*
X5020900Y36079500D01*
X5020900Y36079500D02*
X4907900Y36421000D01*
X4907900Y36421000D02*
X4778400Y36756500D01*
X4778400Y36756500D02*
X4632800Y37085200D01*
X4632800Y37085200D02*
X4471200Y37406600D01*
X4471200Y37406600D02*
X4293900Y37720100D01*
X4293900Y37720100D02*
X4101100Y38025100D01*
X4101100Y38025100D02*
X3893200Y38320900D01*
X3893200Y38320900D02*
X3670300Y38607100D01*
X3670300Y38607100D02*
X3432700Y38882800D01*
X3432700Y38882800D02*
X3180700Y39147700D01*
X3180700Y39147700D02*
X2915800Y39399700D01*
X2915800Y39399700D02*
X2640000Y39637300D01*
X2640000Y39637300D02*
X2353900Y39860200D01*
X2353900Y39860200D02*
X2058100Y40068150D01*
X2058100Y40068150D02*
X1753100Y40260890D01*
X1753100Y40260890D02*
X1439600Y40438190D01*
X1439600Y40438190D02*
X1118200Y40599790D01*
X1118200Y40599790D02*
X789500Y40745440D01*
X789500Y40745440D02*
X454000Y40874890D01*
X454000Y40874890D02*
X112500Y40987890D01*
X112500Y40987890D02*
X-234600Y41084200D01*
X-234600Y41084200D02*
X-586500Y41163550D01*
X-586500Y41163550D02*
X-942700Y41225710D01*
X-942700Y41225710D02*
X-1302700Y41270410D01*
X-1302700Y41270410D02*
X-1665700Y41297420D01*
X-1665700Y41297420D02*
X-2031200Y41306470D01*
X-2031200Y41306470D02*
X-2100900Y41306470D01*
X-2100900Y41306470D02*
X-2100900Y41306470D01*
X-2100900Y41306470D02*
X-2100900Y41306470D01*
M02*
